Barriecito.ufo
<glyph name="period" format="1">
  <advance width="235"/>
  <unicode hex="002E"/>
  <outline>
    <contour>
      <point x="118" y="-12" type="curve" smooth="yes"/>
      <point x="155" y="-12"/>
      <point x="194" y="14"/>
      <point x="194" y="47" type="curve" smooth="yes"/>
      <point x="194" y="79"/>
      <point x="188" y="136"/>
      <point x="118" y="136" type="curve" smooth="yes"/>
      <point x="85" y="136"/>
      <point x="46" y="127"/>
      <point x="46" y="68" type="curve" smooth="yes"/>
      <point x="46" y="13"/>
      <point x="82" y="-12"/>
    </contour>
  </outline>
</glyph>
<glyph name="slash" format="1">
  <advance width="329"/>
  <unicode hex="002F"/>
  <outline>
    <contour>
      <point x="45" y="-39" type="curve" smooth="yes"/>
      <point x="54" y="-39"/>
      <point x="63" y="-37"/>
      <point x="68" y="-31" type="curve"/>
      <point x="79" y="-24"/>
      <point x="86" y="-22"/>
      <point x="90" y="1" type="curve" smooth="yes"/>
      <point x="93" y="23"/>
      <point x="155" y="190"/>
      <point x="168" y="226" type="curve"/>
      <point x="184" y="261"/>
      <point x="232" y="419"/>
      <point x="251" y="470" type="curve"/>
      <point x="264" y="520"/>
      <point x="307" y="624"/>
      <point x="315" y="645" type="curve" smooth="yes"/>
      <point x="322" y="661"/>
      <point x="327" y="682"/>
      <point x="327" y="695" type="curve" smooth="yes"/>
      <point x="327" y="703"/>
      <point x="326" y="708"/>
      <point x="322" y="709" type="curve" smooth="yes"/>
      <point x="313" y="712"/>
      <point x="285" y="713"/>
      <point x="276" y="713" type="curve"/>
      <point x="265" y="709"/>
      <point x="251" y="685"/>
      <point x="243" y="660" type="curve"/>
      <point x="237" y="634"/>
      <point x="216" y="560"/>
      <point x="197" y="520" type="curve"/>
      <point x="184" y="483"/>
      <point x="119" y="309"/>
      <point x="97" y="244" type="curve"/>
      <point x="79" y="176"/>
      <point x="28" y="46"/>
      <point x="18" y="15" type="curve"/>
      <point x="5" y="-15"/>
      <point x="12" y="-4"/>
      <point x="4" y="-14" type="curve"/>
      <point x="3" y="-18"/>
      <point x="2" y="-21"/>
      <point x="2" y="-24" type="curve" smooth="yes"/>
      <point x="2" y="-29"/>
      <point x="5" y="-32"/>
      <point x="18" y="-35" type="curve" smooth="yes"/>
      <point x="26" y="-37"/>
      <point x="35" y="-39"/>
    </contour>
  </outline>
</glyph>
<glyph name="greater" format="1">
  <advance width="500"/>
  <unicode hex="003E"/>
  <outline>
    <contour>
      <point x="151" y="61" type="line" smooth="yes"/>
      <point x="163" y="61"/>
      <point x="187" y="96"/>
      <point x="220" y="129" type="curve"/>
      <point x="248" y="158" type="line" smooth="yes"/>
      <point x="255" y="165"/>
      <point x="268" y="176"/>
      <point x="286" y="190" type="curve"/>
      <point x="337" y="235"/>
      <point x="371" y="262"/>
      <point x="387" y="273" type="curve" smooth="yes"/>
      <point x="403" y="284"/>
      <point x="416" y="295"/>
      <point x="427" y="306" type="curve" smooth="yes"/>
      <point x="438" y="317"/>
      <point x="442" y="328"/>
      <point x="441" y="338" type="curve"/>
      <point x="442" y="346"/>
      <point x="426" y="365"/>
      <point x="394" y="395" type="curve"/>
      <point x="363" y="426"/>
      <point x="337" y="451"/>
      <point x="316" y="470" type="curve"/>
      <point x="275" y="510"/>
      <point x="238" y="525"/>
      <point x="211" y="556" type="curve" smooth="yes"/>
      <point x="184" y="589"/>
      <point x="166" y="617"/>
      <point x="151" y="617" type="curve" smooth="yes"/>
      <point x="144" y="617"/>
      <point x="133" y="617"/>
      <point x="121" y="617" type="curve" smooth="yes"/>
      <point x="106" y="617"/>
      <point x="90" y="617"/>
      <point x="79" y="614" type="curve" smooth="yes"/>
      <point x="66" y="611"/>
      <point x="61" y="605"/>
      <point x="61" y="597" type="curve" smooth="yes"/>
      <point x="61" y="594"/>
      <point x="62" y="591"/>
      <point x="63" y="588" type="curve"/>
      <point x="86" y="567"/>
      <point x="100" y="548"/>
      <point x="131" y="520" type="curve"/>
      <point x="147" y="507"/>
      <point x="161" y="494"/>
      <point x="172" y="481" type="curve" smooth="yes"/>
      <point x="183" y="469"/>
      <point x="201" y="452"/>
      <point x="224" y="429" type="curve"/>
      <point x="245" y="410"/>
      <point x="263" y="395"/>
      <point x="276" y="386" type="curve" smooth="yes"/>
      <point x="290" y="377"/>
      <point x="304" y="364"/>
      <point x="318" y="346" type="curve"/>
      <point x="307" y="332"/>
      <point x="295" y="319"/>
      <point x="284" y="308" type="curve"/>
      <point x="253" y="264"/>
      <point x="212" y="222"/>
      <point x="180" y="197" type="curve" smooth="yes"/>
      <point x="164" y="185"/>
      <point x="147" y="169"/>
      <point x="129" y="150" type="curve" smooth="yes"/>
      <point x="94" y="111"/>
      <point x="74" y="94"/>
      <point x="70" y="89" type="curve" smooth="yes"/>
      <point x="66" y="83"/>
      <point x="64" y="78"/>
      <point x="64" y="74" type="curve" smooth="yes"/>
      <point x="64" y="69"/>
      <point x="67" y="65"/>
      <point x="73" y="63" type="curve"/>
      <point x="78" y="63"/>
      <point x="91" y="62"/>
      <point x="102" y="62" type="curve" smooth="yes"/>
    </contour>
  </outline>
</glyph>
<glyph name="E" format="1">
  <advance width="514"/>
  <unicode hex="0045"/>
  <outline>
    <contour>
      <point x="74" y="-2" type="curve" smooth="yes"/>
      <point x="76" y="-2"/>
      <point x="78" y="-1"/>
      <point x="80" y="-1" type="curve" smooth="yes"/>
      <point x="93" y="-1"/>
      <point x="190" y="3"/>
      <point x="238" y="3" type="curve" smooth="yes"/>
      <point x="285" y="3"/>
      <point x="381" y="1"/>
      <point x="414" y="1" type="curve" smooth="yes"/>
      <point x="446" y="1"/>
      <point x="462" y="-5"/>
      <point x="462" y="23" type="curve" smooth="yes"/>
      <point x="462" y="52"/>
      <point x="463" y="73"/>
      <point x="463" y="93" type="curve" smooth="yes"/>
      <point x="463" y="99"/>
      <point x="464" y="107"/>
      <point x="464" y="113" type="curve" smooth="yes"/>
      <point x="464" y="125"/>
      <point x="461" y="134"/>
      <point x="444" y="134" type="curve" smooth="yes"/>
      <point x="435" y="134"/>
      <point x="420" y="133"/>
      <point x="402" y="133" type="curve" smooth="yes"/>
      <point x="362" y="133"/>
      <point x="309" y="135"/>
      <point x="276" y="135" type="curve" smooth="yes"/>
      <point x="231" y="135"/>
      <point x="181" y="134"/>
      <point x="158" y="134" type="curve" smooth="yes"/>
      <point x="147" y="134"/>
      <point x="137" y="133"/>
      <point x="130" y="133" type="curve"/>
      <point x="126" y="132"/>
      <point x="122" y="132"/>
      <point x="119" y="132" type="curve"/>
      <point x="119" y="232" type="line"/>
      <point x="120" y="231"/>
      <point x="122" y="231"/>
      <point x="125" y="231" type="curve"/>
      <point x="127" y="230"/>
      <point x="131" y="230"/>
      <point x="138" y="230" type="curve" smooth="yes"/>
      <point x="149" y="230"/>
      <point x="192" y="238"/>
      <point x="256" y="238" type="curve" smooth="yes"/>
      <point x="319" y="238"/>
      <point x="340" y="236"/>
      <point x="356" y="236" type="curve" smooth="yes"/>
      <point x="363" y="236"/>
      <point x="370" y="233"/>
      <point x="374" y="233" type="curve" smooth="yes"/>
      <point x="380" y="233"/>
      <point x="383" y="236"/>
      <point x="383" y="249" type="curve" smooth="yes"/>
      <point x="383" y="274"/>
      <point x="382" y="283"/>
      <point x="382" y="302" type="curve" smooth="yes"/>
      <point x="382" y="321"/>
      <point x="384" y="326"/>
      <point x="384" y="333" type="curve" smooth="yes"/>
      <point x="384" y="340"/>
      <point x="382" y="345"/>
      <point x="371" y="345" type="curve" smooth="yes"/>
      <point x="360" y="345"/>
      <point x="346" y="348"/>
      <point x="322" y="348" type="curve" smooth="yes"/>
      <point x="298" y="348"/>
      <point x="253" y="344"/>
      <point x="216" y="344" type="curve" smooth="yes"/>
      <point x="188" y="344"/>
      <point x="163" y="344"/>
      <point x="146" y="345" type="curve" smooth="yes"/>
      <point x="136" y="345"/>
      <point x="127" y="345"/>
      <point x="119" y="346" type="curve"/>
      <point x="118" y="357"/>
      <point x="118" y="367"/>
      <point x="118" y="378" type="curve" smooth="yes"/>
      <point x="118" y="437" type="line" smooth="yes"/>
      <point x="118" y="472"/>
      <point x="121" y="517"/>
      <point x="121" y="533" type="curve" smooth="yes"/>
      <point x="121" y="548"/>
      <point x="120" y="553"/>
      <point x="131" y="553" type="curve" smooth="yes"/>
      <point x="137" y="553"/>
      <point x="160" y="552"/>
      <point x="184" y="552" type="curve" smooth="yes"/>
      <point x="203" y="552"/>
      <point x="222" y="553"/>
      <point x="237" y="554" type="curve" smooth="yes"/>
      <point x="246" y="555"/>
      <point x="255" y="555"/>
      <point x="264" y="555" type="curve" smooth="yes"/>
      <point x="289" y="555"/>
      <point x="315" y="553"/>
      <point x="340" y="553" type="curve" smooth="yes"/>
      <point x="382" y="553"/>
      <point x="412" y="553"/>
      <point x="427" y="550" type="curve" smooth="yes"/>
      <point x="433" y="549"/>
      <point x="442" y="545"/>
      <point x="449" y="545" type="curve" smooth="yes"/>
      <point x="456" y="545"/>
      <point x="462" y="548"/>
      <point x="463" y="560" type="curve"/>
      <point x="466" y="577"/>
      <point x="466" y="588"/>
      <point x="466" y="597" type="curve" smooth="yes"/>
      <point x="466" y="628"/>
      <point x="462" y="652"/>
      <point x="462" y="673" type="curve" smooth="yes"/>
      <point x="462" y="692"/>
      <point x="460" y="701"/>
      <point x="441" y="701" type="curve" smooth="yes"/>
      <point x="422" y="701"/>
      <point x="371" y="705"/>
      <point x="330" y="705" type="curve" smooth="yes"/>
      <point x="291" y="705"/>
      <point x="223" y="696"/>
      <point x="180" y="696" type="curve" smooth="yes"/>
      <point x="135" y="696"/>
      <point x="117" y="699"/>
      <point x="102" y="699" type="curve" smooth="yes"/>
      <point x="97" y="699"/>
      <point x="92" y="700"/>
      <point x="87" y="700" type="curve" smooth="yes"/>
      <point x="76" y="700"/>
      <point x="68" y="697"/>
      <point x="68" y="678" type="curve" smooth="yes"/>
      <point x="67" y="650"/>
      <point x="65" y="591"/>
      <point x="65" y="531" type="curve" smooth="yes"/>
      <point x="65" y="471"/>
      <point x="70" y="464"/>
      <point x="70" y="387" type="curve" smooth="yes"/>
      <point x="70" y="310"/>
      <point x="63" y="292"/>
      <point x="63" y="232" type="curve"/>
      <point x="63" y="95" type="line" smooth="yes"/>
      <point x="63" y="74"/>
      <point x="65" y="64"/>
      <point x="65" y="52" type="curve" smooth="yes"/>
      <point x="65" y="40"/>
      <point x="65" y="26"/>
      <point x="66" y="15" type="curve" smooth="yes"/>
      <point x="66" y="6"/>
      <point x="65" y="-2"/>
    </contour>
    <contour>
      <point x="270" y="0" type="move" name="bottom"/>
    </contour>
    <contour>
      <point x="442" y="1" type="move" name="ogonek"/>
    </contour>
    <contour>
      <point x="277" y="710" type="move" name="top"/>
    </contour>
  </outline>
</glyph>
<glyph name="Z" format="1">
  <advance width="641"/>
  <unicode hex="005A"/>
  <outline>
    <contour>
      <point x="442" y="-3" type="curve" smooth="yes"/>
      <point x="465" y="-3"/>
      <point x="486" y="-3"/>
      <point x="500" y="-1" type="curve" smooth="yes"/>
      <point x="543" y="6"/>
      <point x="562" y="3"/>
      <point x="575" y="6" type="curve"/>
      <point x="588" y="7"/>
      <point x="589" y="8"/>
      <point x="589" y="21" type="curve" smooth="yes"/>
      <point x="589" y="23"/>
      <point x="589" y="25"/>
      <point x="589" y="27" type="curve" smooth="yes"/>
      <point x="589" y="44"/>
      <point x="591" y="85"/>
      <point x="591" y="100" type="curve" smooth="yes"/>
      <point x="590" y="115"/>
      <point x="593" y="131"/>
      <point x="572" y="131" type="curve" smooth="yes"/>
      <point x="550" y="131"/>
      <point x="445" y="125"/>
      <point x="406" y="125" type="curve" smooth="yes"/>
      <point x="367" y="125"/>
      <point x="340" y="123"/>
      <point x="297" y="123" type="curve" smooth="yes"/>
      <point x="276" y="123"/>
      <point x="248" y="124"/>
      <point x="225" y="127" type="curve" smooth="yes"/>
      <point x="212" y="128"/>
      <point x="198" y="130"/>
      <point x="184" y="132" type="curve"/>
      <point x="279" y="262" type="line"/>
      <point x="330" y="329"/>
      <point x="382" y="403"/>
      <point x="401" y="430" type="curve" smooth="yes"/>
      <point x="438" y="480"/>
      <point x="528" y="612"/>
      <point x="539" y="628" type="curve" smooth="yes"/>
      <point x="550" y="644"/>
      <point x="548" y="672"/>
      <point x="548" y="680" type="curve" smooth="yes"/>
      <point x="548" y="687"/>
      <point x="550" y="696"/>
      <point x="535" y="696" type="curve" smooth="yes"/>
      <point x="533" y="696"/>
      <point x="531" y="695"/>
      <point x="528" y="695" type="curve" smooth="yes"/>
      <point x="514" y="693"/>
      <point x="468" y="693"/>
      <point x="428" y="693" type="curve" smooth="yes"/>
      <point x="402" y="693"/>
      <point x="379" y="693"/>
      <point x="369" y="693" type="curve" smooth="yes"/>
      <point x="347" y="693"/>
      <point x="241" y="697"/>
      <point x="201" y="697" type="curve" smooth="yes"/>
      <point x="160" y="697"/>
      <point x="107" y="693"/>
      <point x="75" y="693" type="curve" smooth="yes"/>
      <point x="60" y="693"/>
      <point x="44" y="698"/>
      <point x="45" y="679" type="curve" smooth="yes"/>
      <point x="47" y="660"/>
      <point x="48" y="647"/>
      <point x="48" y="640" type="curve" smooth="yes"/>
      <point x="48" y="633"/>
      <point x="44" y="628"/>
      <point x="59" y="627" type="curve" smooth="yes"/>
      <point x="65" y="627"/>
      <point x="82" y="627"/>
      <point x="101" y="627" type="curve" smooth="yes"/>
      <point x="130" y="627"/>
      <point x="163" y="627"/>
      <point x="172" y="625" type="curve" smooth="yes"/>
      <point x="176" y="624"/>
      <point x="183" y="624"/>
      <point x="190" y="624" type="curve" smooth="yes"/>
      <point x="209" y="624"/>
      <point x="235" y="626"/>
      <point x="251" y="626" type="curve" smooth="yes"/>
      <point x="357" y="625" type="line"/>
      <point x="377" y="623" type="line"/>
      <point x="380" y="622"/>
      <point x="383" y="622"/>
      <point x="386" y="622" type="curve"/>
      <point x="368" y="583" type="line" smooth="yes"/>
      <point x="357" y="560"/>
      <point x="344" y="535"/>
      <point x="332" y="518" type="curve" smooth="yes"/>
      <point x="308" y="486"/>
      <point x="243" y="401"/>
      <point x="225" y="370" type="curve" smooth="yes"/>
      <point x="206" y="338"/>
      <point x="106" y="205"/>
      <point x="87" y="180" type="curve"/>
      <point x="66" y="155"/>
      <point x="44" y="136"/>
      <point x="44" y="120" type="curve" smooth="yes"/>
      <point x="44" y="103"/>
      <point x="39" y="45"/>
      <point x="39" y="32" type="curve" smooth="yes"/>
      <point x="39" y="16"/>
      <point x="32" y="-1"/>
      <point x="70" y="-1" type="curve" smooth="yes"/>
      <point x="315" y="-1" type="line" smooth="yes"/>
      <point x="342" y="-1"/>
      <point x="397" y="-3"/>
    </contour>
    <contour>
      <point x="314" y="0" type="move" name="bottom"/>
    </contour>
    <contour>
      <point x="306" y="710" type="move" name="top"/>
    </contour>
  </outline>
</glyph>
<glyph name="underscore" format="1">
  <advance width="565"/>
  <unicode hex="005F"/>
  <outline>
    <contour>
      <point x="89" y="-105" type="curve"/>
      <point x="148" y="-101" type="line"/>
      <point x="181" y="-100"/>
      <point x="219" y="-97"/>
      <point x="242" y="-97" type="curve" smooth="yes"/>
      <point x="255" y="-97"/>
      <point x="272" y="-97"/>
      <point x="291" y="-97" type="curve" smooth="yes"/>
      <point x="342" y="-97"/>
      <point x="409" y="-96"/>
      <point x="441" y="-95" type="curve" smooth="yes"/>
      <point x="459" y="-95"/>
      <point x="477" y="-101"/>
      <point x="488" y="-101" type="curve" smooth="yes"/>
      <point x="494" y="-101"/>
      <point x="499" y="-99"/>
      <point x="501" y="-94" type="curve"/>
      <point x="504" y="-78"/>
      <point x="503" y="-56"/>
      <point x="503" y="-45" type="curve" smooth="yes"/>
      <point x="503" y="-34"/>
      <point x="500" y="-23"/>
      <point x="477" y="-23" type="curve"/>
      <point x="466" y="-22"/>
      <point x="455" y="-22"/>
      <point x="445" y="-22" type="curve"/>
      <point x="404" y="-22" type="line"/>
      <point x="207" y="-23" type="line"/>
      <point x="97" y="-23" type="line" smooth="yes"/>
      <point x="78" y="-23"/>
      <point x="68" y="-30"/>
      <point x="68" y="-45" type="curve" smooth="yes"/>
      <point x="68" y="-74" type="line" smooth="yes"/>
      <point x="68" y="-77"/>
      <point x="67" y="-82"/>
      <point x="67" y="-87" type="curve" smooth="yes"/>
      <point x="67" y="-96"/>
      <point x="70" y="-105"/>
    </contour>
  </outline>
</glyph>
<glyph name="grave" format="1">
  <advance width="247"/>
  <unicode hex="0060"/>
  <outline>
    <contour>
      <point x="191" y="612" type="curve"/>
      <point x="214" y="609"/>
      <point x="229" y="608"/>
      <point x="229" y="626" type="curve" smooth="yes"/>
      <point x="229" y="630"/>
      <point x="228" y="634"/>
      <point x="227" y="639" type="curve" smooth="yes"/>
      <point x="223" y="658"/>
      <point x="188" y="667"/>
      <point x="177" y="672" type="curve"/>
      <point x="142" y="680"/>
      <point x="126" y="686"/>
      <point x="91" y="701" type="curve"/>
      <point x="78" y="705"/>
      <point x="69" y="709"/>
      <point x="60" y="709" type="curve" smooth="yes"/>
      <point x="53" y="709"/>
      <point x="47" y="706"/>
      <point x="38" y="701" type="curve" smooth="yes"/>
      <point x="29" y="696"/>
      <point x="19" y="691"/>
      <point x="19" y="679" type="curve" smooth="yes"/>
      <point x="19" y="676"/>
      <point x="20" y="672"/>
      <point x="22" y="668" type="curve" smooth="yes"/>
      <point x="26" y="660"/>
      <point x="61" y="648"/>
      <point x="72" y="645" type="curve"/>
      <point x="85" y="637"/>
      <point x="94" y="642"/>
      <point x="134" y="624" type="curve"/>
      <point x="156" y="616" type="line"/>
      <point x="169" y="613"/>
      <point x="183" y="611"/>
    </contour>
  </outline>
</glyph>
<glyph name="a" format="1">
  <advance width="530"/>
  <unicode hex="0061"/>
  <outline>
    <contour>
      <point x="191" y="-11" type="curve" smooth="yes"/>
      <point x="266" y="-11"/>
      <point x="306" y="0"/>
      <point x="375" y="20" type="curve"/>
      <point x="375" y="18"/>
      <point x="375" y="18"/>
      <point x="375" y="12" type="curve"/>
      <point x="375" y="4"/>
      <point x="382" y="0"/>
      <point x="386" y="0" type="curve" smooth="yes"/>
      <point x="395" y="0"/>
      <point x="415" y="0"/>
      <point x="427" y="0" type="curve" smooth="yes"/>
      <point x="430" y="0"/>
      <point x="433" y="-1"/>
      <point x="435" y="-1" type="curve" smooth="yes"/>
      <point x="440" y="-1"/>
      <point x="451" y="1"/>
      <point x="453" y="22" type="curve"/>
      <point x="455" y="73"/>
      <point x="451" y="122"/>
      <point x="451" y="172" type="curve"/>
      <point x="453" y="207"/>
      <point x="456" y="244"/>
      <point x="456" y="281" type="curve"/>
      <point x="462" y="416"/>
      <point x="468" y="593"/>
      <point x="289" y="593" type="curve" smooth="yes"/>
      <point x="232" y="593"/>
      <point x="189" y="588"/>
      <point x="82" y="508" type="curve" smooth="yes"/>
      <point x="79" y="506"/>
      <point x="70" y="501"/>
      <point x="70" y="494" type="curve" smooth="yes"/>
      <point x="70" y="483"/>
      <point x="79" y="445"/>
      <point x="85" y="437" type="curve"/>
      <point x="85" y="430"/>
      <point x="94" y="428"/>
      <point x="94" y="428" type="curve"/>
      <point x="100" y="427"/>
      <point x="109" y="433"/>
      <point x="111" y="434" type="curve"/>
      <point x="170" y="475"/>
      <point x="212" y="516"/>
      <point x="268" y="516" type="curve" smooth="yes"/>
      <point x="353" y="516"/>
      <point x="369" y="420"/>
      <point x="377" y="223" type="curve"/>
      <point x="320" y="223"/>
      <point x="302" y="215"/>
      <point x="249" y="215" type="curve" smooth="yes"/>
      <point x="156" y="215"/>
      <point x="38" y="191"/>
      <point x="30" y="121" type="curve"/>
      <point x="30" y="13"/>
      <point x="107" y="-11"/>
    </contour>
    <contour>
      <point x="192" y="46" type="curve" smooth="yes"/>
      <point x="130" y="46"/>
      <point x="111" y="60"/>
      <point x="111" y="108" type="curve"/>
      <point x="115" y="154"/>
      <point x="179" y="178"/>
      <point x="238" y="178" type="curve" smooth="yes"/>
      <point x="273" y="178"/>
      <point x="302" y="182"/>
      <point x="378" y="175" type="curve"/>
      <point x="375" y="82" type="line"/>
      <point x="333" y="62"/>
      <point x="276" y="46"/>
    </contour>
    <contour>
      <point x="266" y="0" type="move" name="bottom"/>
    </contour>
    <contour>
      <point x="270" y="602" type="move" name="top"/>
    </contour>
  </outline>
</glyph>
<glyph name="e" format="1">
  <advance width="482"/>
  <unicode hex="0065"/>
  <outline>
    <contour>
      <point x="275" y="-22" type="curve" smooth="yes"/>
      <point x="354" y="-22"/>
      <point x="420" y="6"/>
      <point x="445" y="32" type="curve"/>
      <point x="450" y="36"/>
      <point x="454" y="39"/>
      <point x="456" y="43" type="curve" smooth="yes"/>
      <point x="457" y="45"/>
      <point x="448" y="68"/>
      <point x="438" y="93" type="curve"/>
      <point x="430" y="106"/>
      <point x="428" y="122"/>
      <point x="422" y="133" type="curve"/>
      <point x="409" y="166"/>
      <point x="404" y="174"/>
      <point x="394" y="174" type="curve"/>
      <point x="355" y="155"/>
      <point x="336" y="143"/>
      <point x="288" y="143" type="curve" smooth="yes"/>
      <point x="208" y="143"/>
      <point x="187" y="195"/>
      <point x="183" y="240" type="curve"/>
      <point x="275" y="247"/>
      <point x="402" y="260"/>
      <point x="441" y="260" type="curve" smooth="yes"/>
      <point x="451" y="262"/>
      <point x="451" y="269"/>
      <point x="451" y="269" type="curve" smooth="yes"/>
      <point x="451" y="388"/>
      <point x="439" y="598"/>
      <point x="239" y="598" type="curve" smooth="yes"/>
      <point x="157" y="598"/>
      <point x="25" y="540"/>
      <point x="25" y="297" type="curve" smooth="yes"/>
      <point x="25" y="206"/>
      <point x="44" y="-22"/>
    </contour>
    <contour>
      <point x="183" y="298" type="line"/>
      <point x="187" y="374"/>
      <point x="206" y="422"/>
      <point x="244" y="422" type="curve" smooth="yes"/>
      <point x="273" y="422"/>
      <point x="293" y="391"/>
      <point x="299" y="308" type="curve"/>
    </contour>
    <contour>
      <point x="267" y="0" type="move" name="bottom"/>
    </contour>
    <contour>
      <point x="236" y="602" type="move" name="top"/>
    </contour>
  </outline>
</glyph>
<glyph name="g" format="1">
  <advance width="553"/>
  <unicode hex="0067"/>
  <outline>
    <contour>
      <point x="243" y="-159" type="curve" smooth="yes"/>
      <point x="409" y="-159"/>
      <point x="487" y="-62"/>
      <point x="490" y="108" type="curve" smooth="yes"/>
      <point x="490" y="119"/>
      <point x="488" y="219"/>
      <point x="489" y="232" type="curve"/>
      <point x="491" y="492" type="line" smooth="yes"/>
      <point x="491" y="509"/>
      <point x="495" y="556"/>
      <point x="495" y="571" type="curve" smooth="yes"/>
      <point x="495" y="585"/>
      <point x="486" y="583"/>
      <point x="480" y="583" type="curve" smooth="yes"/>
      <point x="472" y="583"/>
      <point x="433" y="580"/>
      <point x="421" y="580" type="curve" smooth="yes"/>
      <point x="409" y="580"/>
      <point x="342" y="583"/>
      <point x="334" y="583" type="curve" smooth="yes"/>
      <point x="324" y="583"/>
      <point x="325" y="577"/>
      <point x="325" y="564" type="curve" smooth="yes"/>
      <point x="325" y="557" type="line"/>
      <point x="298" y="577"/>
      <point x="259" y="592"/>
      <point x="209" y="592" type="curve" smooth="yes"/>
      <point x="47" y="592"/>
      <point x="32" y="364"/>
      <point x="32" y="313" type="curve" smooth="yes"/>
      <point x="32" y="169"/>
      <point x="91" y="46"/>
      <point x="215" y="46" type="curve" smooth="yes"/>
      <point x="254" y="46"/>
      <point x="297" y="53"/>
      <point x="321" y="67" type="curve"/>
      <point x="321" y="-15"/>
      <point x="293" y="-69"/>
      <point x="207" y="-69" type="curve"/>
      <point x="154" y="-69"/>
      <point x="129" y="-44"/>
      <point x="121" y="-38" type="curve" smooth="yes"/>
      <point x="115" y="-32"/>
      <point x="104" y="-24"/>
      <point x="98" y="-24" type="curve" smooth="yes"/>
      <point x="95" y="-24"/>
      <point x="94" y="-24"/>
      <point x="91" y="-27" type="curve" smooth="yes"/>
      <point x="82" y="-37"/>
      <point x="67" y="-58"/>
      <point x="60" y="-66" type="curve" smooth="yes"/>
      <point x="55" y="-72"/>
      <point x="53" y="-77"/>
      <point x="53" y="-77" type="curve"/>
      <point x="53" y="-77"/>
      <point x="50" y="-79"/>
      <point x="56" y="-85" type="curve" smooth="yes"/>
      <point x="63" y="-92"/>
      <point x="107" y="-159"/>
    </contour>
    <contour>
      <point x="274" y="216" type="curve" smooth="yes"/>
      <point x="242" y="216"/>
      <point x="207" y="229"/>
      <point x="207" y="316" type="curve" smooth="yes"/>
      <point x="207" y="393"/>
      <point x="222" y="419"/>
      <point x="274" y="419" type="curve" smooth="yes"/>
      <point x="300" y="419"/>
      <point x="315" y="402"/>
      <point x="324" y="392" type="curve"/>
      <point x="326" y="359" type="line"/>
      <point x="326" y="346"/>
      <point x="323" y="311"/>
      <point x="323" y="302" type="curve" smooth="yes"/>
      <point x="323" y="238" type="line"/>
      <point x="311" y="224"/>
      <point x="293" y="216"/>
    </contour>
    <contour>
      <point x="295" y="0" type="move" name="bottom"/>
    </contour>
    <contour>
      <point x="285" y="602" type="move" name="top"/>
    </contour>
  </outline>
</glyph>
<glyph name="l" format="1">
  <advance width="228"/>
  <unicode hex="006C"/>
  <outline>
    <contour>
      <point x="163" y="-4" type="curve" smooth="yes"/>
      <point x="186" y="-3"/>
      <point x="204" y="-2"/>
      <point x="223" y="16" type="curve"/>
      <point x="217" y="57" type="line" smooth="yes"/>
      <point x="217" y="59"/>
      <point x="217" y="72"/>
      <point x="206" y="72" type="curve" smooth="yes"/>
      <point x="199" y="72"/>
      <point x="193" y="69"/>
      <point x="175" y="69" type="curve" smooth="yes"/>
      <point x="146" y="69"/>
      <point x="124" y="88"/>
      <point x="124" y="132" type="curve" smooth="yes"/>
      <point x="124" y="152" type="line" smooth="yes"/>
      <point x="124" y="195"/>
      <point x="128" y="255"/>
      <point x="128" y="278" type="curve" smooth="yes"/>
      <point x="128" y="516" type="line"/>
      <point x="127" y="615"/>
      <point x="133" y="674"/>
      <point x="136" y="698" type="curve" smooth="yes"/>
      <point x="137" y="708"/>
      <point x="138" y="715"/>
      <point x="138" y="721" type="curve" smooth="yes"/>
      <point x="138" y="731"/>
      <point x="132" y="736"/>
      <point x="118" y="738" type="curve"/>
      <point x="112" y="741"/>
      <point x="103" y="738"/>
      <point x="100" y="739" type="curve" smooth="yes"/>
      <point x="97" y="740"/>
      <point x="94" y="740"/>
      <point x="92" y="740" type="curve" smooth="yes"/>
      <point x="82" y="740"/>
      <point x="74" y="733"/>
      <point x="75" y="699" type="curve"/>
      <point x="75" y="656" type="line"/>
      <point x="74" y="618" type="line" smooth="yes"/>
      <point x="73" y="598"/>
      <point x="73" y="575"/>
      <point x="73" y="562" type="curve" smooth="yes"/>
      <point x="73" y="368" type="line" smooth="yes"/>
      <point x="73" y="346"/>
      <point x="67" y="229"/>
      <point x="65" y="162" type="curve"/>
      <point x="65" y="58"/>
      <point x="49" y="-7"/>
    </contour>
    <contour>
      <point x="147" y="0" type="move" name="bottom"/>
    </contour>
    <contour>
      <point x="106" y="732" type="move" name="top"/>
    </contour>
  </outline>
</glyph>
<glyph name="o" format="1">
  <advance width="506"/>
  <unicode hex="006F"/>
  <outline>
    <contour>
      <point x="260" y="-22" type="curve" smooth="yes"/>
      <point x="406" y="-22"/>
      <point x="466" y="163"/>
      <point x="466" y="285" type="curve" smooth="yes"/>
      <point x="466" y="408"/>
      <point x="454" y="598"/>
      <point x="254" y="598" type="curve" smooth="yes"/>
      <point x="172" y="598"/>
      <point x="40" y="540"/>
      <point x="40" y="297" type="curve" smooth="yes"/>
      <point x="40" y="206"/>
      <point x="56" y="-22"/>
    </contour>
    <contour>
      <point x="253" y="172" type="curve" smooth="yes"/>
      <point x="201" y="172"/>
      <point x="197" y="229"/>
      <point x="197" y="270" type="curve" smooth="yes"/>
      <point x="197" y="339"/>
      <point x="214" y="382"/>
      <point x="259" y="382" type="curve" smooth="yes"/>
      <point x="295" y="382"/>
      <point x="317" y="357"/>
      <point x="317" y="278" type="curve" smooth="yes"/>
      <point x="317" y="226"/>
      <point x="300" y="172"/>
    </contour>
    <contour>
      <point x="257" y="0" type="move" name="bottom"/>
    </contour>
    <contour>
      <point x="253" y="291" type="move" name="center"/>
    </contour>
    <contour>
      <point x="455" y="0" type="move" name="ogonek"/>
    </contour>
    <contour>
      <point x="261" y="602" type="move" name="top"/>
    </contour>
    <contour>
      <point x="341" y="582" type="move" name="topright"/>
    </contour>
  </outline>
</glyph>
<glyph name="bar" format="1">
  <advance width="206"/>
  <unicode hex="007C"/>
  <outline>
    <contour>
      <point x="119" y="-179" type="curve"/>
      <point x="131" y="-181"/>
      <point x="146" y="-182"/>
      <point x="146" y="-132" type="curve" smooth="yes"/>
      <point x="146" y="-80" type="line"/>
      <point x="148" y="-35" type="line" smooth="yes"/>
      <point x="149" y="-12"/>
      <point x="150" y="17"/>
      <point x="150" y="32" type="curve" smooth="yes"/>
      <point x="150" y="61"/>
      <point x="154" y="235"/>
      <point x="154" y="266" type="curve" smooth="yes"/>
      <point x="154" y="299"/>
      <point x="166" y="516"/>
      <point x="166" y="561" type="curve" smooth="yes"/>
      <point x="166" y="604"/>
      <point x="175" y="646"/>
      <point x="172" y="666" type="curve"/>
      <point x="171" y="687"/>
      <point x="170" y="706"/>
      <point x="149" y="705" type="curve"/>
      <point x="90" y="705" type="line"/>
      <point x="75" y="706"/>
      <point x="60" y="705"/>
      <point x="61" y="681" type="curve" smooth="yes"/>
      <point x="61" y="664"/>
      <point x="63" y="612"/>
      <point x="63" y="577" type="curve" smooth="yes"/>
      <point x="63" y="564"/>
      <point x="63" y="553"/>
      <point x="62" y="547" type="curve" smooth="yes"/>
      <point x="61" y="543"/>
      <point x="61" y="533"/>
      <point x="61" y="519" type="curve" smooth="yes"/>
      <point x="61" y="475"/>
      <point x="64" y="396"/>
      <point x="64" y="374" type="curve" smooth="yes"/>
      <point x="64" y="351"/>
      <point x="66" y="273"/>
      <point x="66" y="185" type="curve" smooth="yes"/>
      <point x="66" y="153"/>
      <point x="66" y="119"/>
      <point x="65" y="86" type="curve"/>
      <point x="64" y="-31"/>
      <point x="56" y="-102"/>
      <point x="53" y="-130" type="curve" smooth="yes"/>
      <point x="52" y="-142"/>
      <point x="50" y="-151"/>
      <point x="50" y="-158" type="curve" smooth="yes"/>
      <point x="50" y="-170"/>
      <point x="54" y="-176"/>
      <point x="71" y="-178" type="curve" smooth="yes"/>
      <point x="86" y="-179"/>
      <point x="102" y="-180"/>
    </contour>
  </outline>
</glyph>
<glyph name="braceright" format="1">
  <advance width="257"/>
  <unicode hex="007D"/>
  <outline>
    <contour>
      <point x="95" y="-81" type="curve" smooth="yes"/>
      <point x="145" y="-81"/>
      <point x="194" y="-15"/>
      <point x="194" y="38" type="curve" smooth="yes"/>
      <point x="194" y="89"/>
      <point x="175" y="144"/>
      <point x="175" y="204" type="curve" smooth="yes"/>
      <point x="175" y="268"/>
      <point x="213" y="284"/>
      <point x="224" y="284" type="curve" smooth="yes"/>
      <point x="237" y="284"/>
      <point x="238" y="289"/>
      <point x="238" y="295" type="curve" smooth="yes"/>
      <point x="238" y="295"/>
      <point x="238" y="296"/>
      <point x="238" y="297" type="curve" smooth="yes"/>
      <point x="238" y="305"/>
      <point x="234" y="314"/>
      <point x="234" y="332" type="curve" smooth="yes"/>
      <point x="234" y="340"/>
      <point x="233" y="344"/>
      <point x="228" y="344" type="curve" smooth="yes"/>
      <point x="218" y="344"/>
      <point x="185" y="361"/>
      <point x="185" y="410" type="curve" smooth="yes"/>
      <point x="185" y="463"/>
      <point x="218" y="478"/>
      <point x="218" y="603" type="curve" smooth="yes"/>
      <point x="218" y="690"/>
      <point x="118" y="733"/>
      <point x="65" y="733" type="curve" smooth="yes"/>
      <point x="53" y="733"/>
      <point x="52" y="729"/>
      <point x="52" y="723" type="curve" smooth="yes"/>
      <point x="52" y="720"/>
      <point x="52" y="717"/>
      <point x="52" y="713" type="curve"/>
      <point x="52" y="673" type="line" smooth="yes"/>
      <point x="52" y="656"/>
      <point x="65" y="656"/>
      <point x="85" y="656" type="curve"/>
      <point x="105" y="653"/>
      <point x="141" y="643"/>
      <point x="141" y="580" type="curve" smooth="yes"/>
      <point x="141" y="519"/>
      <point x="101" y="523"/>
      <point x="101" y="437" type="curve" smooth="yes"/>
      <point x="101" y="394"/>
      <point x="116" y="363"/>
      <point x="131" y="342" type="curve" smooth="yes"/>
      <point x="140" y="330"/>
      <point x="150" y="320"/>
      <point x="161" y="311" type="curve"/>
      <point x="150" y="305"/>
      <point x="140" y="297"/>
      <point x="131" y="287" type="curve" smooth="yes"/>
      <point x="116" y="270"/>
      <point x="101" y="242"/>
      <point x="101" y="201" type="curve" smooth="yes"/>
      <point x="101" y="141"/>
      <point x="115" y="128"/>
      <point x="115" y="55" type="curve" smooth="yes"/>
      <point x="115" y="-18"/>
      <point x="42" y="-12"/>
      <point x="28" y="-12" type="curve" smooth="yes"/>
      <point x="19" y="-12"/>
      <point x="18" y="-16"/>
      <point x="18" y="-23" type="curve" smooth="yes"/>
      <point x="18" y="-25"/>
      <point x="18" y="-26"/>
      <point x="18" y="-28" type="curve" smooth="yes"/>
      <point x="18" y="-39"/>
      <point x="15" y="-55"/>
      <point x="15" y="-62" type="curve" smooth="yes"/>
      <point x="15" y="-73"/>
      <point x="21" y="-78"/>
      <point x="28" y="-78" type="curve" smooth="yes"/>
      <point x="32" y="-78"/>
      <point x="42" y="-81"/>
    </contour>
  </outline>
</glyph>
<glyph name="logicalnot" format="1">
  <advance width="500"/>
  <unicode hex="00AC"/>
  <outline>
    <contour>
      <point x="368" y="96" type="curve" smooth="yes"/>
      <point x="378" y="96"/>
      <point x="391" y="97"/>
      <point x="406" y="99" type="curve"/>
      <point x="449" y="100"/>
      <point x="469" y="106"/>
      <point x="468" y="117" type="curve"/>
      <point x="468" y="160"/>
      <point x="465" y="212"/>
      <point x="465" y="251" type="curve" smooth="yes"/>
      <point x="465" y="262"/>
      <point x="465" y="272"/>
      <point x="466" y="281" type="curve" smooth="yes"/>
      <point x="467" y="300"/>
      <point x="468" y="313"/>
      <point x="468" y="320" type="curve" smooth="yes"/>
      <point x="468" y="374" type="line" smooth="yes"/>
      <point x="468" y="387"/>
      <point x="468" y="397"/>
      <point x="433" y="394" type="curve"/>
      <point x="50" y="394" type="line" smooth="yes"/>
      <point x="33" y="394"/>
      <point x="29" y="386"/>
      <point x="29" y="370" type="curve" smooth="yes"/>
      <point x="29" y="320" type="line" smooth="yes"/>
      <point x="29" y="311"/>
      <point x="28" y="303"/>
      <point x="44" y="303" type="curve"/>
      <point x="58" y="306"/>
      <point x="124" y="307"/>
      <point x="143" y="307" type="curve" smooth="yes"/>
      <point x="259" y="307" type="line" smooth="yes"/>
      <point x="287" y="307"/>
      <point x="313" y="307"/>
      <point x="336" y="306" type="curve"/>
      <point x="338" y="268"/>
      <point x="339" y="231"/>
      <point x="339" y="196" type="curve" smooth="yes"/>
      <point x="339" y="166"/>
      <point x="338" y="137"/>
      <point x="337" y="109" type="curve" smooth="yes"/>
      <point x="337" y="100"/>
      <point x="347" y="96"/>
    </contour>
  </outline>
</glyph>
<glyph name="plusminus" format="1">
  <advance width="500"/>
  <unicode hex="00B1"/>
  <outline>
    <contour>
      <point x="279" y="167" type="curve"/>
      <point x="292" y="171"/>
      <point x="301" y="182"/>
      <point x="301" y="211" type="curve" smooth="yes"/>
      <point x="301" y="257"/>
      <point x="296" y="273"/>
      <point x="296" y="354" type="curve" smooth="yes"/>
      <point x="296" y="364"/>
      <point x="298" y="372"/>
      <point x="309" y="375" type="curve"/>
      <point x="453" y="375" type="line" smooth="yes"/>
      <point x="470" y="375"/>
      <point x="482" y="381"/>
      <point x="482" y="397" type="curve" smooth="yes"/>
      <point x="482" y="448" type="line" smooth="yes"/>
      <point x="482" y="458"/>
      <point x="482" y="476"/>
      <point x="453" y="476" type="curve" smooth="yes"/>
      <point x="421" y="476"/>
      <point x="398" y="476"/>
      <point x="341" y="472" type="curve"/>
      <point x="305" y="473"/>
      <point x="293" y="473"/>
      <point x="293" y="476" type="curve"/>
      <point x="291" y="481"/>
      <point x="291" y="486"/>
      <point x="291" y="490" type="curve" smooth="yes"/>
      <point x="291" y="493"/>
      <point x="291" y="496"/>
      <point x="291" y="499" type="curve" smooth="yes"/>
      <point x="292" y="508"/>
      <point x="292" y="517"/>
      <point x="292" y="527" type="curve" smooth="yes"/>
      <point x="292" y="546"/>
      <point x="291" y="566"/>
      <point x="291" y="585" type="curve" smooth="yes"/>
      <point x="291" y="601"/>
      <point x="288" y="632"/>
      <point x="288" y="643" type="curve" smooth="yes"/>
      <point x="288" y="659"/>
      <point x="292" y="695"/>
      <point x="262" y="692" type="curve"/>
      <point x="230" y="692"/>
      <point x="222" y="692"/>
      <point x="209" y="688" type="curve"/>
      <point x="205" y="679"/>
      <point x="201" y="670"/>
      <point x="201" y="644" type="curve" smooth="yes"/>
      <point x="201" y="634"/>
      <point x="201" y="622"/>
      <point x="203" y="606" type="curve"/>
      <point x="203" y="529" type="line" smooth="yes"/>
      <point x="203" y="499"/>
      <point x="208" y="479"/>
      <point x="187" y="476" type="curve" smooth="yes"/>
      <point x="183" y="475"/>
      <point x="174" y="474"/>
      <point x="164" y="474" type="curve" smooth="yes"/>
      <point x="143" y="474"/>
      <point x="118" y="476"/>
      <point x="111" y="476" type="curve" smooth="yes"/>
      <point x="104" y="477"/>
      <point x="94" y="477"/>
      <point x="85" y="477" type="curve" smooth="yes"/>
      <point x="66" y="477"/>
      <point x="47" y="476"/>
      <point x="43" y="476" type="curve" smooth="yes"/>
      <point x="33" y="476"/>
      <point x="21" y="468"/>
      <point x="21" y="447" type="curve" smooth="yes"/>
      <point x="21" y="445"/>
      <point x="21" y="441"/>
      <point x="22" y="438" type="curve" smooth="yes"/>
      <point x="26" y="415"/>
      <point x="26" y="401"/>
      <point x="30" y="386" type="curve"/>
      <point x="30" y="370"/>
      <point x="31" y="366"/>
      <point x="50" y="366" type="curve" smooth="yes"/>
      <point x="83" y="366"/>
      <point x="115" y="370"/>
      <point x="152" y="370" type="curve"/>
      <point x="162" y="372"/>
      <point x="170" y="373"/>
      <point x="178" y="373" type="curve" smooth="yes"/>
      <point x="194" y="373"/>
      <point x="205" y="368"/>
      <point x="205" y="354" type="curve" smooth="yes"/>
      <point x="205" y="205" type="line" smooth="yes"/>
      <point x="205" y="192"/>
      <point x="204" y="171"/>
      <point x="230" y="171" type="curve" smooth="yes"/>
      <point x="253" y="171"/>
      <point x="270" y="167"/>
    </contour>
    <contour>
      <point x="54" y="6" type="curve"/>
      <point x="69" y="9"/>
      <point x="139" y="10"/>
      <point x="158" y="10" type="curve" smooth="yes"/>
      <point x="263" y="10" type="line" smooth="yes"/>
      <point x="301" y="10"/>
      <point x="327" y="9"/>
      <point x="342" y="8" type="curve" smooth="yes"/>
      <point x="385" y="6" type="line"/>
      <point x="421" y="6" type="line" smooth="yes"/>
      <point x="457" y="6"/>
      <point x="465" y="10"/>
      <point x="465" y="23" type="curve" smooth="yes"/>
      <point x="465" y="77" type="line" smooth="yes"/>
      <point x="465" y="90"/>
      <point x="465" y="100"/>
      <point x="428" y="97" type="curve"/>
      <point x="61" y="97" type="line" smooth="yes"/>
      <point x="44" y="97"/>
      <point x="39" y="89"/>
      <point x="39" y="73" type="curve" smooth="yes"/>
      <point x="39" y="23" type="line" smooth="yes"/>
      <point x="39" y="14"/>
      <point x="38" y="6"/>
    </contour>
  </outline>
</glyph>
<glyph name="threesuperior" format="1">
  <advance width="371"/>
  <unicode hex="00B3"/>
  <outline>
    <contour>
      <point x="154" y="328" type="curve" smooth="yes"/>
      <point x="216" y="328"/>
      <point x="265" y="346"/>
      <point x="275" y="351" type="curve"/>
      <point x="284" y="354"/>
      <point x="331" y="386"/>
      <point x="331" y="447" type="curve" smooth="yes"/>
      <point x="331" y="507"/>
      <point x="274" y="523"/>
      <point x="260" y="523" type="curve"/>
      <point x="247" y="525"/>
      <point x="237" y="527"/>
      <point x="213" y="527" type="curve"/>
      <point x="187" y="527" type="line"/>
      <point x="186" y="527"/>
      <point x="185" y="528"/>
      <point x="185" y="529" type="curve" smooth="yes"/>
      <point x="185" y="531"/>
      <point x="188" y="533"/>
      <point x="194" y="535" type="curve"/>
      <point x="208" y="544" type="line" smooth="yes"/>
      <point x="216" y="549"/>
      <point x="225" y="554"/>
      <point x="229" y="558" type="curve" smooth="yes"/>
      <point x="236" y="563"/>
      <point x="282" y="590"/>
      <point x="297" y="598" type="curve"/>
      <point x="297" y="685" type="line" smooth="yes"/>
      <point x="297" y="700"/>
      <point x="298" y="708"/>
      <point x="289" y="708" type="curve" smooth="yes"/>
      <point x="279" y="708"/>
      <point x="233" y="709"/>
      <point x="198" y="709" type="curve" smooth="yes"/>
      <point x="163" y="709"/>
      <point x="134" y="705"/>
      <point x="106" y="705" type="curve" smooth="yes"/>
      <point x="96" y="705"/>
      <point x="85" y="707"/>
      <point x="76" y="707" type="curve" smooth="yes"/>
      <point x="67" y="707"/>
      <point x="60" y="705"/>
      <point x="60" y="695" type="curve"/>
      <point x="61" y="689"/>
      <point x="61" y="680"/>
      <point x="61" y="671" type="curve" smooth="yes"/>
      <point x="61" y="652"/>
      <point x="60" y="631"/>
      <point x="60" y="624" type="curve" smooth="yes"/>
      <point x="60" y="615"/>
      <point x="58" y="605"/>
      <point x="70" y="605" type="curve" smooth="yes"/>
      <point x="212" y="607" type="line" smooth="yes"/>
      <point x="223" y="607"/>
      <point x="239" y="608"/>
      <point x="239" y="604" type="curve" smooth="yes"/>
      <point x="239" y="603"/>
      <point x="238" y="602"/>
      <point x="236" y="600" type="curve" smooth="yes"/>
      <point x="224" y="592"/>
      <point x="128" y="530"/>
      <point x="120" y="526" type="curve"/>
      <point x="111" y="519"/>
      <point x="106" y="518"/>
      <point x="106" y="514" type="curve" smooth="yes"/>
      <point x="106" y="511"/>
      <point x="106" y="505"/>
      <point x="107" y="498" type="curve" smooth="yes"/>
      <point x="108" y="495"/>
      <point x="110" y="494"/>
      <point x="113" y="495" type="curve"/>
      <point x="114" y="494"/>
      <point x="117" y="494"/>
      <point x="123" y="494" type="curve" smooth="yes"/>
      <point x="143" y="494"/>
      <point x="190" y="498"/>
      <point x="225" y="500" type="curve"/>
      <point x="272" y="500"/>
      <point x="302" y="476"/>
      <point x="302" y="447" type="curve" smooth="yes"/>
      <point x="302" y="395"/>
      <point x="278" y="381"/>
      <point x="270" y="377" type="curve" smooth="yes"/>
      <point x="260" y="372"/>
      <point x="227" y="356"/>
      <point x="186" y="356" type="curve" smooth="yes"/>
      <point x="143" y="356"/>
      <point x="120" y="363"/>
      <point x="104" y="382" type="curve"/>
      <point x="89" y="402"/>
      <point x="82" y="418"/>
      <point x="81" y="423" type="curve"/>
      <point x="79" y="427"/>
      <point x="76" y="431"/>
      <point x="73" y="431" type="curve" smooth="yes"/>
      <point x="72" y="431"/>
      <point x="71" y="431"/>
      <point x="70" y="430" type="curve" smooth="yes"/>
      <point x="54" y="422"/>
      <point x="52" y="420"/>
      <point x="49" y="419" type="curve" smooth="yes"/>
      <point x="46" y="418"/>
      <point x="40" y="417"/>
      <point x="47" y="406" type="curve"/>
      <point x="56" y="395"/>
      <point x="90" y="328"/>
    </contour>
  </outline>
</glyph>
<glyph name="micro" format="1">
  <advance width="497"/>
  <unicode hex="00B5"/>
  <outline>
    <contour>
      <point x="109" y="-246" type="curve" smooth="yes"/>
      <point x="136" y="-244" type="line" smooth="yes"/>
      <point x="160" y="-243"/>
      <point x="172" y="-239"/>
      <point x="171" y="-230" type="curve"/>
      <point x="172" y="-211"/>
      <point x="173" y="-188"/>
      <point x="173" y="-161" type="curve"/>
      <point x="164" y="-64" type="line"/>
      <point x="162" y="-7"/>
      <point x="158" y="38"/>
      <point x="151" y="69" type="curve"/>
      <point x="178" y="25"/>
      <point x="217" y="3"/>
      <point x="267" y="3" type="curve" smooth="yes"/>
      <point x="325" y="3"/>
      <point x="366" y="36"/>
      <point x="394" y="76" type="curve"/>
      <point x="395" y="52"/>
      <point x="401" y="37"/>
      <point x="409" y="24" type="curve" smooth="yes"/>
      <point x="418" y="15"/>
      <point x="427" y="4"/>
      <point x="452" y="4" type="curve" smooth="yes"/>
      <point x="472" y="4"/>
      <point x="482" y="8"/>
      <point x="482" y="15" type="curve" smooth="yes"/>
      <point x="482" y="27"/>
      <point x="483" y="33"/>
      <point x="483" y="42" type="curve" smooth="yes"/>
      <point x="483" y="49"/>
      <point x="486" y="66"/>
      <point x="486" y="73" type="curve" smooth="yes"/>
      <point x="486" y="80"/>
      <point x="480" y="82"/>
      <point x="473" y="82" type="curve" smooth="yes"/>
      <point x="453" y="82"/>
      <point x="447" y="87"/>
      <point x="441" y="96" type="curve" smooth="yes"/>
      <point x="435" y="104"/>
      <point x="433" y="120"/>
      <point x="434" y="145" type="curve" smooth="yes"/>
      <point x="436" y="214" type="line"/>
      <point x="437" y="234"/>
      <point x="437" y="259"/>
      <point x="437" y="287" type="curve"/>
      <point x="437" y="324" type="line" smooth="yes"/>
      <point x="437" y="358"/>
      <point x="437" y="401"/>
      <point x="438" y="453" type="curve"/>
      <point x="443" y="498"/>
      <point x="428" y="495"/>
      <point x="420" y="492" type="curve"/>
      <point x="417" y="491"/>
      <point x="413" y="491"/>
      <point x="409" y="491" type="curve" smooth="yes"/>
      <point x="405" y="491"/>
      <point x="400" y="491"/>
      <point x="393" y="493" type="curve" smooth="yes"/>
      <point x="389" y="494"/>
      <point x="386" y="490"/>
      <point x="386" y="481" type="curve" smooth="yes"/>
      <point x="386" y="478"/>
      <point x="387" y="474"/>
      <point x="387" y="470" type="curve" smooth="yes"/>
      <point x="387" y="428" type="line"/>
      <point x="388" y="414"/>
      <point x="388" y="383"/>
      <point x="388" y="336" type="curve" smooth="yes"/>
      <point x="388" y="204" type="line" smooth="yes"/>
      <point x="388" y="109"/>
      <point x="340" y="86"/>
      <point x="276" y="86" type="curve" smooth="yes"/>
      <point x="197" y="86"/>
      <point x="178" y="138"/>
      <point x="178" y="165" type="curve" smooth="yes"/>
      <point x="178" y="177"/>
      <point x="177" y="217"/>
      <point x="173" y="258" type="curve" smooth="yes"/>
      <point x="171" y="279"/>
      <point x="170" y="314"/>
      <point x="169" y="363" type="curve"/>
      <point x="169" y="396" type="line" smooth="yes"/>
      <point x="169" y="426"/>
      <point x="170" y="446"/>
      <point x="172" y="455" type="curve" smooth="yes"/>
      <point x="183" y="501"/>
      <point x="158" y="494"/>
      <point x="147" y="494" type="curve"/>
      <point x="136" y="493"/>
      <point x="109" y="494"/>
      <point x="91" y="494" type="curve" smooth="yes"/>
      <point x="68" y="494"/>
      <point x="70" y="486"/>
      <point x="69" y="470" type="curve"/>
      <point x="68" y="462"/>
      <point x="68" y="441"/>
      <point x="68" y="408" type="curve" smooth="yes"/>
      <point x="68" y="375"/>
      <point x="66" y="322"/>
      <point x="62" y="247" type="curve"/>
      <point x="63" y="220"/>
      <point x="65" y="170"/>
      <point x="69" y="96" type="curve"/>
      <point x="69" y="51"/>
      <point x="68" y="4"/>
      <point x="67" y="-46" type="curve"/>
      <point x="68" y="-96"/>
      <point x="70" y="-130"/>
      <point x="73" y="-147" type="curve" smooth="yes"/>
      <point x="75" y="-157"/>
      <point x="76" y="-169"/>
      <point x="76" y="-183" type="curve" smooth="yes"/>
      <point x="76" y="-195"/>
      <point x="75" y="-209"/>
      <point x="74" y="-225" type="curve"/>
      <point x="77" y="-240"/>
      <point x="88" y="-247"/>
    </contour>
  </outline>
</glyph>
<glyph name="Ldot" format="1">
  <advance width="524"/>
  <unicode hex="013F"/>
  <outline>
    <contour>
      <point x="385" y="306" type="curve" smooth="yes"/>
      <point x="422" y="306"/>
      <point x="461" y="332"/>
      <point x="461" y="365" type="curve" smooth="yes"/>
      <point x="461" y="397"/>
      <point x="455" y="454"/>
      <point x="385" y="454" type="curve" smooth="yes"/>
      <point x="352" y="454"/>
      <point x="313" y="445"/>
      <point x="313" y="386" type="curve" smooth="yes"/>
      <point x="313" y="331"/>
      <point x="349" y="306"/>
    </contour>
    <component base="L"/>
  </outline>
</glyph>
<glyph name="tbar" format="1">
  <advance width="278"/>
  <unicode hex="0167"/>
  <outline>
    <contour>
      <point x="31.878" y="305.435" type="curve" smooth="yes"/>
      <point x="41.651" y="305.435"/>
      <point x="67" y="306"/>
      <point x="100" y="306" type="curve" smooth="yes"/>
      <point x="135" y="306"/>
      <point x="211" y="311"/>
      <point x="218" y="311" type="curve" smooth="yes"/>
      <point x="223" y="311"/>
      <point x="228" y="310"/>
      <point x="232" y="310" type="curve" smooth="yes"/>
      <point x="238" y="310"/>
      <point x="241" y="312"/>
      <point x="241" y="317" type="curve" smooth="yes"/>
      <point x="241" y="358" type="line" smooth="yes"/>
      <point x="241" y="364"/>
      <point x="245" y="373"/>
      <point x="233" y="373" type="curve"/>
      <point x="114" y="373" type="line"/>
      <point x="35.432" y="370.294" type="line"/>
      <point x="30.101" y="371.183"/>
      <point x="25.658" y="372.071"/>
      <point x="22.104" y="372.071" type="curve" smooth="yes"/>
      <point x="15.885" y="372.071"/>
      <point x="12.331" y="370.294"/>
      <point x="12.331" y="366.74" type="curve"/>
      <point x="9.665" y="360.521"/>
      <point x="15.885" y="330.312"/>
      <point x="15.885" y="319.65" type="curve" smooth="yes"/>
      <point x="15.885" y="309.877"/>
      <point x="11.442" y="305.435"/>
    </contour>
    <component base="t"/>
  </outline>
</glyph>
<glyph name="Schwa" format="1">
  <advance width="541"/>
  <unicode hex="018F"/>
  <outline>
    <contour>
      <point x="251" y="-32" type="curve" smooth="yes"/>
      <point x="338" y="-32"/>
      <point x="377" y="0"/>
      <point x="410" y="45" type="curve" smooth="yes"/>
      <point x="427" y="68"/>
      <point x="442" y="93"/>
      <point x="453" y="120" type="curve" smooth="yes"/>
      <point x="464" y="148"/>
      <point x="473" y="180"/>
      <point x="480" y="216" type="curve" smooth="yes"/>
      <point x="487" y="252"/>
      <point x="491" y="282"/>
      <point x="494" y="305" type="curve" smooth="yes"/>
      <point x="497" y="328"/>
      <point x="498" y="347"/>
      <point x="498" y="360" type="curve" smooth="yes"/>
      <point x="498" y="399"/>
      <point x="496" y="419"/>
      <point x="491" y="460" type="curve" smooth="yes"/>
      <point x="486" y="503"/>
      <point x="476" y="546"/>
      <point x="460" y="581" type="curve"/>
      <point x="443" y="605"/>
      <point x="423" y="637"/>
      <point x="392" y="666" type="curve" smooth="yes"/>
      <point x="363" y="695"/>
      <point x="298" y="717"/>
      <point x="245" y="717" type="curve" smooth="yes"/>
      <point x="157" y="717"/>
      <point x="77" y="697"/>
      <point x="46" y="669" type="curve" smooth="yes"/>
      <point x="39" y="663"/>
      <point x="35" y="654"/>
      <point x="35" y="642" type="curve" smooth="yes"/>
      <point x="35" y="631"/>
      <point x="39" y="617"/>
      <point x="46" y="600" type="curve" smooth="yes"/>
      <point x="61" y="567"/>
      <point x="74" y="555"/>
      <point x="85" y="564" type="curve" smooth="yes"/>
      <point x="96" y="573"/>
      <point x="113" y="581"/>
      <point x="137" y="587" type="curve" smooth="yes"/>
      <point x="161" y="594"/>
      <point x="191" y="597"/>
      <point x="228" y="597" type="curve" smooth="yes"/>
      <point x="266" y="597"/>
      <point x="294" y="590"/>
      <point x="311" y="576" type="curve" smooth="yes"/>
      <point x="328" y="563"/>
      <point x="343" y="549"/>
      <point x="354" y="536" type="curve" smooth="yes"/>
      <point x="377" y="511"/>
      <point x="387" y="483"/>
      <point x="390" y="443" type="curve"/>
      <point x="393" y="424"/>
      <point x="394" y="401"/>
      <point x="393" y="374" type="curve"/>
      <point x="367" y="376"/>
      <point x="326" y="378"/>
      <point x="267" y="378" type="curve" smooth="yes"/>
      <point x="255" y="378"/>
      <point x="241" y="378"/>
      <point x="227" y="378" type="curve" smooth="yes"/>
      <point x="102" y="379"/>
      <point x="39" y="371"/>
      <point x="40" y="354" type="curve"/>
      <point x="40" y="230"/>
      <point x="49" y="142"/>
      <point x="66" y="90" type="curve" smooth="yes"/>
      <point x="83" y="39"/>
      <point x="109" y="6"/>
      <point x="143" y="-9" type="curve" smooth="yes"/>
      <point x="177" y="-24"/>
      <point x="213" y="-32"/>
    </contour>
    <contour>
      <point x="243" y="64" type="curve"/>
      <point x="222" y="64"/>
      <point x="197" y="72"/>
      <point x="173" y="100" type="curve" smooth="yes"/>
      <point x="162" y="114"/>
      <point x="153" y="138"/>
      <point x="147" y="172" type="curve" smooth="yes"/>
      <point x="141" y="206"/>
      <point x="138" y="236"/>
      <point x="138" y="261" type="curve"/>
      <point x="187" y="265"/>
      <point x="237" y="267"/>
      <point x="290" y="267" type="curve" smooth="yes"/>
      <point x="323" y="267"/>
      <point x="357" y="267"/>
      <point x="392" y="265" type="curve"/>
      <point x="392" y="257"/>
      <point x="393" y="247"/>
      <point x="393" y="235" type="curve" smooth="yes"/>
      <point x="393" y="214"/>
      <point x="390" y="186"/>
      <point x="375" y="150" type="curve"/>
      <point x="350" y="95"/>
      <point x="340" y="69"/>
    </contour>
  </outline>
</glyph>
<glyph name="LJ" format="1">
  <advance width="1015"/>
  <unicode hex="01C7"/>
  <outline>
    <contour>
      <point x="90" y="-8" type="curve" smooth="yes"/>
      <point x="107" y="-8"/>
      <point x="309" y="1"/>
      <point x="343" y="1" type="curve" smooth="yes"/>
      <point x="378" y="1"/>
      <point x="478" y="-8"/>
      <point x="495" y="-8" type="curve" smooth="yes"/>
      <point x="511" y="-8"/>
      <point x="524" y="-11"/>
      <point x="524" y="2" type="curve" smooth="yes"/>
      <point x="524" y="14"/>
      <point x="521" y="30"/>
      <point x="522" y="37" type="curve" smooth="yes"/>
      <point x="522" y="44"/>
      <point x="526" y="50"/>
      <point x="515" y="50" type="curve" smooth="yes"/>
      <point x="515" y="50"/>
      <point x="514" y="50"/>
      <point x="513" y="50" type="curve"/>
      <point x="394" y="51" type="line"/>
      <point x="251" y="56" type="line"/>
      <point x="249" y="91" type="line" smooth="yes"/>
      <point x="249" y="101"/>
      <point x="248" y="110"/>
      <point x="248" y="119" type="curve" smooth="yes"/>
      <point x="248" y="127"/>
      <point x="249" y="135"/>
      <point x="249" y="139" type="curve" smooth="yes"/>
      <point x="249" y="156"/>
      <point x="251" y="230"/>
      <point x="251" y="248" type="curve" smooth="yes"/>
      <point x="251" y="267"/>
      <point x="248" y="429"/>
      <point x="248" y="473" type="curve" smooth="yes"/>
      <point x="248" y="517"/>
      <point x="254" y="633"/>
      <point x="254" y="650" type="curve" smooth="yes"/>
      <point x="254" y="674"/>
      <point x="270" y="701"/>
      <point x="230" y="696" type="curve" smooth="yes"/>
      <point x="214" y="694"/>
      <point x="197" y="693"/>
      <point x="179" y="693" type="curve" smooth="yes"/>
      <point x="152" y="693"/>
      <point x="126" y="695"/>
      <point x="112" y="697" type="curve"/>
      <point x="99" y="697"/>
      <point x="86" y="703"/>
      <point x="76" y="703" type="curve" smooth="yes"/>
      <point x="68" y="703"/>
      <point x="63" y="699"/>
      <point x="63" y="686" type="curve" smooth="yes"/>
      <point x="63" y="658"/>
      <point x="72" y="457"/>
      <point x="72" y="425" type="curve" smooth="yes"/>
      <point x="72" y="393"/>
      <point x="68" y="126"/>
      <point x="68" y="90" type="curve" smooth="yes"/>
      <point x="68" y="49"/>
      <point x="68" y="20"/>
      <point x="68" y="12" type="curve" smooth="yes"/>
      <point x="68" y="2"/>
      <point x="73" y="-8"/>
    </contour>
    <contour>
      <point x="768" y="-7" type="curve" smooth="yes"/>
      <point x="991" y="-7"/>
      <point x="953" y="331"/>
      <point x="957" y="374" type="curve"/>
      <point x="959" y="680" type="line"/>
      <point x="960" y="707"/>
      <point x="958" y="712"/>
      <point x="935" y="713" type="curve"/>
      <point x="930" y="714"/>
      <point x="924" y="714"/>
      <point x="919" y="714" type="curve" smooth="yes"/>
      <point x="902" y="714"/>
      <point x="888" y="711"/>
      <point x="876" y="710" type="curve"/>
      <point x="863" y="710"/>
      <point x="848" y="709"/>
      <point x="851" y="672" type="curve"/>
      <point x="851" y="649"/>
      <point x="850" y="611"/>
      <point x="850" y="575" type="curve" smooth="yes"/>
      <point x="850" y="549"/>
      <point x="851" y="524"/>
      <point x="852" y="509" type="curve"/>
      <point x="852" y="474"/>
      <point x="849" y="278"/>
      <point x="849" y="233" type="curve" smooth="yes"/>
      <point x="849" y="188"/>
      <point x="823" y="103"/>
      <point x="736" y="103" type="curve" smooth="yes"/>
      <point x="672" y="103"/>
      <point x="622" y="142"/>
      <point x="622" y="345" type="curve" smooth="yes"/>
      <point x="622" y="366"/>
      <point x="637" y="403"/>
      <point x="608" y="400" type="curve" smooth="yes"/>
      <point x="579" y="396"/>
      <point x="558" y="393"/>
      <point x="546" y="393" type="curve"/>
      <point x="535" y="394"/>
      <point x="531" y="395"/>
      <point x="531" y="376" type="curve" smooth="yes"/>
      <point x="531" y="357"/>
      <point x="529" y="287"/>
      <point x="529" y="247" type="curve" smooth="yes"/>
      <point x="529" y="205"/>
      <point x="547" y="-7"/>
    </contour>
  </outline>
</glyph>
<glyph name="oogonek" format="1">
  <advance width="506"/>
  <unicode hex="01EB"/>
  <outline>
    <contour>
      <point x="330" y="-171" type="curve"/>
      <point x="366" y="-169"/>
      <point x="438" y="-126"/>
      <point x="438" y="-99" type="curve" smooth="yes"/>
      <point x="438" y="-89"/>
      <point x="426" y="-74"/>
      <point x="418" y="-74" type="curve" smooth="yes"/>
      <point x="409" y="-74"/>
      <point x="398" y="-99"/>
      <point x="347" y="-99" type="curve" smooth="yes"/>
      <point x="333" y="-99"/>
      <point x="319" y="-86"/>
      <point x="319" y="-61" type="curve" smooth="yes"/>
      <point x="319" y="-35"/>
      <point x="340" y="-7"/>
      <point x="374" y="26" type="curve"/>
      <point x="311" y="38" type="line"/>
      <point x="283" y="6"/>
      <point x="264" y="-23"/>
      <point x="257" y="-45" type="curve" smooth="yes"/>
      <point x="251" y="-63"/>
      <point x="248" y="-78"/>
      <point x="248" y="-91" type="curve" smooth="yes"/>
      <point x="248" y="-158"/>
      <point x="281" y="-172"/>
    </contour>
    <component base="o"/>
  </outline>
</glyph>
<glyph name="doubleprimemod" format="1">
  <advance width="254"/>
  <unicode hex="02BA"/>
  <outline>
    <contour>
      <point x="177" y="451" type="curve" smooth="yes"/>
      <point x="204" y="451"/>
      <point x="216" y="459"/>
      <point x="219" y="477" type="curve" smooth="yes"/>
      <point x="227" y="524"/>
      <point x="231" y="569"/>
      <point x="235" y="608" type="curve" smooth="yes"/>
      <point x="241" y="665"/>
      <point x="254" y="709"/>
      <point x="254" y="724" type="curve" smooth="yes"/>
      <point x="254" y="739"/>
      <point x="251" y="744"/>
      <point x="233" y="744" type="curve" smooth="yes"/>
      <point x="221" y="744"/>
      <point x="202" y="746"/>
      <point x="190" y="746" type="curve" smooth="yes"/>
      <point x="163" y="746"/>
      <point x="160" y="738"/>
      <point x="159" y="721" type="curve" smooth="yes"/>
      <point x="156" y="672"/>
      <point x="153" y="624"/>
      <point x="150" y="575" type="curve" smooth="yes"/>
      <point x="148" y="543"/>
      <point x="142" y="510"/>
      <point x="139" y="478" type="curve" smooth="yes"/>
      <point x="137" y="457"/>
      <point x="147" y="451"/>
    </contour>
    <contour>
      <point x="36" y="451" type="curve" smooth="yes"/>
      <point x="64" y="451"/>
      <point x="72" y="459"/>
      <point x="75" y="477" type="curve" smooth="yes"/>
      <point x="83" y="524"/>
      <point x="93" y="569"/>
      <point x="98" y="608" type="curve" smooth="yes"/>
      <point x="105" y="665"/>
      <point x="115" y="709"/>
      <point x="115" y="724" type="curve" smooth="yes"/>
      <point x="115" y="739"/>
      <point x="112" y="744"/>
      <point x="94" y="744" type="curve" smooth="yes"/>
      <point x="82" y="744"/>
      <point x="63" y="742"/>
      <point x="51" y="742" type="curve" smooth="yes"/>
      <point x="24" y="742"/>
      <point x="21" y="738"/>
      <point x="20" y="721" type="curve" smooth="yes"/>
      <point x="17" y="672"/>
      <point x="13" y="638"/>
      <point x="10" y="589" type="curve" smooth="yes"/>
      <point x="8" y="557"/>
      <point x="3" y="510"/>
      <point x="0" y="478" type="curve" smooth="yes"/>
      <point x="-2" y="457"/>
      <point x="6" y="451"/>
    </contour>
  </outline>
</glyph>
<glyph name="circumflex" format="1">
  <advance width="360"/>
  <unicode hex="02C6"/>
  <outline>
    <contour>
      <point x="314" y="606" type="curve" smooth="yes"/>
      <point x="322" y="606"/>
      <point x="327" y="610"/>
      <point x="330" y="621" type="curve" smooth="yes"/>
      <point x="334" y="634"/>
      <point x="304" y="650"/>
      <point x="296" y="655" type="curve" smooth="yes"/>
      <point x="269" y="672"/>
      <point x="256" y="679"/>
      <point x="229" y="698" type="curve"/>
      <point x="212" y="707"/>
      <point x="206" y="713"/>
      <point x="191" y="713" type="curve" smooth="yes"/>
      <point x="187" y="713"/>
      <point x="184" y="713"/>
      <point x="180" y="712" type="curve"/>
      <point x="175" y="712"/>
      <point x="169" y="711"/>
      <point x="162" y="708" type="curve"/>
      <point x="151" y="705"/>
      <point x="133" y="695"/>
      <point x="110" y="682" type="curve"/>
      <point x="80" y="659"/>
      <point x="72" y="658"/>
      <point x="62" y="653" type="curve"/>
      <point x="35" y="636" type="line" smooth="yes"/>
      <point x="30" y="633"/>
      <point x="28" y="628"/>
      <point x="28" y="624" type="curve" smooth="yes"/>
      <point x="28" y="616"/>
      <point x="36" y="608"/>
      <point x="52" y="608" type="curve" smooth="yes"/>
      <point x="65" y="608"/>
      <point x="77" y="609"/>
      <point x="90" y="611" type="curve"/>
      <point x="118" y="619"/>
      <point x="132" y="624"/>
      <point x="147" y="632" type="curve"/>
      <point x="193" y="653" type="line"/>
      <point x="225" y="638" type="line"/>
      <point x="236" y="631"/>
      <point x="247" y="625"/>
      <point x="260" y="620" type="curve"/>
      <point x="287" y="613" type="line"/>
      <point x="298" y="609"/>
      <point x="307" y="606"/>
    </contour>
  </outline>
</glyph>
<glyph name="breve" format="1">
  <advance width="358"/>
  <unicode hex="02D8"/>
  <outline>
    <contour>
      <point x="172" y="609" type="curve"/>
      <point x="219" y="609"/>
      <point x="251" y="613"/>
      <point x="268" y="622" type="curve" smooth="yes"/>
      <point x="285" y="631"/>
      <point x="298" y="639"/>
      <point x="307" y="646" type="curve" smooth="yes"/>
      <point x="327" y="661"/>
      <point x="328" y="695"/>
      <point x="328" y="703" type="curve" smooth="yes"/>
      <point x="328" y="706"/>
      <point x="317" y="708"/>
      <point x="295" y="709" type="curve"/>
      <point x="279" y="708"/>
      <point x="270" y="705"/>
      <point x="268" y="702" type="curve"/>
      <point x="267" y="689"/>
      <point x="255" y="679"/>
      <point x="231" y="672" type="curve" smooth="yes"/>
      <point x="208" y="665"/>
      <point x="187" y="663"/>
      <point x="170" y="663" type="curve"/>
      <point x="134" y="665"/>
      <point x="112" y="668"/>
      <point x="104" y="673" type="curve" smooth="yes"/>
      <point x="97" y="678"/>
      <point x="91" y="687"/>
      <point x="88" y="700" type="curve"/>
      <point x="88" y="709"/>
      <point x="88" y="710"/>
      <point x="59" y="710" type="curve" smooth="yes"/>
      <point x="31" y="710"/>
      <point x="30" y="710"/>
      <point x="30" y="707" type="curve" smooth="yes"/>
      <point x="30" y="690"/>
      <point x="36" y="672"/>
      <point x="45" y="651" type="curve" smooth="yes"/>
      <point x="50" y="640"/>
      <point x="59" y="631"/>
      <point x="72" y="624" type="curve" smooth="yes"/>
      <point x="85" y="617"/>
      <point x="119" y="612"/>
    </contour>
  </outline>
</glyph>
<glyph name="ogonek" format="1">
  <advance width="222"/>
  <unicode hex="02DB"/>
  <outline>
    <contour>
      <point x="112" y="-171" type="curve"/>
      <point x="148" y="-169"/>
      <point x="200" y="-146"/>
      <point x="200" y="-119" type="curve" smooth="yes"/>
      <point x="200" y="-112"/>
      <point x="185" y="-94"/>
      <point x="180" y="-94" type="curve" smooth="yes"/>
      <point x="171" y="-94"/>
      <point x="170" y="-107"/>
      <point x="129" y="-107" type="curve" smooth="yes"/>
      <point x="115" y="-107"/>
      <point x="101" y="-85"/>
      <point x="101" y="-76" type="curve" smooth="yes"/>
      <point x="101" y="-53"/>
      <point x="127" y="-34"/>
      <point x="181" y="0" type="curve"/>
      <point x="160" y="24" type="line"/>
      <point x="131" y="7"/>
      <point x="87" y="-10"/>
      <point x="69" y="-30" type="curve" smooth="yes"/>
      <point x="48" y="-53"/>
      <point x="31" y="-73"/>
      <point x="32" y="-101" type="curve" smooth="yes"/>
      <point x="33" y="-130"/>
      <point x="40" y="-151"/>
      <point x="55" y="-158" type="curve" smooth="yes"/>
      <point x="68" y="-164"/>
      <point x="88" y="-171"/>
    </contour>
  </outline>
</glyph>
<glyph name="hungarumlaut" format="1">
  <advance width="442"/>
  <unicode hex="02DD"/>
  <outline>
    <contour>
      <point x="257" y="607" type="curve" smooth="yes"/>
      <point x="266" y="607"/>
      <point x="275" y="611"/>
      <point x="289" y="616" type="curve"/>
      <point x="323" y="632"/>
      <point x="340" y="637"/>
      <point x="374" y="649" type="curve" smooth="yes"/>
      <point x="385" y="653"/>
      <point x="418" y="666"/>
      <point x="423" y="683" type="curve"/>
      <point x="427" y="705"/>
      <point x="420" y="711"/>
      <point x="406" y="711" type="curve" smooth="yes"/>
      <point x="401" y="711"/>
      <point x="394" y="710"/>
      <point x="386" y="709" type="curve" smooth="yes"/>
      <point x="378" y="708"/>
      <point x="363" y="706"/>
      <point x="351" y="702" type="curve"/>
      <point x="329" y="694" type="line"/>
      <point x="288" y="676"/>
      <point x="282" y="679"/>
      <point x="268" y="671" type="curve"/>
      <point x="258" y="668"/>
      <point x="220" y="653"/>
      <point x="218" y="646" type="curve" smooth="yes"/>
      <point x="217" y="642"/>
      <point x="216" y="639"/>
      <point x="216" y="636" type="curve" smooth="yes"/>
      <point x="216" y="624"/>
      <point x="227" y="617"/>
      <point x="236" y="614" type="curve"/>
      <point x="244" y="609"/>
      <point x="250" y="607"/>
    </contour>
    <contour>
      <point x="59" y="607" type="curve" smooth="yes"/>
      <point x="68" y="607"/>
      <point x="77" y="611"/>
      <point x="91" y="616" type="curve"/>
      <point x="126" y="631"/>
      <point x="142" y="637"/>
      <point x="176" y="649" type="curve" smooth="yes"/>
      <point x="187" y="653"/>
      <point x="220" y="666"/>
      <point x="225" y="683" type="curve"/>
      <point x="229" y="705"/>
      <point x="222" y="711"/>
      <point x="208" y="711" type="curve" smooth="yes"/>
      <point x="203" y="711"/>
      <point x="196" y="710"/>
      <point x="188" y="709" type="curve" smooth="yes"/>
      <point x="180" y="708"/>
      <point x="165" y="706"/>
      <point x="153" y="702" type="curve"/>
      <point x="131" y="694" type="line"/>
      <point x="90" y="676"/>
      <point x="84" y="679"/>
      <point x="70" y="671" type="curve"/>
      <point x="60" y="668"/>
      <point x="22" y="653"/>
      <point x="20" y="646" type="curve" smooth="yes"/>
      <point x="19" y="642"/>
      <point x="18" y="639"/>
      <point x="18" y="636" type="curve" smooth="yes"/>
      <point x="18" y="624"/>
      <point x="29" y="617"/>
      <point x="38" y="614" type="curve"/>
      <point x="46" y="609"/>
      <point x="52" y="607"/>
    </contour>
  </outline>
</glyph>
<glyph name="acutecomb" format="1">
  <advance width="208"/>
  <unicode hex="0301"/>
  <outline>
    <component base="acute" xOffset="-17"/>
    <contour>
      <point x="104" y="582" type="move" name="_top"/>
    </contour>
    <contour>
      <point x="104" y="711" type="move" name="top"/>
    </contour>
  </outline>
</glyph>
<glyph name="macroncomb" format="1">
  <advance width="297"/>
  <unicode hex="0304"/>
  <outline>
    <component base="macron" xOffset="-30"/>
    <contour>
      <point x="149" y="582" type="move" name="_top"/>
    </contour>
    <contour>
      <point x="149" y="689" type="move" name="top"/>
    </contour>
  </outline>
</glyph>
<glyph name="dotaccentcomb" format="1">
  <advance width="127"/>
  <unicode hex="0307"/>
  <outline>
    <contour>
      <point x="61" y="604" type="curve" smooth="yes"/>
      <point x="85" y="604"/>
      <point x="122" y="624"/>
      <point x="122" y="665" type="curve" smooth="yes"/>
      <point x="122" y="697"/>
      <point x="88" y="714"/>
      <point x="57" y="714" type="curve" smooth="yes"/>
      <point x="28" y="714"/>
      <point x="5" y="687"/>
      <point x="5" y="660" type="curve" smooth="yes"/>
      <point x="5" y="626"/>
      <point x="35" y="604"/>
    </contour>
    <contour>
      <point x="63" y="582" type="move" name="_top"/>
    </contour>
    <contour>
      <point x="63" y="722" type="move" name="top"/>
    </contour>
  </outline>
</glyph>
<glyph name="dieresiscomb" format="1">
  <advance width="346"/>
  <unicode hex="0308"/>
  <outline>
    <contour>
      <point x="283" y="603" type="curve" smooth="yes"/>
      <point x="326" y="603"/>
      <point x="346" y="630"/>
      <point x="346" y="657" type="curve" smooth="yes"/>
      <point x="346" y="688"/>
      <point x="330" y="719"/>
      <point x="303" y="719" type="curve" smooth="yes"/>
      <point x="276" y="719"/>
      <point x="229" y="712"/>
      <point x="229" y="657" type="curve" smooth="yes"/>
      <point x="229" y="633"/>
      <point x="240" y="603"/>
    </contour>
    <contour>
      <point x="58" y="599" type="curve" smooth="yes"/>
      <point x="82" y="599"/>
      <point x="120" y="621"/>
      <point x="120" y="661" type="curve" smooth="yes"/>
      <point x="120" y="696"/>
      <point x="85" y="712"/>
      <point x="54" y="712" type="curve" smooth="yes"/>
      <point x="23" y="712"/>
      <point x="0" y="684"/>
      <point x="0" y="657" type="curve" smooth="yes"/>
      <point x="0" y="621"/>
      <point x="31" y="599"/>
    </contour>
    <contour>
      <point x="173" y="582" type="move" name="_top"/>
    </contour>
    <contour>
      <point x="173" y="712" type="move" name="top"/>
    </contour>
  </outline>
</glyph>
<glyph name="hungarumlautcomb" format="1">
  <advance width="406"/>
  <unicode hex="030B"/>
  <outline>
    <component base="hungarumlaut" xOffset="-18"/>
    <contour>
      <point x="183" y="582" type="move" name="_top"/>
    </contour>
    <contour>
      <point x="183" y="711" type="move" name="top"/>
    </contour>
  </outline>
</glyph>
<glyph name="breveinvertedcomb" format="1">
  <advance width="258"/>
  <unicode hex="0311"/>
  <outline>
    <contour>
      <point x="229" y="602" type="curve" smooth="yes"/>
      <point x="253" y="602"/>
      <point x="258" y="605"/>
      <point x="258" y="614" type="curve" smooth="yes"/>
      <point x="258" y="631"/>
      <point x="257" y="646"/>
      <point x="243" y="671" type="curve" smooth="yes"/>
      <point x="220" y="713"/>
      <point x="181" y="724"/>
      <point x="131" y="724" type="curve" smooth="yes"/>
      <point x="90" y="724"/>
      <point x="56" y="721"/>
      <point x="21" y="676" type="curve" smooth="yes"/>
      <point x="7" y="658"/>
      <point x="0" y="627"/>
      <point x="0" y="615" type="curve" smooth="yes"/>
      <point x="0" y="606"/>
      <point x="8" y="605"/>
      <point x="40" y="603" type="curve" smooth="yes"/>
      <point x="56" y="602"/>
      <point x="59" y="606"/>
      <point x="64" y="620" type="curve" smooth="yes"/>
      <point x="71" y="640"/>
      <point x="96" y="664"/>
      <point x="125" y="664" type="curve" smooth="yes"/>
      <point x="157" y="664"/>
      <point x="192" y="650"/>
      <point x="200" y="612" type="curve" smooth="yes"/>
      <point x="202" y="603"/>
      <point x="203" y="602"/>
    </contour>
    <contour>
      <point x="129" y="582" type="move" name="_top"/>
    </contour>
    <contour>
      <point x="129" y="724" type="move" name="top"/>
    </contour>
  </outline>
</glyph>
<glyph name="horncomb" format="1">
  <advance width="189"/>
  <unicode hex="031B"/>
  <outline>
    <contour>
      <point x="0" y="538" type="line"/>
      <point x="30" y="538" type="line" smooth="yes"/>
      <point x="46" y="538"/>
      <point x="61" y="544"/>
      <point x="79" y="544" type="curve" smooth="yes"/>
      <point x="112" y="544"/>
      <point x="139" y="558"/>
      <point x="153" y="576" type="curve" smooth="yes"/>
      <point x="176" y="605"/>
      <point x="189" y="648"/>
      <point x="189" y="704" type="curve" smooth="yes"/>
      <point x="189" y="715"/>
      <point x="185" y="717"/>
      <point x="180" y="718" type="curve" smooth="yes"/>
      <point x="174" y="719"/>
      <point x="160" y="718"/>
      <point x="142" y="718" type="curve" smooth="yes"/>
      <point x="136" y="718"/>
      <point x="119" y="716"/>
      <point x="119" y="696" type="curve" smooth="yes"/>
      <point x="119" y="666"/>
      <point x="111" y="638"/>
      <point x="101" y="619" type="curve" smooth="yes"/>
      <point x="88" y="594"/>
      <point x="61" y="582"/>
      <point x="27" y="582" type="curve" smooth="yes"/>
      <point x="0" y="582" type="line"/>
    </contour>
    <contour>
      <point x="0" y="582" type="move" name="_topright"/>
    </contour>
    <contour>
      <point x="0" y="710" type="move" name="topright"/>
    </contour>
  </outline>
</glyph>
<glyph name="dieresisbelowcomb" format="1">
  <advance width="346"/>
  <unicode hex="0324"/>
  <outline>
    <contour>
      <point x="67" y="-106" type="curve" smooth="yes"/>
      <point x="41" y="-106"/>
      <point x="1" y="-128"/>
      <point x="1" y="-172" type="curve" smooth="yes"/>
      <point x="1" y="-207"/>
      <point x="38" y="-226"/>
      <point x="71" y="-226" type="curve" smooth="yes"/>
      <point x="103" y="-226"/>
      <point x="128" y="-196"/>
      <point x="128" y="-167" type="curve" smooth="yes"/>
      <point x="128" y="-130"/>
      <point x="95" y="-106"/>
    </contour>
    <contour>
      <point x="221" y="-164" type="curve" smooth="yes"/>
      <point x="221" y="-190"/>
      <point x="243" y="-230"/>
      <point x="289" y="-230" type="curve" smooth="yes"/>
      <point x="325" y="-230"/>
      <point x="346" y="-193"/>
      <point x="346" y="-160" type="curve" smooth="yes"/>
      <point x="346" y="-128"/>
      <point x="314" y="-103"/>
      <point x="284" y="-103" type="curve" smooth="yes"/>
      <point x="245" y="-103"/>
      <point x="221" y="-136"/>
    </contour>
    <contour>
      <point x="173" y="0" type="move" name="_bottom"/>
    </contour>
    <contour>
      <point x="173" y="-220" type="move" name="bottom"/>
    </contour>
  </outline>
</glyph>
<glyph name="commaaccentcomb" format="1">
  <advance width="124"/>
  <unicode hex="0326"/>
  <outline>
    <contour>
      <point x="38" y="-212" type="curve" smooth="yes"/>
      <point x="55" y="-212"/>
      <point x="65" y="-212"/>
      <point x="68" y="-211" type="curve" smooth="yes"/>
      <point x="72" y="-208"/>
      <point x="75" y="-201"/>
      <point x="76" y="-198" type="curve" smooth="yes"/>
      <point x="76" y="-195"/>
      <point x="78" y="-187"/>
      <point x="81" y="-176" type="curve" smooth="yes"/>
      <point x="83" y="-171"/>
      <point x="88" y="-157"/>
      <point x="95" y="-134" type="curve" smooth="yes"/>
      <point x="107" y="-96" type="line" smooth="yes"/>
      <point x="111" y="-83"/>
      <point x="116" y="-73"/>
      <point x="117" y="-66" type="curve"/>
      <point x="120" y="-61"/>
      <point x="121" y="-57"/>
      <point x="122" y="-49" type="curve"/>
      <point x="126" y="-42"/>
      <point x="122" y="-41"/>
      <point x="117" y="-41" type="curve"/>
      <point x="61" y="-41" type="line" smooth="yes"/>
      <point x="54" y="-41"/>
      <point x="47" y="-44"/>
      <point x="46" y="-51" type="curve"/>
      <point x="39" y="-71" type="line"/>
      <point x="31" y="-103" type="line"/>
      <point x="0" y="-201" type="line"/>
      <point x="0" y="-206"/>
      <point x="-2" y="-211"/>
      <point x="6" y="-211" type="curve"/>
      <point x="11" y="-212"/>
      <point x="22" y="-212"/>
    </contour>
    <contour>
      <point x="82" y="0" type="move" name="_bottom"/>
    </contour>
    <contour>
      <point x="76" y="-220" type="move" name="bottom"/>
    </contour>
  </outline>
</glyph>
<glyph name="brevebelowcomb" format="1">
  <advance width="258"/>
  <unicode hex="032E"/>
  <outline>
    <contour>
      <point x="127" y="-223" type="curve" smooth="yes"/>
      <point x="168" y="-223"/>
      <point x="203" y="-221"/>
      <point x="237" y="-175" type="curve" smooth="yes"/>
      <point x="251" y="-157"/>
      <point x="258" y="-126"/>
      <point x="258" y="-114" type="curve" smooth="yes"/>
      <point x="258" y="-105"/>
      <point x="250" y="-104"/>
      <point x="218" y="-102" type="curve" smooth="yes"/>
      <point x="202" y="-101"/>
      <point x="199" y="-105"/>
      <point x="194" y="-119" type="curve" smooth="yes"/>
      <point x="189" y="-140"/>
      <point x="162" y="-163"/>
      <point x="133" y="-163" type="curve" smooth="yes"/>
      <point x="101" y="-163"/>
      <point x="67" y="-149"/>
      <point x="58" y="-111" type="curve" smooth="yes"/>
      <point x="55" y="-102"/>
      <point x="55" y="-101"/>
      <point x="29" y="-101" type="curve" smooth="yes"/>
      <point x="5" y="-101"/>
      <point x="0" y="-104"/>
      <point x="0" y="-113" type="curve" smooth="yes"/>
      <point x="0" y="-130"/>
      <point x="1" y="-145"/>
      <point x="15" y="-170" type="curve" smooth="yes"/>
      <point x="38" y="-212"/>
      <point x="77" y="-223"/>
    </contour>
    <contour>
      <point x="129" y="0" type="move" name="_bottom"/>
    </contour>
    <contour>
      <point x="129" y="-200" type="move" name="bottom"/>
    </contour>
  </outline>
</glyph>
<glyph name="strokeshortcomb" format="1">
  <advance width="297"/>
  <unicode hex="0335"/>
  <outline>
    <contour>
      <point x="16" y="335" type="curve" smooth="yes"/>
      <point x="21" y="335"/>
      <point x="51" y="336"/>
      <point x="59" y="336" type="curve" smooth="yes"/>
      <point x="103" y="336"/>
      <point x="147" y="338"/>
      <point x="191" y="338" type="curve" smooth="yes"/>
      <point x="215" y="338"/>
      <point x="257" y="335"/>
      <point x="275" y="335" type="curve" smooth="yes"/>
      <point x="294" y="335"/>
      <point x="297" y="339"/>
      <point x="297" y="348" type="curve" smooth="yes"/>
      <point x="297" y="378" type="line" smooth="yes"/>
      <point x="297" y="387"/>
      <point x="297" y="395"/>
      <point x="286" y="395" type="curve" smooth="yes"/>
      <point x="277" y="395"/>
      <point x="252" y="394"/>
      <point x="239" y="394" type="curve" smooth="yes"/>
      <point x="213" y="394"/>
      <point x="187" y="396"/>
      <point x="141" y="396" type="curve" smooth="yes"/>
      <point x="98" y="396"/>
      <point x="54" y="394"/>
      <point x="11" y="394" type="curve" smooth="yes"/>
      <point x="2" y="394"/>
      <point x="0" y="388"/>
      <point x="0" y="375" type="curve" smooth="yes"/>
      <point x="0" y="348" type="line" smooth="yes"/>
      <point x="0" y="341"/>
      <point x="5" y="335"/>
    </contour>
    <contour>
      <point x="149" y="366" type="move" name="_center"/>
    </contour>
  </outline>
</glyph>
<glyph name="minute" format="1">
  <advance width="164"/>
  <unicode hex="2032"/>
  <outline>
    <contour>
      <point x="76" y="451" type="curve" smooth="yes"/>
      <point x="103" y="451"/>
      <point x="116" y="459"/>
      <point x="119" y="477" type="curve" smooth="yes"/>
      <point x="127" y="524"/>
      <point x="132" y="569"/>
      <point x="137" y="608" type="curve" smooth="yes"/>
      <point x="144" y="665"/>
      <point x="154" y="709"/>
      <point x="154" y="724" type="curve" smooth="yes"/>
      <point x="154" y="739"/>
      <point x="151" y="744"/>
      <point x="133" y="744" type="curve" smooth="yes"/>
      <point x="121" y="744"/>
      <point x="103" y="746"/>
      <point x="91" y="746" type="curve" smooth="yes"/>
      <point x="64" y="746"/>
      <point x="61" y="738"/>
      <point x="60" y="721" type="curve" smooth="yes"/>
      <point x="57" y="672"/>
      <point x="54" y="624"/>
      <point x="51" y="575" type="curve" smooth="yes"/>
      <point x="49" y="543"/>
      <point x="43" y="510"/>
      <point x="40" y="478" type="curve" smooth="yes"/>
      <point x="38" y="457"/>
      <point x="46" y="451"/>
    </contour>
  </outline>
</glyph>
<glyph name="colonsign" format="1">
  <advance width="564"/>
  <unicode hex="20A1"/>
  <outline>
    <contour>
      <point x="256" y="-49" type="curve" smooth="yes"/>
      <point x="267" y="-49"/>
      <point x="278" y="-28"/>
      <point x="281" y="-14" type="curve"/>
      <point x="291" y="-15"/>
      <point x="303" y="-15"/>
      <point x="313" y="-15" type="curve" smooth="yes"/>
      <point x="466" y="-15"/>
      <point x="517" y="97"/>
      <point x="535" y="152" type="curve" smooth="yes"/>
      <point x="539" y="165"/>
      <point x="542" y="176"/>
      <point x="543" y="187" type="curve"/>
      <point x="544" y="192"/>
      <point x="544" y="197"/>
      <point x="544" y="202" type="curve" smooth="yes"/>
      <point x="544" y="214"/>
      <point x="541" y="224"/>
      <point x="530" y="226" type="curve"/>
      <point x="517" y="231"/>
      <point x="488" y="247"/>
      <point x="474" y="252" type="curve"/>
      <point x="467" y="253"/>
      <point x="458" y="257"/>
      <point x="449" y="257" type="curve" smooth="yes"/>
      <point x="439" y="257"/>
      <point x="429" y="252"/>
      <point x="423" y="233" type="curve" smooth="yes"/>
      <point x="401" y="156"/>
      <point x="374" y="133"/>
      <point x="327" y="130" type="curve"/>
      <point x="336" y="169"/>
      <point x="346" y="208"/>
      <point x="354" y="246" type="curve" smooth="yes"/>
      <point x="367" y="306"/>
      <point x="409" y="458"/>
      <point x="426" y="514" type="curve"/>
      <point x="439" y="525"/>
      <point x="467" y="553"/>
      <point x="483" y="564" type="curve"/>
      <point x="494" y="571"/>
      <point x="505" y="576"/>
      <point x="505" y="586" type="curve" smooth="yes"/>
      <point x="505" y="591"/>
      <point x="502" y="597"/>
      <point x="495" y="606" type="curve"/>
      <point x="488" y="616"/>
      <point x="478" y="633"/>
      <point x="462" y="651" type="curve"/>
      <point x="479" y="707" type="line" smooth="yes"/>
      <point x="484" y="724"/>
      <point x="489" y="747"/>
      <point x="489" y="762" type="curve" smooth="yes"/>
      <point x="489" y="771"/>
      <point x="488" y="776"/>
      <point x="485" y="777" type="curve"/>
      <point x="477" y="780"/>
      <point x="454" y="782"/>
      <point x="447" y="782" type="curve"/>
      <point x="438" y="777"/>
      <point x="431" y="751"/>
      <point x="424" y="723" type="curve"/>
      <point x="413" y="692" type="line"/>
      <point x="400" y="699"/>
      <point x="386" y="705"/>
      <point x="370" y="710" type="curve"/>
      <point x="370" y="726"/>
      <point x="379" y="748"/>
      <point x="379" y="762" type="curve" smooth="yes"/>
      <point x="379" y="771"/>
      <point x="378" y="776"/>
      <point x="375" y="777" type="curve"/>
      <point x="367" y="780"/>
      <point x="339" y="784"/>
      <point x="332" y="784" type="curve" smooth="yes"/>
      <point x="324" y="784"/>
      <point x="316" y="751"/>
      <point x="309" y="723" type="curve"/>
      <point x="309" y="722"/>
      <point x="309" y="721"/>
      <point x="308" y="720" type="curve"/>
      <point x="292" y="720" type="line" smooth="yes"/>
      <point x="201" y="720"/>
      <point x="42" y="676"/>
      <point x="42" y="373" type="curve" smooth="yes"/>
      <point x="42" y="222"/>
      <point x="83" y="125"/>
      <point x="137" y="66" type="curve"/>
      <point x="123" y="14" type="line" smooth="yes"/>
      <point x="119" y="-1"/>
      <point x="111" y="-21"/>
      <point x="111" y="-33" type="curve" smooth="yes"/>
      <point x="111" y="-40"/>
      <point x="135" y="-46"/>
      <point x="146" y="-46" type="curve" smooth="yes"/>
      <point x="153" y="-46"/>
      <point x="162" y="-42"/>
      <point x="165" y="-37" type="curve" smooth="yes"/>
      <point x="171" y="-26"/>
      <point x="175" y="-14"/>
      <point x="189" y="23" type="curve"/>
      <point x="202" y="14"/>
      <point x="216" y="7"/>
      <point x="229" y="2" type="curve"/>
      <point x="223" y="-19"/>
      <point x="217" y="-28"/>
      <point x="217" y="-39" type="curve" smooth="yes"/>
      <point x="217" y="-46"/>
      <point x="239" y="-49"/>
    </contour>
    <contour>
      <point x="189" y="228" type="line"/>
      <point x="176" y="268"/>
      <point x="167" y="316"/>
      <point x="167" y="377" type="curve" smooth="yes"/>
      <point x="167" y="538"/>
      <point x="216" y="592"/>
      <point x="282" y="603" type="curve"/>
      <point x="278" y="590"/>
      <point x="275" y="579"/>
      <point x="271" y="569" type="curve"/>
      <point x="263" y="529"/>
      <point x="225" y="342"/>
      <point x="202" y="269" type="curve" smooth="yes"/>
    </contour>
    <contour>
      <point x="278" y="132" type="curve"/>
      <point x="262" y="141"/>
      <point x="244" y="154"/>
      <point x="228" y="173" type="curve"/>
      <point x="247" y="246" type="line"/>
      <point x="261" y="284"/>
      <point x="300" y="458"/>
      <point x="316" y="514" type="curve"/>
      <point x="320" y="536"/>
      <point x="329" y="568"/>
      <point x="338" y="600" type="curve"/>
      <point x="356" y="593"/>
      <point x="370" y="580"/>
      <point x="381" y="567" type="curve"/>
      <point x="370" y="523"/>
      <point x="325" y="336"/>
      <point x="309" y="266" type="curve"/>
      <point x="302" y="230"/>
      <point x="290" y="180"/>
    </contour>
    <contour>
      <point x="290" y="0" type="move" name="bottom"/>
    </contour>
    <contour>
      <point x="300" y="710" type="move" name="top"/>
    </contour>
  </outline>
</glyph>
<glyph name="franc" format="1">
  <advance width="465"/>
  <unicode hex="20A3"/>
  <outline>
    <contour>
      <point x="78" y="1" type="curve"/>
      <point x="147" y="1" type="line" smooth="yes"/>
      <point x="160" y="1"/>
      <point x="170" y="0"/>
      <point x="170" y="16" type="curve" smooth="yes"/>
      <point x="170" y="25"/>
      <point x="169" y="49"/>
      <point x="169" y="75" type="curve" smooth="yes"/>
      <point x="169" y="94"/>
      <point x="170" y="113"/>
      <point x="171" y="126" type="curve" smooth="yes"/>
      <point x="172" y="149" type="line"/>
      <point x="190" y="149"/>
      <point x="210" y="151"/>
      <point x="227" y="151" type="curve" smooth="yes"/>
      <point x="238" y="151"/>
      <point x="262" y="150"/>
      <point x="271" y="150" type="curve" smooth="yes"/>
      <point x="295" y="150"/>
      <point x="319" y="151"/>
      <point x="333" y="151" type="curve" smooth="yes"/>
      <point x="349" y="151"/>
      <point x="354" y="150"/>
      <point x="358" y="150" type="curve" smooth="yes"/>
      <point x="370" y="150"/>
      <point x="372" y="152"/>
      <point x="372" y="174" type="curve" smooth="yes"/>
      <point x="372" y="180"/>
      <point x="372" y="187"/>
      <point x="372" y="190" type="curve" smooth="yes"/>
      <point x="372" y="197"/>
      <point x="370" y="200"/>
      <point x="347" y="200" type="curve" smooth="yes"/>
      <point x="336" y="200"/>
      <point x="311" y="201"/>
      <point x="287" y="201" type="curve" smooth="yes"/>
      <point x="275" y="201"/>
      <point x="242" y="198"/>
      <point x="234" y="198" type="curve" smooth="yes"/>
      <point x="223" y="198"/>
      <point x="207" y="199"/>
      <point x="180" y="199" type="curve" smooth="yes"/>
      <point x="174" y="199" type="line"/>
      <point x="174" y="340" type="line"/>
      <point x="188" y="341"/>
      <point x="201" y="341"/>
      <point x="213" y="341" type="curve" smooth="yes"/>
      <point x="266" y="341" type="line" smooth="yes"/>
      <point x="285" y="341"/>
      <point x="345" y="339"/>
      <point x="359" y="339" type="curve" smooth="yes"/>
      <point x="374" y="339"/>
      <point x="390" y="338"/>
      <point x="399" y="338" type="curve" smooth="yes"/>
      <point x="407" y="338"/>
      <point x="412" y="338"/>
      <point x="413" y="349" type="curve"/>
      <point x="417" y="362"/>
      <point x="418" y="368"/>
      <point x="418" y="378" type="curve" smooth="yes"/>
      <point x="418" y="384"/>
      <point x="416" y="390"/>
      <point x="398" y="390" type="curve" smooth="yes"/>
      <point x="375" y="390"/>
      <point x="345" y="386"/>
      <point x="305" y="386" type="curve" smooth="yes"/>
      <point x="233" y="386" type="line" smooth="yes"/>
      <point x="221" y="386"/>
      <point x="206" y="385"/>
      <point x="193" y="385" type="curve" smooth="yes"/>
      <point x="171" y="385" type="line"/>
      <point x="173" y="398" type="line" smooth="yes"/>
      <point x="174" y="406"/>
      <point x="175" y="415"/>
      <point x="175" y="426" type="curve" smooth="yes"/>
      <point x="175" y="539" type="line" smooth="yes"/>
      <point x="175" y="545"/>
      <point x="175" y="551"/>
      <point x="176" y="557" type="curve"/>
      <point x="197" y="559" type="line" smooth="yes"/>
      <point x="209" y="560"/>
      <point x="224" y="561"/>
      <point x="239" y="561" type="curve" smooth="yes"/>
      <point x="345" y="561" type="line" smooth="yes"/>
      <point x="364" y="561"/>
      <point x="431" y="555"/>
      <point x="446" y="555" type="curve" smooth="yes"/>
      <point x="460" y="555"/>
      <point x="461" y="558"/>
      <point x="461" y="568" type="curve" smooth="yes"/>
      <point x="461" y="596" type="line"/>
      <point x="460" y="663" type="line"/>
      <point x="460" y="670"/>
      <point x="461" y="676"/>
      <point x="461" y="680" type="curve" smooth="yes"/>
      <point x="461" y="689"/>
      <point x="458" y="693"/>
      <point x="443" y="693" type="curve" smooth="yes"/>
      <point x="420" y="693"/>
      <point x="380" y="695"/>
      <point x="352" y="695" type="curve" smooth="yes"/>
      <point x="243" y="696" type="line" smooth="yes"/>
      <point x="216" y="696"/>
      <point x="155" y="692"/>
      <point x="119" y="692" type="curve" smooth="yes"/>
      <point x="108" y="692"/>
      <point x="93" y="694"/>
      <point x="85" y="694" type="curve" smooth="yes"/>
      <point x="77" y="694"/>
      <point x="71" y="693"/>
      <point x="71" y="678" type="curve" smooth="yes"/>
      <point x="71" y="674" type="line" smooth="yes"/>
      <point x="71" y="655"/>
      <point x="67" y="621"/>
      <point x="67" y="602" type="curve" smooth="yes"/>
      <point x="67" y="512" type="line" smooth="yes"/>
      <point x="67" y="484"/>
      <point x="64" y="465"/>
      <point x="64" y="424" type="curve" smooth="yes"/>
      <point x="64" y="381"/>
      <point x="68" y="357"/>
      <point x="68" y="336" type="curve" smooth="yes"/>
      <point x="68" y="318"/>
      <point x="65" y="246"/>
      <point x="64" y="197" type="curve"/>
      <point x="58" y="196"/>
      <point x="52" y="196"/>
      <point x="46" y="196" type="curve" smooth="yes"/>
      <point x="41" y="196"/>
      <point x="15" y="197"/>
      <point x="11" y="197" type="curve" smooth="yes"/>
      <point x="4" y="197"/>
      <point x="2" y="192"/>
      <point x="2" y="189" type="curve" smooth="yes"/>
      <point x="2" y="180"/>
      <point x="0" y="168"/>
      <point x="0" y="159" type="curve" smooth="yes"/>
      <point x="0" y="153"/>
      <point x="4" y="149"/>
      <point x="9" y="149" type="curve" smooth="yes"/>
      <point x="19" y="149"/>
      <point x="29" y="150"/>
      <point x="39" y="150" type="curve" smooth="yes"/>
      <point x="48" y="150"/>
      <point x="56" y="149"/>
      <point x="64" y="149" type="curve"/>
      <point x="63" y="83" type="line" smooth="yes"/>
      <point x="63" y="62"/>
      <point x="64" y="44"/>
      <point x="65" y="36" type="curve"/>
      <point x="66" y="15"/>
      <point x="62" y="2"/>
    </contour>
  </outline>
</glyph>
<glyph name="lira" format="1">
  <advance width="500"/>
  <unicode hex="20A4"/>
  <outline>
    <contour>
      <point x="127" y="-1" type="curve" smooth="yes"/>
      <point x="155" y="1"/>
      <point x="184" y="5"/>
      <point x="212" y="5" type="curve" smooth="yes"/>
      <point x="262" y="5"/>
      <point x="294" y="10"/>
      <point x="327" y="10" type="curve" smooth="yes"/>
      <point x="357" y="10"/>
      <point x="444" y="2"/>
      <point x="459" y="2" type="curve" smooth="yes"/>
      <point x="472" y="2"/>
      <point x="484" y="-2"/>
      <point x="484" y="11" type="curve" smooth="yes"/>
      <point x="484" y="23"/>
      <point x="482" y="51"/>
      <point x="482" y="59" type="curve" smooth="yes"/>
      <point x="482" y="66"/>
      <point x="479" y="72"/>
      <point x="470" y="72" type="curve" smooth="yes"/>
      <point x="434" y="72"/>
      <point x="396" y="69"/>
      <point x="371" y="69" type="curve" smooth="yes"/>
      <point x="347" y="69"/>
      <point x="284" y="66"/>
      <point x="260" y="66" type="curve" smooth="yes"/>
      <point x="242" y="66"/>
      <point x="199" y="64"/>
      <point x="143" y="65" type="curve"/>
      <point x="186" y="85"/>
      <point x="202" y="107"/>
      <point x="206" y="148" type="curve" smooth="yes"/>
      <point x="209" y="179"/>
      <point x="208" y="199"/>
      <point x="208" y="217" type="curve" smooth="yes"/>
      <point x="208" y="237" type="line"/>
      <point x="279" y="238" type="line" smooth="yes"/>
      <point x="302" y="238"/>
      <point x="332" y="241"/>
      <point x="340" y="241" type="curve" smooth="yes"/>
      <point x="345" y="241"/>
      <point x="350" y="240"/>
      <point x="354" y="240" type="curve" smooth="yes"/>
      <point x="359" y="240"/>
      <point x="363" y="242"/>
      <point x="363" y="248" type="curve" smooth="yes"/>
      <point x="363" y="274"/>
      <point x="364" y="303"/>
      <point x="364" y="280" type="curve" smooth="yes"/>
      <point x="364" y="304"/>
      <point x="362" y="308"/>
      <point x="335" y="308" type="curve" smooth="yes"/>
      <point x="206" y="308" type="line"/>
      <point x="205" y="358" type="line"/>
      <point x="240" y="361"/>
      <point x="254" y="361"/>
      <point x="272" y="361" type="curve" smooth="yes"/>
      <point x="290" y="361"/>
      <point x="299" y="358"/>
      <point x="313" y="358" type="curve" smooth="yes"/>
      <point x="356" y="358"/>
      <point x="364" y="361"/>
      <point x="364" y="371" type="curve" smooth="yes"/>
      <point x="364" y="410" type="line" smooth="yes"/>
      <point x="364" y="419"/>
      <point x="345" y="421"/>
      <point x="322" y="419" type="curve"/>
      <point x="302" y="419"/>
      <point x="282" y="419"/>
      <point x="262" y="417" type="curve" smooth="yes"/>
      <point x="243" y="419"/>
      <point x="225" y="419"/>
      <point x="206" y="419" type="curve"/>
      <point x="214" y="567"/>
      <point x="243" y="604"/>
      <point x="300" y="604" type="curve" smooth="yes"/>
      <point x="353" y="604"/>
      <point x="376" y="528"/>
      <point x="391" y="528" type="curve" smooth="yes"/>
      <point x="412" y="528"/>
      <point x="422" y="551"/>
      <point x="449" y="573" type="curve" smooth="yes"/>
      <point x="458" y="580"/>
      <point x="468" y="585"/>
      <point x="468" y="595" type="curve" smooth="yes"/>
      <point x="468" y="600"/>
      <point x="466" y="607"/>
      <point x="460" y="615" type="curve" smooth="yes"/>
      <point x="413" y="675"/>
      <point x="365" y="722"/>
      <point x="301" y="722" type="curve" smooth="yes"/>
      <point x="256" y="722"/>
      <point x="202" y="714"/>
      <point x="169" y="679" type="curve" smooth="yes"/>
      <point x="128" y="636"/>
      <point x="92" y="548"/>
      <point x="92" y="419" type="curve"/>
      <point x="54" y="419" type="line" smooth="yes"/>
      <point x="33" y="419"/>
      <point x="27" y="413"/>
      <point x="28" y="401" type="curve" smooth="yes"/>
      <point x="30" y="381" type="line" smooth="yes"/>
      <point x="31" y="374"/>
      <point x="27" y="361"/>
      <point x="46" y="361" type="curve"/>
      <point x="53" y="362"/>
      <point x="71" y="360"/>
      <point x="91" y="360" type="curve"/>
      <point x="91" y="305" type="line"/>
      <point x="68" y="305" type="line" smooth="yes"/>
      <point x="55" y="305"/>
      <point x="48" y="307"/>
      <point x="35" y="307" type="curve" smooth="yes"/>
      <point x="24" y="307"/>
      <point x="29" y="290"/>
      <point x="29" y="271" type="curve" smooth="yes"/>
      <point x="29" y="240"/>
      <point x="35" y="235"/>
      <point x="45" y="235" type="curve" smooth="yes"/>
      <point x="52" y="235"/>
      <point x="72" y="233"/>
      <point x="90" y="233" type="curve"/>
      <point x="90" y="224" type="line"/>
      <point x="89" y="196"/>
      <point x="89" y="184"/>
      <point x="89" y="156" type="curve" smooth="yes"/>
      <point x="89" y="129"/>
      <point x="77" y="110"/>
      <point x="54" y="99" type="curve" smooth="yes"/>
      <point x="31" y="90"/>
      <point x="19" y="84"/>
      <point x="18" y="74" type="curve" smooth="yes"/>
      <point x="17" y="60"/>
      <point x="15" y="44"/>
      <point x="15" y="27" type="curve" smooth="yes"/>
      <point x="15" y="16"/>
      <point x="16" y="1"/>
      <point x="39" y="1" type="curve" smooth="yes"/>
      <point x="68" y="1"/>
      <point x="98" y="1"/>
    </contour>
  </outline>
</glyph>
<glyph name="kip" format="1">
  <advance width="523"/>
  <unicode hex="20AD"/>
  <outline>
    <contour>
      <point x="418" y="-8" type="curve"/>
      <point x="437" y="-8"/>
      <point x="490" y="-5"/>
      <point x="501" y="-5" type="curve"/>
      <point x="510" y="-7"/>
      <point x="521" y="-4"/>
      <point x="521" y="2" type="curve" smooth="yes"/>
      <point x="521" y="3"/>
      <point x="520" y="5"/>
      <point x="519" y="6" type="curve" smooth="yes"/>
      <point x="511" y="14"/>
      <point x="461" y="69"/>
      <point x="427" y="100" type="curve" smooth="yes"/>
      <point x="392" y="132"/>
      <point x="333" y="201"/>
      <point x="322" y="212" type="curve" smooth="yes"/>
      <point x="304" y="230"/>
      <point x="257" y="280"/>
      <point x="245" y="294" type="curve"/>
      <point x="287" y="293"/>
      <point x="295" y="296"/>
      <point x="337" y="295" type="curve" smooth="yes"/>
      <point x="351" y="295"/>
      <point x="398" y="292"/>
      <point x="412" y="292" type="curve" smooth="yes"/>
      <point x="455" y="292"/>
      <point x="463" y="294"/>
      <point x="463" y="303" type="curve" smooth="yes"/>
      <point x="463" y="340" type="line" smooth="yes"/>
      <point x="463" y="349"/>
      <point x="455" y="354"/>
      <point x="421" y="354" type="curve" smooth="yes"/>
      <point x="391" y="354"/>
      <point x="362" y="351"/>
      <point x="332" y="351" type="curve" smooth="yes"/>
      <point x="300" y="351"/>
      <point x="258" y="354"/>
      <point x="237" y="354" type="curve"/>
      <point x="248" y="374"/>
      <point x="264" y="398"/>
      <point x="271" y="407" type="curve"/>
      <point x="285" y="423"/>
      <point x="371" y="540"/>
      <point x="387" y="564" type="curve"/>
      <point x="406" y="588"/>
      <point x="479" y="677"/>
      <point x="484" y="682" type="curve" smooth="yes"/>
      <point x="489" y="687"/>
      <point x="494" y="691"/>
      <point x="494" y="696" type="curve" smooth="yes"/>
      <point x="494" y="700"/>
      <point x="488" y="703"/>
      <point x="476" y="703" type="curve" smooth="yes"/>
      <point x="472" y="703" type="line"/>
      <point x="457" y="702"/>
      <point x="439" y="700"/>
      <point x="430" y="700" type="curve"/>
      <point x="421" y="699"/>
      <point x="406" y="702"/>
      <point x="401" y="686" type="curve"/>
      <point x="395" y="669"/>
      <point x="354" y="624"/>
      <point x="344" y="609" type="curve" smooth="yes"/>
      <point x="334" y="594"/>
      <point x="255" y="484"/>
      <point x="236" y="460" type="curve" smooth="yes"/>
      <point x="199" y="412" type="line"/>
      <point x="192" y="402"/>
      <point x="184" y="392"/>
      <point x="175" y="382" type="curve"/>
      <point x="174" y="397"/>
      <point x="174" y="411"/>
      <point x="174" y="424" type="curve" smooth="yes"/>
      <point x="174" y="490" type="line" smooth="yes"/>
      <point x="174" y="522"/>
      <point x="185" y="600"/>
      <point x="185" y="628" type="curve" smooth="yes"/>
      <point x="185" y="657"/>
      <point x="184" y="670"/>
      <point x="184" y="677" type="curve" smooth="yes"/>
      <point x="184" y="684"/>
      <point x="183" y="691"/>
      <point x="168" y="691" type="curve" smooth="yes"/>
      <point x="84" y="692" type="line" smooth="yes"/>
      <point x="78" y="692"/>
      <point x="69" y="695"/>
      <point x="62" y="695" type="curve" smooth="yes"/>
      <point x="56" y="695"/>
      <point x="52" y="693"/>
      <point x="52" y="686" type="curve" smooth="yes"/>
      <point x="51" y="607" type="line" smooth="yes"/>
      <point x="51" y="594"/>
      <point x="50" y="568"/>
      <point x="50" y="541" type="curve" smooth="yes"/>
      <point x="50" y="528"/>
      <point x="50" y="515"/>
      <point x="51" y="503" type="curve" smooth="yes"/>
      <point x="53" y="481"/>
      <point x="53" y="419"/>
      <point x="53" y="362" type="curve" smooth="yes"/>
      <point x="53" y="354" type="line"/>
      <point x="16" y="354" type="line" smooth="yes"/>
      <point x="5" y="354"/>
      <point x="2" y="353"/>
      <point x="1" y="342" type="curve" smooth="yes"/>
      <point x="0" y="323" type="line" smooth="yes"/>
      <point x="-1" y="297"/>
      <point x="-1" y="292"/>
      <point x="18" y="292" type="curve"/>
      <point x="24" y="293"/>
      <point x="37" y="293"/>
      <point x="53" y="293" type="curve"/>
      <point x="53" y="268" type="line"/>
      <point x="54" y="23" type="line" smooth="yes"/>
      <point x="54" y="7"/>
      <point x="53" y="0"/>
      <point x="64" y="0" type="curve" smooth="yes"/>
      <point x="74" y="0"/>
      <point x="97" y="3"/>
      <point x="111" y="3" type="curve" smooth="yes"/>
      <point x="126" y="3"/>
      <point x="155" y="0"/>
      <point x="164" y="0" type="curve" smooth="yes"/>
      <point x="172" y="0"/>
      <point x="183" y="-3"/>
      <point x="183" y="14" type="curve" smooth="yes"/>
      <point x="183" y="32"/>
      <point x="179" y="89"/>
      <point x="178" y="110" type="curve" smooth="yes"/>
      <point x="173" y="224" type="line"/>
      <point x="187" y="203"/>
      <point x="198" y="180"/>
      <point x="216" y="162" type="curve" smooth="yes"/>
      <point x="237" y="140"/>
      <point x="260" y="124"/>
      <point x="273" y="111" type="curve" smooth="yes"/>
      <point x="300" y="84"/>
      <point x="327" y="56"/>
      <point x="342" y="40" type="curve" smooth="yes"/>
      <point x="357" y="23"/>
      <point x="372" y="10"/>
      <point x="379" y="3" type="curve"/>
      <point x="387" y="-4"/>
      <point x="398" y="-9"/>
    </contour>
  </outline>
</glyph>
<glyph name="peso" format="1">
  <advance width="600"/>
  <unicode hex="20B1"/>
  <outline>
    <contour>
      <point x="81" y="-2" type="curve" smooth="yes"/>
      <point x="97" y="-2"/>
      <point x="112" y="2"/>
      <point x="128" y="2" type="curve" smooth="yes"/>
      <point x="134" y="2"/>
      <point x="142" y="0"/>
      <point x="150" y="0" type="curve" smooth="yes"/>
      <point x="162" y="0"/>
      <point x="174" y="5"/>
      <point x="174" y="30" type="curve" smooth="yes"/>
      <point x="174" y="77"/>
      <point x="172" y="124"/>
      <point x="173" y="171" type="curve" smooth="yes"/>
      <point x="174" y="200"/>
      <point x="177" y="231"/>
      <point x="175" y="260" type="curve"/>
      <point x="239" y="261"/>
      <point x="333" y="264"/>
      <point x="387" y="282" type="curve" smooth="yes"/>
      <point x="459" y="306"/>
      <point x="520" y="383"/>
      <point x="520" y="517" type="curve" smooth="yes"/>
      <point x="520" y="584"/>
      <point x="486" y="618"/>
      <point x="459" y="651" type="curve" smooth="yes"/>
      <point x="414" y="704"/>
      <point x="343" y="704"/>
      <point x="224" y="704" type="curve" smooth="yes"/>
      <point x="179" y="704"/>
      <point x="118" y="702"/>
      <point x="93" y="702" type="curve" smooth="yes"/>
      <point x="80" y="702"/>
      <point x="74" y="696"/>
      <point x="74" y="673" type="curve" smooth="yes"/>
      <point x="74" y="612"/>
      <point x="71" y="545"/>
      <point x="71" y="480" type="curve" smooth="yes"/>
      <point x="71" y="402"/>
      <point x="65" y="324"/>
      <point x="65" y="246" type="curve" smooth="yes"/>
      <point x="65" y="193"/>
      <point x="62" y="48"/>
      <point x="62" y="30" type="curve" smooth="yes"/>
      <point x="62" y="11"/>
      <point x="65" y="-2"/>
    </contour>
    <contour>
      <point x="561" y="400" type="curve" smooth="yes"/>
      <point x="571" y="400"/>
      <point x="575" y="403"/>
      <point x="575" y="408" type="curve" smooth="yes"/>
      <point x="575" y="411"/>
      <point x="576" y="420"/>
      <point x="576" y="427" type="curve" smooth="yes"/>
      <point x="576" y="440"/>
      <point x="577" y="448"/>
      <point x="577" y="456" type="curve" smooth="yes"/>
      <point x="577" y="460"/>
      <point x="575" y="463"/>
      <point x="563" y="463" type="curve" smooth="yes"/>
      <point x="537" y="463"/>
      <point x="460" y="465"/>
      <point x="376" y="465" type="curve" smooth="yes"/>
      <point x="339" y="465"/>
      <point x="265" y="460"/>
      <point x="228" y="460" type="curve" smooth="yes"/>
      <point x="187" y="460"/>
      <point x="116" y="462"/>
      <point x="45" y="462" type="curve" smooth="yes"/>
      <point x="17" y="462"/>
      <point x="2" y="460"/>
      <point x="2" y="454" type="curve" smooth="yes"/>
      <point x="2" y="448"/>
      <point x="1" y="440"/>
      <point x="1" y="432" type="curve" smooth="yes"/>
      <point x="1" y="425"/>
      <point x="2" y="417"/>
      <point x="2" y="413" type="curve" smooth="yes"/>
      <point x="2" y="410"/>
      <point x="4" y="405"/>
      <point x="14" y="405" type="curve" smooth="yes"/>
      <point x="25" y="405"/>
      <point x="77" y="403"/>
      <point x="98" y="403" type="curve" smooth="yes"/>
      <point x="218" y="403"/>
      <point x="286" y="402"/>
      <point x="277" y="402" type="curve" smooth="yes"/>
      <point x="232" y="402"/>
      <point x="400" y="405"/>
      <point x="433" y="405" type="curve" smooth="yes"/>
      <point x="476" y="405"/>
      <point x="528" y="400"/>
    </contour>
    <contour>
      <point x="179" y="332" type="curve"/>
      <point x="180" y="363"/>
      <point x="177" y="374"/>
      <point x="177" y="405" type="curve" smooth="yes"/>
      <point x="177" y="425"/>
      <point x="178" y="466"/>
      <point x="178" y="487" type="curve" smooth="yes"/>
      <point x="178" y="540"/>
      <point x="182" y="583"/>
      <point x="182" y="645" type="curve"/>
      <point x="201" y="646"/>
      <point x="252" y="647"/>
      <point x="269" y="647" type="curve" smooth="yes"/>
      <point x="292" y="647"/>
      <point x="313" y="646"/>
      <point x="333" y="643" type="curve" smooth="yes"/>
      <point x="363" y="636"/>
      <point x="417" y="615"/>
      <point x="427" y="561" type="curve" smooth="yes"/>
      <point x="433" y="530"/>
      <point x="435" y="504"/>
      <point x="435" y="482" type="curve" smooth="yes"/>
      <point x="435" y="416"/>
      <point x="414" y="382"/>
      <point x="375" y="360" type="curve" smooth="yes"/>
      <point x="344" y="345"/>
      <point x="315" y="337"/>
      <point x="284" y="335" type="curve" smooth="yes"/>
      <point x="260" y="333"/>
      <point x="205" y="331"/>
    </contour>
    <contour>
      <point x="202" y="520" type="curve" smooth="yes"/>
      <point x="239" y="520"/>
      <point x="313" y="525"/>
      <point x="350" y="525" type="curve" smooth="yes"/>
      <point x="391" y="525"/>
      <point x="462" y="523"/>
      <point x="533" y="523" type="curve" smooth="yes"/>
      <point x="561" y="523"/>
      <point x="576" y="525"/>
      <point x="576" y="531" type="curve" smooth="yes"/>
      <point x="576" y="537"/>
      <point x="577" y="545"/>
      <point x="577" y="553" type="curve" smooth="yes"/>
      <point x="577" y="560"/>
      <point x="576" y="568"/>
      <point x="576" y="572" type="curve" smooth="yes"/>
      <point x="576" y="575"/>
      <point x="574" y="580"/>
      <point x="564" y="580" type="curve" smooth="yes"/>
      <point x="553" y="580"/>
      <point x="501" y="582"/>
      <point x="480" y="582" type="curve" smooth="yes"/>
      <point x="412" y="582"/>
      <point x="330" y="583"/>
      <point x="301" y="583" type="curve" smooth="yes"/>
      <point x="256" y="583"/>
      <point x="178" y="580"/>
      <point x="145" y="580" type="curve" smooth="yes"/>
      <point x="102" y="580"/>
      <point x="50" y="585"/>
      <point x="17" y="585" type="curve" smooth="yes"/>
      <point x="7" y="585"/>
      <point x="3" y="582"/>
      <point x="3" y="577" type="curve" smooth="yes"/>
      <point x="3" y="574"/>
      <point x="2" y="565"/>
      <point x="2" y="558" type="curve" smooth="yes"/>
      <point x="2" y="545"/>
      <point x="1" y="537"/>
      <point x="1" y="529" type="curve" smooth="yes"/>
      <point x="1" y="525"/>
      <point x="3" y="522"/>
      <point x="15" y="522" type="curve" smooth="yes"/>
      <point x="41" y="522"/>
      <point x="118" y="520"/>
    </contour>
  </outline>
</glyph>
<glyph name="cedi" format="1">
  <advance width="515"/>
  <unicode hex="20B5"/>
  <outline>
    <contour>
      <point x="293" y="-12" type="curve" smooth="yes"/>
      <point x="423" y="-12"/>
      <point x="481" y="84"/>
      <point x="492" y="103" type="curve" smooth="yes"/>
      <point x="494" y="107"/>
      <point x="495" y="111"/>
      <point x="495" y="114" type="curve" smooth="yes"/>
      <point x="495" y="124"/>
      <point x="469" y="149"/>
      <point x="454" y="158" type="curve"/>
      <point x="412" y="181" type="line" smooth="yes"/>
      <point x="407" y="184"/>
      <point x="403" y="185"/>
      <point x="400" y="185" type="curve" smooth="yes"/>
      <point x="395" y="185"/>
      <point x="392" y="180"/>
      <point x="385" y="173" type="curve" smooth="yes"/>
      <point x="374" y="154"/>
      <point x="325" y="114"/>
      <point x="285" y="114" type="curve" smooth="yes"/>
      <point x="257" y="114"/>
      <point x="167" y="149"/>
      <point x="167" y="329" type="curve" smooth="yes"/>
      <point x="167" y="508"/>
      <point x="231" y="564"/>
      <point x="275" y="564" type="curve" smooth="yes"/>
      <point x="313" y="564"/>
      <point x="336" y="538"/>
      <point x="365" y="512" type="curve" smooth="yes"/>
      <point x="371" y="505"/>
      <point x="376" y="502"/>
      <point x="381" y="502" type="curve" smooth="yes"/>
      <point x="391" y="502"/>
      <point x="401" y="514"/>
      <point x="412" y="528" type="curve" smooth="yes"/>
      <point x="420" y="545"/>
      <point x="438" y="568"/>
      <point x="448" y="581" type="curve" smooth="yes"/>
      <point x="456" y="588"/>
      <point x="459" y="593"/>
      <point x="459" y="597" type="curve" smooth="yes"/>
      <point x="459" y="604"/>
      <point x="454" y="610"/>
      <point x="448" y="618" type="curve" smooth="yes"/>
      <point x="437" y="634"/>
      <point x="382" y="704"/>
      <point x="271" y="704" type="curve" smooth="yes"/>
      <point x="159" y="704"/>
      <point x="37" y="562"/>
      <point x="37" y="354" type="curve" smooth="yes"/>
      <point x="37" y="76"/>
      <point x="162" y="-12"/>
    </contour>
    <contour>
      <point x="277" y="-59" type="curve"/>
      <point x="286" y="-61"/>
      <point x="296" y="-62"/>
      <point x="296" y="-16" type="curve" smooth="yes"/>
      <point x="296" y="31" type="line"/>
      <point x="298" y="72" type="line" smooth="yes"/>
      <point x="299" y="93"/>
      <point x="298" y="119"/>
      <point x="298" y="133" type="curve" smooth="yes"/>
      <point x="298" y="159"/>
      <point x="301" y="318"/>
      <point x="301" y="346" type="curve" smooth="yes"/>
      <point x="301" y="376"/>
      <point x="304" y="573"/>
      <point x="304" y="614" type="curve" smooth="yes"/>
      <point x="304" y="653"/>
      <point x="316" y="718"/>
      <point x="313" y="736" type="curve"/>
      <point x="313" y="755"/>
      <point x="313" y="773"/>
      <point x="298" y="772" type="curve"/>
      <point x="258" y="772" type="line"/>
      <point x="247" y="773"/>
      <point x="237" y="772"/>
      <point x="238" y="750" type="curve" smooth="yes"/>
      <point x="239" y="735"/>
      <point x="244" y="660"/>
      <point x="244" y="628" type="curve" smooth="yes"/>
      <point x="244" y="617"/>
      <point x="244" y="607"/>
      <point x="243" y="601" type="curve" smooth="yes"/>
      <point x="242" y="597"/>
      <point x="243" y="588"/>
      <point x="243" y="576" type="curve" smooth="yes"/>
      <point x="243" y="536"/>
      <point x="240" y="464"/>
      <point x="240" y="444" type="curve" smooth="yes"/>
      <point x="240" y="423"/>
      <point x="241" y="352"/>
      <point x="241" y="272" type="curve" smooth="yes"/>
      <point x="241" y="243"/>
      <point x="241" y="212"/>
      <point x="241" y="182" type="curve"/>
      <point x="240" y="76"/>
      <point x="234" y="11"/>
      <point x="232" y="-14" type="curve" smooth="yes"/>
      <point x="231" y="-25"/>
      <point x="231" y="-33"/>
      <point x="231" y="-40" type="curve" smooth="yes"/>
      <point x="231" y="-51"/>
      <point x="233" y="-56"/>
      <point x="245" y="-58" type="curve" smooth="yes"/>
      <point x="255" y="-60"/>
      <point x="266" y="-60"/>
    </contour>
  </outline>
</glyph>
<glyph name="ruble" format="1">
  <advance width="473"/>
  <unicode hex="20BD"/>
  <outline>
    <contour>
      <point x="90" y="-16" type="curve" smooth="yes"/>
      <point x="110" y="-16"/>
      <point x="165" y="-8"/>
      <point x="189" y="-8" type="curve" smooth="yes"/>
      <point x="208" y="-8"/>
      <point x="218" y="-7"/>
      <point x="218" y="9" type="curve" smooth="yes"/>
      <point x="218" y="12"/>
      <point x="218" y="15"/>
      <point x="217" y="19" type="curve" smooth="yes"/>
      <point x="214" y="30"/>
      <point x="210" y="101"/>
      <point x="207" y="167" type="curve"/>
      <point x="204" y="200"/>
      <point x="202" y="236"/>
      <point x="199" y="276" type="curve"/>
      <point x="306" y="276"/>
      <point x="359" y="304"/>
      <point x="396" y="363" type="curve" smooth="yes"/>
      <point x="419" y="396"/>
      <point x="443" y="443"/>
      <point x="443" y="503" type="curve" smooth="yes"/>
      <point x="443" y="569"/>
      <point x="415" y="625"/>
      <point x="363" y="662" type="curve" smooth="yes"/>
      <point x="321" y="692"/>
      <point x="280" y="710"/>
      <point x="218" y="710" type="curve" smooth="yes"/>
      <point x="159" y="710"/>
      <point x="97" y="700"/>
      <point x="86" y="700" type="curve" smooth="yes"/>
      <point x="76" y="700"/>
      <point x="64" y="704"/>
      <point x="64" y="669" type="curve" smooth="yes"/>
      <point x="64" y="663"/>
      <point x="64" y="655"/>
      <point x="65" y="647" type="curve" smooth="yes"/>
      <point x="67" y="616"/>
      <point x="69" y="537"/>
      <point x="69" y="464" type="curve" smooth="yes"/>
      <point x="69" y="401"/>
      <point x="68" y="343"/>
      <point x="64" y="323" type="curve" smooth="yes"/>
      <point x="62" y="313"/>
      <point x="61" y="293"/>
      <point x="61" y="268" type="curve" smooth="yes"/>
      <point x="61" y="187"/>
      <point x="69" y="52"/>
      <point x="69" y="29" type="curve" smooth="yes"/>
      <point x="69" y="20"/>
      <point x="68" y="12"/>
      <point x="68" y="6" type="curve" smooth="yes"/>
      <point x="68" y="-8"/>
      <point x="71" y="-16"/>
    </contour>
    <contour>
      <point x="13" y="121" type="curve"/>
      <point x="25" y="124"/>
      <point x="87" y="124"/>
      <point x="103" y="124" type="curve" smooth="yes"/>
      <point x="172" y="124" type="line" smooth="yes"/>
      <point x="205" y="124"/>
      <point x="227" y="124"/>
      <point x="240" y="123" type="curve" smooth="yes"/>
      <point x="278" y="121" type="line"/>
      <point x="309" y="121" type="line" smooth="yes"/>
      <point x="341" y="121"/>
      <point x="347" y="124"/>
      <point x="347" y="134" type="curve" smooth="yes"/>
      <point x="347" y="175" type="line" smooth="yes"/>
      <point x="347" y="184"/>
      <point x="348" y="192"/>
      <point x="316" y="190" type="curve" smooth="yes"/>
      <point x="266" y="190"/>
      <point x="216" y="190"/>
      <point x="166" y="187" type="curve" smooth="yes"/>
      <point x="117" y="190"/>
      <point x="68" y="190"/>
      <point x="19" y="190" type="curve" smooth="yes"/>
      <point x="3" y="190"/>
      <point x="0" y="184"/>
      <point x="0" y="172" type="curve" smooth="yes"/>
      <point x="0" y="134" type="line" smooth="yes"/>
      <point x="0" y="127"/>
      <point x="-1" y="121"/>
    </contour>
    <contour>
      <point x="202" y="384" type="curve"/>
      <point x="202" y="426"/>
      <point x="202" y="447"/>
      <point x="202" y="468" type="curve" smooth="yes"/>
      <point x="202" y="483"/>
      <point x="199" y="540"/>
      <point x="199" y="558" type="curve" smooth="yes"/>
      <point x="199" y="582"/>
      <point x="212" y="590"/>
      <point x="243" y="590" type="curve" smooth="yes"/>
      <point x="276" y="590"/>
      <point x="310" y="563"/>
      <point x="310" y="489" type="curve" smooth="yes"/>
      <point x="310" y="434"/>
      <point x="282" y="407"/>
      <point x="250" y="395" type="curve" smooth="yes"/>
      <point x="236" y="388"/>
      <point x="220" y="384"/>
    </contour>
  </outline>
</glyph>
<glyph name="numero" format="1">
  <advance width="982"/>
  <unicode hex="2116"/>
  <outline>
    <contour>
      <point x="110" y="-9" type="curve" smooth="yes"/>
      <point x="123" y="-9"/>
      <point x="147" y="-6"/>
      <point x="155" y="-6" type="curve" smooth="yes"/>
      <point x="165" y="-6"/>
      <point x="174" y="-4"/>
      <point x="174" y="10" type="curve" smooth="yes"/>
      <point x="174" y="10"/>
      <point x="174" y="11"/>
      <point x="174" y="12" type="curve" smooth="yes"/>
      <point x="174" y="28"/>
      <point x="170" y="79"/>
      <point x="170" y="108" type="curve" smooth="yes"/>
      <point x="170" y="138"/>
      <point x="186" y="282"/>
      <point x="186" y="351" type="curve" smooth="yes"/>
      <point x="186" y="386"/>
      <point x="184" y="445"/>
      <point x="183" y="497" type="curve"/>
      <point x="180" y="592" type="line"/>
      <point x="209" y="540" type="line" smooth="yes"/>
      <point x="225" y="511"/>
      <point x="243" y="476"/>
      <point x="254" y="453" type="curve" smooth="yes"/>
      <point x="276" y="407"/>
      <point x="344" y="252"/>
      <point x="365" y="212" type="curve"/>
      <point x="384" y="172"/>
      <point x="439" y="34"/>
      <point x="447" y="16" type="curve"/>
      <point x="458" y="-3"/>
      <point x="459" y="-3"/>
      <point x="470" y="-4" type="curve" smooth="yes"/>
      <point x="478" y="-5"/>
      <point x="492" y="-3"/>
      <point x="504" y="-3" type="curve" smooth="yes"/>
      <point x="509" y="-3"/>
      <point x="513" y="-3"/>
      <point x="516" y="-4" type="curve" smooth="yes"/>
      <point x="525" y="-7"/>
      <point x="535" y="-4"/>
      <point x="535" y="14" type="curve" smooth="yes"/>
      <point x="535" y="14"/>
      <point x="535" y="15"/>
      <point x="535" y="16" type="curve" smooth="yes"/>
      <point x="535" y="35"/>
      <point x="530" y="147"/>
      <point x="530" y="191" type="curve" smooth="yes"/>
      <point x="530" y="229"/>
      <point x="524" y="313"/>
      <point x="524" y="371" type="curve" smooth="yes"/>
      <point x="524" y="382"/>
      <point x="525" y="391"/>
      <point x="525" y="400" type="curve" smooth="yes"/>
      <point x="525" y="452"/>
      <point x="528" y="669"/>
      <point x="528" y="688" type="curve" smooth="yes"/>
      <point x="528" y="696"/>
      <point x="530" y="703"/>
      <point x="530" y="708" type="curve" smooth="yes"/>
      <point x="530" y="714"/>
      <point x="528" y="717"/>
      <point x="517" y="717" type="curve" smooth="yes"/>
      <point x="498" y="717"/>
      <point x="494" y="717"/>
      <point x="482" y="719" type="curve" smooth="yes"/>
      <point x="477" y="720"/>
      <point x="469" y="722"/>
      <point x="462" y="722" type="curve" smooth="yes"/>
      <point x="454" y="722"/>
      <point x="447" y="719"/>
      <point x="447" y="707" type="curve" smooth="yes"/>
      <point x="443" y="611" type="line"/>
      <point x="443" y="574"/>
      <point x="445" y="500"/>
      <point x="445" y="467" type="curve"/>
      <point x="444" y="439"/>
      <point x="443" y="399"/>
      <point x="443" y="356" type="curve" smooth="yes"/>
      <point x="443" y="346"/>
      <point x="443" y="336"/>
      <point x="443" y="326" type="curve" smooth="yes"/>
      <point x="447" y="228" type="line"/>
      <point x="449" y="170" type="line"/>
      <point x="418" y="231" type="line" smooth="yes"/>
      <point x="400" y="266"/>
      <point x="380" y="304"/>
      <point x="368" y="329" type="curve" smooth="yes"/>
      <point x="345" y="377"/>
      <point x="281" y="520"/>
      <point x="257" y="570" type="curve" smooth="yes"/>
      <point x="233" y="621"/>
      <point x="203" y="688"/>
      <point x="195" y="704" type="curve" smooth="yes"/>
      <point x="187" y="719"/>
      <point x="175" y="724"/>
      <point x="146" y="724" type="curve" smooth="yes"/>
      <point x="118" y="724"/>
      <point x="157" y="723"/>
      <point x="141" y="723" type="curve" smooth="yes"/>
      <point x="135" y="723"/>
      <point x="125" y="725"/>
      <point x="115" y="725" type="curve" smooth="yes"/>
      <point x="102" y="725"/>
      <point x="89" y="721"/>
      <point x="87" y="698" type="curve" smooth="yes"/>
      <point x="84" y="659"/>
      <point x="84" y="620"/>
      <point x="84" y="580" type="curve" smooth="yes"/>
      <point x="84" y="540"/>
      <point x="89" y="370"/>
      <point x="86" y="322" type="curve"/>
      <point x="81" y="277"/>
      <point x="79" y="158"/>
      <point x="79" y="101" type="curve"/>
      <point x="78" y="84"/>
      <point x="78" y="71"/>
      <point x="78" y="60" type="curve" smooth="yes"/>
      <point x="78" y="35"/>
      <point x="80" y="25"/>
      <point x="82" y="16" type="curve" smooth="yes"/>
      <point x="85" y="4"/>
      <point x="83" y="-9"/>
    </contour>
    <contour>
      <point x="799" y="169" type="curve" smooth="yes"/>
      <point x="830" y="169"/>
      <point x="860" y="171"/>
      <point x="891" y="171" type="curve" smooth="yes"/>
      <point x="934" y="171"/>
      <point x="942" y="175"/>
      <point x="942" y="188" type="curve" smooth="yes"/>
      <point x="942" y="226" type="line" smooth="yes"/>
      <point x="942" y="239"/>
      <point x="934" y="246"/>
      <point x="900" y="246" type="curve" smooth="yes"/>
      <point x="856" y="246"/>
      <point x="812" y="244"/>
      <point x="768" y="244" type="curve" smooth="yes"/>
      <point x="722" y="244"/>
      <point x="677" y="246"/>
      <point x="631" y="246" type="curve" smooth="yes"/>
      <point x="610" y="246"/>
      <point x="605" y="238"/>
      <point x="605" y="222" type="curve" smooth="yes"/>
      <point x="604" y="188" type="line" smooth="yes"/>
      <point x="604" y="179"/>
      <point x="608" y="171"/>
      <point x="623" y="171" type="curve" smooth="yes"/>
      <point x="639" y="171"/>
      <point x="681" y="171"/>
      <point x="703" y="171" type="curve" smooth="yes"/>
      <point x="730" y="171"/>
      <point x="778" y="169"/>
    </contour>
    <contour>
      <point x="757" y="400" type="curve" smooth="yes"/>
      <point x="708" y="400"/>
      <point x="682" y="437"/>
      <point x="682" y="510" type="curve" smooth="yes"/>
      <point x="682" y="587"/>
      <point x="691" y="647"/>
      <point x="765" y="647" type="curve" smooth="yes"/>
      <point x="816" y="647"/>
      <point x="842" y="604"/>
      <point x="842" y="521" type="curve" smooth="yes"/>
      <point x="842" y="451"/>
      <point x="821" y="400"/>
    </contour>
    <contour>
      <point x="774" y="305" type="curve" smooth="yes"/>
      <point x="827" y="305"/>
      <point x="866" y="327"/>
      <point x="890" y="370" type="curve" smooth="yes"/>
      <point x="916" y="405"/>
      <point x="929" y="454"/>
      <point x="929" y="516" type="curve" smooth="yes"/>
      <point x="929" y="591"/>
      <point x="913" y="642"/>
      <point x="882" y="677" type="curve" smooth="yes"/>
      <point x="853" y="710"/>
      <point x="818" y="731"/>
      <point x="770" y="731" type="curve" smooth="yes"/>
      <point x="712" y="731"/>
      <point x="669" y="713"/>
      <point x="642" y="668" type="curve" smooth="yes"/>
      <point x="619" y="630"/>
      <point x="609" y="584"/>
      <point x="609" y="525" type="curve" smooth="yes"/>
      <point x="609" y="449"/>
      <point x="627" y="391"/>
      <point x="663" y="355" type="curve" smooth="yes"/>
      <point x="690" y="322"/>
      <point x="727" y="305"/>
    </contour>
  </outline>
</glyph>
<glyph name="northWestArrow" format="1">
  <advance width="610"/>
  <unicode hex="2196"/>
  <outline>
    <contour>
      <point x="428" y="101" type="curve"/>
      <point x="429" y="101"/>
      <point x="466" y="104"/>
      <point x="466" y="103" type="curve"/>
      <point x="490" y="125"/>
      <point x="549" y="177"/>
      <point x="566" y="204" type="curve" smooth="yes"/>
      <point x="571" y="212"/>
      <point x="567" y="220"/>
      <point x="561" y="227" type="curve"/>
      <point x="487" y="305"/>
      <point x="440" y="340"/>
      <point x="363" y="411" type="curve"/>
      <point x="385" y="433"/>
      <point x="392" y="447"/>
      <point x="445" y="500" type="curve" smooth="yes"/>
      <point x="453" y="508"/>
      <point x="462" y="568"/>
      <point x="444" y="568" type="curve" smooth="yes"/>
      <point x="419" y="568"/>
      <point x="386" y="575"/>
      <point x="370" y="575" type="curve"/>
      <point x="319" y="580"/>
      <point x="303" y="579"/>
      <point x="247" y="584" type="curve" smooth="yes"/>
      <point x="212" y="587"/>
      <point x="197" y="586"/>
      <point x="156" y="590" type="curve"/>
      <point x="141" y="590"/>
      <point x="90" y="599"/>
      <point x="77" y="597" type="curve"/>
      <point x="63" y="598"/>
      <point x="41" y="564"/>
      <point x="41" y="549" type="curve"/>
      <point x="41" y="527"/>
      <point x="47" y="525"/>
      <point x="48" y="502" type="curve" smooth="yes"/>
      <point x="49" y="472"/>
      <point x="54" y="452"/>
      <point x="55" y="431" type="curve"/>
      <point x="60" y="405"/>
      <point x="55" y="383"/>
      <point x="61" y="347" type="curve"/>
      <point x="62" y="324"/>
      <point x="59" y="314"/>
      <point x="64" y="296" type="curve"/>
      <point x="69" y="265"/>
      <point x="69" y="242"/>
      <point x="71" y="242" type="curve"/>
      <point x="73" y="225"/>
      <point x="76" y="192"/>
      <point x="78" y="192" type="curve"/>
      <point x="100" y="182"/>
      <point x="121" y="169"/>
      <point x="133" y="181" type="curve"/>
      <point x="138" y="182"/>
      <point x="153" y="196"/>
      <point x="155" y="199" type="curve"/>
      <point x="179" y="230"/>
      <point x="218" y="259"/>
      <point x="240" y="281" type="curve"/>
      <point x="259" y="267"/>
      <point x="279" y="247"/>
      <point x="297" y="229" type="curve"/>
      <point x="337" y="190"/>
      <point x="395" y="147"/>
    </contour>
    <contour>
      <point x="470" y="143" type="curve"/>
      <point x="435" y="178"/>
      <point x="365" y="243"/>
      <point x="319" y="287" type="curve"/>
      <point x="288" y="314"/>
      <point x="278" y="327"/>
      <point x="262" y="340" type="curve" smooth="yes"/>
      <point x="255" y="346"/>
      <point x="246" y="352"/>
      <point x="241" y="346" type="curve" smooth="yes"/>
      <point x="213" y="313"/>
      <point x="203" y="306"/>
      <point x="170" y="272" type="curve"/>
      <point x="166" y="267"/>
      <point x="136" y="238"/>
      <point x="131" y="241" type="curve"/>
      <point x="126" y="265"/>
      <point x="127" y="282"/>
      <point x="125" y="300" type="curve"/>
      <point x="120" y="338" type="line"/>
      <point x="114" y="390" type="line"/>
      <point x="116" y="414"/>
      <point x="112" y="434"/>
      <point x="111" y="456" type="curve"/>
      <point x="110" y="482"/>
      <point x="104" y="495"/>
      <point x="100" y="519" type="curve" smooth="yes"/>
      <point x="94" y="557"/>
      <point x="92" y="571"/>
      <point x="94" y="557" type="curve"/>
      <point x="93" y="559"/>
      <point x="92" y="573"/>
      <point x="107" y="571" type="curve" smooth="yes"/>
      <point x="125" y="569"/>
      <point x="140" y="567"/>
      <point x="163" y="567" type="curve"/>
      <point x="194" y="562"/>
      <point x="208" y="558"/>
      <point x="252" y="557" type="curve" smooth="yes"/>
      <point x="292" y="556"/>
      <point x="321" y="555"/>
      <point x="367" y="549" type="curve"/>
      <point x="381" y="548"/>
      <point x="399" y="549"/>
      <point x="424" y="544" type="curve"/>
      <point x="418" y="527"/>
      <point x="357" y="463"/>
      <point x="329" y="436" type="curve"/>
      <point x="323" y="429"/>
      <point x="314" y="428"/>
      <point x="334" y="408" type="curve" smooth="yes"/>
      <point x="418" y="324"/>
      <point x="442" y="313"/>
      <point x="500" y="258" type="curve"/>
      <point x="506" y="252"/>
      <point x="540" y="222"/>
      <point x="541" y="218" type="curve"/>
      <point x="531" y="200"/>
      <point x="504" y="170"/>
      <point x="478" y="147" type="curve"/>
      <point x="478" y="147"/>
      <point x="470" y="143"/>
    </contour>
  </outline>
</glyph>
<glyph name="northEastArrow" format="1">
  <advance width="610"/>
  <unicode hex="2197"/>
  <outline>
    <contour>
      <point x="157" y="99" type="curve"/>
      <point x="173" y="107"/>
      <point x="181" y="109"/>
      <point x="189" y="114" type="curve"/>
      <point x="222" y="151"/>
      <point x="272" y="190"/>
      <point x="312" y="229" type="curve"/>
      <point x="330" y="247"/>
      <point x="350" y="267"/>
      <point x="369" y="281" type="curve"/>
      <point x="391" y="259"/>
      <point x="430" y="230"/>
      <point x="454" y="199" type="curve"/>
      <point x="456" y="196"/>
      <point x="471" y="182"/>
      <point x="476" y="181" type="curve"/>
      <point x="488" y="169"/>
      <point x="509" y="182"/>
      <point x="531" y="192" type="curve"/>
      <point x="533" y="192"/>
      <point x="536" y="225"/>
      <point x="538" y="242" type="curve"/>
      <point x="540" y="242"/>
      <point x="540" y="265"/>
      <point x="545" y="296" type="curve"/>
      <point x="550" y="314"/>
      <point x="547" y="324"/>
      <point x="548" y="347" type="curve"/>
      <point x="554" y="383"/>
      <point x="549" y="405"/>
      <point x="554" y="431" type="curve"/>
      <point x="555" y="452"/>
      <point x="560" y="472"/>
      <point x="561" y="502" type="curve" smooth="yes"/>
      <point x="562" y="525"/>
      <point x="568" y="549"/>
      <point x="568" y="571" type="curve"/>
      <point x="569" y="601"/>
      <point x="558" y="599"/>
      <point x="532" y="597" type="curve"/>
      <point x="519" y="599"/>
      <point x="468" y="590"/>
      <point x="453" y="590" type="curve"/>
      <point x="412" y="586"/>
      <point x="397" y="587"/>
      <point x="362" y="584" type="curve" smooth="yes"/>
      <point x="306" y="579"/>
      <point x="290" y="580"/>
      <point x="239" y="575" type="curve"/>
      <point x="223" y="575"/>
      <point x="191" y="568"/>
      <point x="165" y="568" type="curve" smooth="yes"/>
      <point x="161" y="568"/>
      <point x="137" y="523"/>
      <point x="145" y="515" type="curve" smooth="yes"/>
      <point x="198" y="462"/>
      <point x="224" y="433"/>
      <point x="246" y="411" type="curve"/>
      <point x="169" y="340"/>
      <point x="132" y="314"/>
      <point x="58" y="236" type="curve"/>
      <point x="52" y="229"/>
      <point x="53" y="196"/>
      <point x="58" y="188" type="curve" smooth="yes"/>
      <point x="75" y="161"/>
      <point x="133" y="121"/>
    </contour>
    <contour>
      <point x="165" y="150" type="curve"/>
      <point x="165" y="150"/>
      <point x="157" y="154"/>
      <point x="157" y="154" type="curve"/>
      <point x="131" y="177"/>
      <point x="95" y="217"/>
      <point x="85" y="235" type="curve"/>
      <point x="86" y="239"/>
      <point x="116" y="265"/>
      <point x="122" y="271" type="curve"/>
      <point x="180" y="326"/>
      <point x="204" y="337"/>
      <point x="288" y="421" type="curve" smooth="yes"/>
      <point x="308" y="441"/>
      <point x="299" y="442"/>
      <point x="293" y="449" type="curve"/>
      <point x="265" y="476"/>
      <point x="213" y="522"/>
      <point x="207" y="539" type="curve"/>
      <point x="232" y="544"/>
      <point x="250" y="543"/>
      <point x="264" y="544" type="curve"/>
      <point x="310" y="550"/>
      <point x="339" y="553"/>
      <point x="379" y="554" type="curve" smooth="yes"/>
      <point x="423" y="555"/>
      <point x="437" y="562"/>
      <point x="468" y="567" type="curve"/>
      <point x="491" y="567"/>
      <point x="506" y="571"/>
      <point x="524" y="573" type="curve" smooth="yes"/>
      <point x="539" y="575"/>
      <point x="538" y="562"/>
      <point x="537" y="560" type="curve"/>
      <point x="539" y="574"/>
      <point x="537" y="560"/>
      <point x="531" y="522" type="curve" smooth="yes"/>
      <point x="527" y="498"/>
      <point x="521" y="485"/>
      <point x="520" y="459" type="curve"/>
      <point x="519" y="437"/>
      <point x="515" y="417"/>
      <point x="517" y="393" type="curve"/>
      <point x="511" y="341" type="line"/>
      <point x="506" y="303" type="line"/>
      <point x="504" y="285"/>
      <point x="505" y="268"/>
      <point x="500" y="244" type="curve"/>
      <point x="495" y="241"/>
      <point x="465" y="270"/>
      <point x="461" y="275" type="curve"/>
      <point x="428" y="309"/>
      <point x="418" y="316"/>
      <point x="390" y="349" type="curve" smooth="yes"/>
      <point x="385" y="355"/>
      <point x="376" y="349"/>
      <point x="369" y="343" type="curve" smooth="yes"/>
      <point x="353" y="330"/>
      <point x="343" y="317"/>
      <point x="312" y="290" type="curve"/>
      <point x="266" y="246"/>
      <point x="200" y="185"/>
    </contour>
  </outline>
</glyph>
<glyph name="integral" format="1">
  <advance width="436"/>
  <unicode hex="222B"/>
  <outline>
    <contour>
      <point x="140" y="-119" type="curve" smooth="yes"/>
      <point x="283" y="-119"/>
      <point x="253" y="63"/>
      <point x="256" y="87" type="curve"/>
      <point x="256" y="99"/>
      <point x="257" y="136"/>
      <point x="257" y="173" type="curve" smooth="yes"/>
      <point x="257" y="198"/>
      <point x="257" y="212"/>
      <point x="256" y="232" type="curve" smooth="yes"/>
      <point x="255" y="242"/>
      <point x="256" y="262"/>
      <point x="257" y="291" type="curve" smooth="yes"/>
      <point x="258" y="309"/>
      <point x="259" y="324"/>
      <point x="259" y="337" type="curve" smooth="yes"/>
      <point x="259" y="364"/>
      <point x="257" y="382"/>
      <point x="257" y="393" type="curve" smooth="yes"/>
      <point x="257" y="410"/>
      <point x="257" y="427"/>
      <point x="256" y="436" type="curve"/>
      <point x="256" y="455"/>
      <point x="258" y="561"/>
      <point x="258" y="585" type="curve" smooth="yes"/>
      <point x="258" y="607"/>
      <point x="252" y="652"/>
      <point x="299" y="656" type="curve"/>
      <point x="316" y="656"/>
      <point x="324" y="649"/>
      <point x="329" y="633" type="curve" smooth="yes"/>
      <point x="334" y="618"/>
      <point x="337" y="600"/>
      <point x="337" y="545" type="curve" smooth="yes"/>
      <point x="337" y="535"/>
      <point x="335" y="517"/>
      <point x="344" y="517" type="curve" smooth="yes"/>
      <point x="345" y="517"/>
      <point x="346" y="517"/>
      <point x="347" y="517" type="curve" smooth="yes"/>
      <point x="391" y="517"/>
      <point x="393" y="518"/>
      <point x="401" y="518" type="curve" smooth="yes"/>
      <point x="408" y="518"/>
      <point x="410" y="519"/>
      <point x="410" y="528" type="curve" smooth="yes"/>
      <point x="410" y="539"/>
      <point x="411" y="576"/>
      <point x="411" y="598" type="curve"/>
      <point x="408" y="649"/>
      <point x="395" y="668"/>
      <point x="379" y="687" type="curve" smooth="yes"/>
      <point x="363" y="707"/>
      <point x="339" y="715"/>
      <point x="296" y="715" type="curve" smooth="yes"/>
      <point x="153" y="715"/>
      <point x="183" y="533"/>
      <point x="180" y="509" type="curve"/>
      <point x="180" y="497"/>
      <point x="179" y="460"/>
      <point x="179" y="423" type="curve" smooth="yes"/>
      <point x="179" y="396"/>
      <point x="180" y="379"/>
      <point x="180" y="351" type="curve" smooth="yes"/>
      <point x="180" y="338"/>
      <point x="180" y="322"/>
      <point x="179" y="301" type="curve" smooth="yes"/>
      <point x="177" y="258"/>
      <point x="176" y="233"/>
      <point x="177" y="226" type="curve" smooth="yes"/>
      <point x="178" y="219"/>
      <point x="179" y="211"/>
      <point x="179" y="202" type="curve" smooth="yes"/>
      <point x="179" y="186"/>
      <point x="179" y="169"/>
      <point x="180" y="160" type="curve"/>
      <point x="180" y="141"/>
      <point x="178" y="35"/>
      <point x="178" y="11" type="curve" smooth="yes"/>
      <point x="178" y="-5"/>
      <point x="181" y="-26"/>
      <point x="143" y="-30" type="curve"/>
      <point x="120" y="-30"/>
      <point x="115" y="-22"/>
      <point x="112" y="-9" type="curve"/>
      <point x="111" y="4"/>
      <point x="109" y="15"/>
      <point x="109" y="51" type="curve" smooth="yes"/>
      <point x="109" y="61"/>
      <point x="111" y="79"/>
      <point x="102" y="79" type="curve" smooth="yes"/>
      <point x="101" y="79"/>
      <point x="100" y="79"/>
      <point x="99" y="79" type="curve" smooth="yes"/>
      <point x="70" y="79"/>
      <point x="53" y="79"/>
      <point x="48" y="78" type="curve"/>
      <point x="35" y="78" type="line" smooth="yes"/>
      <point x="28" y="78"/>
      <point x="26" y="77"/>
      <point x="26" y="68" type="curve" smooth="yes"/>
      <point x="26" y="57"/>
      <point x="25" y="20"/>
      <point x="25" y="-2" type="curve"/>
      <point x="28" y="-53"/>
      <point x="41" y="-72"/>
      <point x="57" y="-91" type="curve" smooth="yes"/>
      <point x="73" y="-111"/>
      <point x="97" y="-119"/>
    </contour>
  </outline>
</glyph>
<glyph name="approxequal" format="1">
  <advance width="500"/>
  <unicode hex="2248"/>
  <outline>
    <contour>
      <point x="115" y="163" type="curve"/>
      <point x="163" y="163"/>
      <point x="183" y="170"/>
      <point x="226" y="173" type="curve" smooth="yes"/>
      <point x="270" y="177"/>
      <point x="300" y="186"/>
      <point x="357" y="190" type="curve"/>
      <point x="387" y="190"/>
      <point x="416" y="163"/>
      <point x="439" y="163" type="curve" smooth="yes"/>
      <point x="458" y="163"/>
      <point x="468" y="170"/>
      <point x="468" y="184" type="curve"/>
      <point x="468" y="215" type="line" smooth="yes"/>
      <point x="468" y="219"/>
      <point x="470" y="237"/>
      <point x="461" y="241" type="curve"/>
      <point x="457" y="244"/>
      <point x="447" y="249"/>
      <point x="430" y="257" type="curve"/>
      <point x="408" y="262"/>
      <point x="382" y="265"/>
      <point x="352" y="265" type="curve" smooth="yes"/>
      <point x="288" y="265"/>
      <point x="239" y="261"/>
      <point x="204" y="253" type="curve" smooth="yes"/>
      <point x="169" y="246"/>
      <point x="150" y="242"/>
      <point x="115" y="242" type="curve"/>
      <point x="98" y="243"/>
      <point x="83" y="249"/>
      <point x="71" y="258" type="curve" smooth="yes"/>
      <point x="60" y="267"/>
      <point x="52" y="271"/>
      <point x="47" y="271" type="curve" smooth="yes"/>
      <point x="46" y="271"/>
      <point x="45" y="271"/>
      <point x="45" y="271" type="curve"/>
      <point x="40" y="270"/>
      <point x="36" y="267"/>
      <point x="35" y="264" type="curve" smooth="yes"/>
      <point x="32" y="248"/>
      <point x="33" y="216"/>
      <point x="33" y="204" type="curve"/>
      <point x="32" y="193"/>
      <point x="37" y="171"/>
    </contour>
    <contour>
      <point x="449" y="370" type="curve" smooth="yes"/>
      <point x="459" y="371"/>
      <point x="465" y="373"/>
      <point x="466" y="376" type="curve" smooth="yes"/>
      <point x="469" y="392"/>
      <point x="468" y="424"/>
      <point x="468" y="436" type="curve"/>
      <point x="469" y="447"/>
      <point x="464" y="469"/>
      <point x="386" y="477" type="curve"/>
      <point x="338" y="477"/>
      <point x="318" y="470"/>
      <point x="274" y="466" type="curve" smooth="yes"/>
      <point x="231" y="463"/>
      <point x="201" y="454"/>
      <point x="144" y="450" type="curve"/>
      <point x="114" y="450"/>
      <point x="85" y="477"/>
      <point x="62" y="477" type="curve" smooth="yes"/>
      <point x="43" y="477"/>
      <point x="33" y="470"/>
      <point x="33" y="456" type="curve"/>
      <point x="33" y="425" type="line" smooth="yes"/>
      <point x="33" y="421"/>
      <point x="31" y="403"/>
      <point x="39" y="398" type="curve"/>
      <point x="71" y="383" type="line"/>
      <point x="93" y="378"/>
      <point x="119" y="375"/>
      <point x="149" y="375" type="curve" smooth="yes"/>
      <point x="213" y="375"/>
      <point x="263" y="380"/>
      <point x="295" y="385" type="curve"/>
      <point x="320" y="390"/>
      <point x="336" y="394"/>
      <point x="359" y="394" type="curve" smooth="yes"/>
      <point x="366" y="394"/>
      <point x="374" y="394"/>
      <point x="383" y="393" type="curve" smooth="yes"/>
      <point x="402" y="391"/>
      <point x="415" y="387"/>
      <point x="423" y="380" type="curve" smooth="yes"/>
      <point x="431" y="373"/>
      <point x="440" y="370"/>
    </contour>
  </outline>
</glyph>
<glyph name="Black_Up_Pointing_Triangle" format="1">
  <advance width="683"/>
  <unicode hex="25B2"/>
  <outline>
    <contour>
      <point x="642" y="108" type="curve"/>
      <point x="647" y="118"/>
      <point x="649" y="119"/>
      <point x="649" y="134" type="curve"/>
      <point x="609" y="222"/>
      <point x="516" y="347"/>
      <point x="474" y="435" type="curve" smooth="yes"/>
      <point x="434" y="518"/>
      <point x="400" y="574"/>
      <point x="367" y="603" type="curve"/>
      <point x="359" y="606"/>
      <point x="349" y="614"/>
      <point x="339" y="615" type="curve"/>
      <point x="305" y="582"/>
      <point x="216" y="438"/>
      <point x="174" y="358" type="curve" smooth="yes"/>
      <point x="156" y="324"/>
      <point x="8" y="158"/>
      <point x="36" y="126" type="curve"/>
      <point x="72" y="96"/>
      <point x="280" y="110"/>
      <point x="337" y="110" type="curve"/>
      <point x="417" y="111"/>
      <point x="565" y="79"/>
    </contour>
  </outline>
</glyph>
<glyph name="White_Right-Pointing_Triangle" format="1">
  <advance width="605"/>
  <unicode hex="25B7"/>
  <outline>
    <contour>
      <point x="103" y="50" type="curve"/>
      <point x="151" y="65"/>
      <point x="203" y="106"/>
      <point x="243" y="131" type="curve" smooth="yes"/>
      <point x="300" y="167"/>
      <point x="365" y="201"/>
      <point x="419" y="233" type="curve" smooth="yes"/>
      <point x="433" y="242"/>
      <point x="493" y="269"/>
      <point x="504" y="282" type="curve"/>
      <point x="517" y="291"/>
      <point x="538" y="300"/>
      <point x="552" y="307" type="curve"/>
      <point x="563" y="322"/>
      <point x="575" y="346"/>
      <point x="565" y="365" type="curve"/>
      <point x="479" y="435"/>
      <point x="252" y="592"/>
      <point x="141" y="651" type="curve"/>
      <point x="114" y="663"/>
      <point x="103" y="659"/>
      <point x="88" y="651" type="curve"/>
      <point x="75" y="571"/>
      <point x="76" y="431"/>
      <point x="74" y="340" type="curve"/>
      <point x="73" y="302"/>
      <point x="49" y="34"/>
    </contour>
    <contour>
      <point x="157" y="126" type="curve"/>
      <point x="116" y="114"/>
      <point x="134" y="315"/>
      <point x="135" y="343" type="curve"/>
      <point x="136" y="412"/>
      <point x="136" y="517"/>
      <point x="145" y="577" type="curve"/>
      <point x="157" y="583"/>
      <point x="165" y="586"/>
      <point x="185" y="577" type="curve"/>
      <point x="268" y="533"/>
      <point x="439" y="415"/>
      <point x="504" y="362" type="curve"/>
      <point x="511" y="348"/>
      <point x="502" y="330"/>
      <point x="494" y="319" type="curve"/>
      <point x="483" y="313"/>
      <point x="468" y="307"/>
      <point x="458" y="300" type="curve"/>
      <point x="450" y="290"/>
      <point x="405" y="269"/>
      <point x="394" y="263" type="curve" smooth="yes"/>
      <point x="352" y="240"/>
      <point x="306" y="212"/>
      <point x="262" y="186" type="curve" smooth="yes"/>
      <point x="232" y="168"/>
      <point x="193" y="137"/>
    </contour>
  </outline>
</glyph>
<glyph name="Black_Right_Pointing_Small" format="1">
  <advance width="412"/>
  <unicode hex="25B8"/>
  <outline>
    <contour>
      <point x="66" y="145" type="curve"/>
      <point x="126" y="172"/>
      <point x="212" y="235"/>
      <point x="272" y="264" type="curve" smooth="yes"/>
      <point x="328" y="291"/>
      <point x="366" y="315"/>
      <point x="386" y="337" type="curve"/>
      <point x="388" y="343"/>
      <point x="394" y="350"/>
      <point x="394" y="356" type="curve"/>
      <point x="372" y="380"/>
      <point x="275" y="440"/>
      <point x="219" y="469" type="curve" smooth="yes"/>
      <point x="196" y="481"/>
      <point x="82" y="582"/>
      <point x="60" y="563" type="curve"/>
      <point x="40" y="539"/>
      <point x="50" y="397"/>
      <point x="50" y="358" type="curve"/>
      <point x="50" y="303"/>
      <point x="28" y="202"/>
      <point x="48" y="149" type="curve"/>
      <point x="55" y="146"/>
      <point x="56" y="145"/>
    </contour>
  </outline>
</glyph>
<glyph name="Black_Right_Pointing_Pointer" format="1">
  <advance width="600"/>
  <unicode hex="25BA"/>
  <outline>
    <contour>
      <point x="109" y="41" type="curve"/>
      <point x="423" y="229"/>
      <point x="455" y="236"/>
      <point x="559" y="332" type="curve"/>
      <point x="565" y="337"/>
      <point x="566" y="345"/>
      <point x="561" y="351" type="curve"/>
      <point x="508" y="405"/>
      <point x="441" y="449"/>
      <point x="359" y="503" type="curve" smooth="yes"/>
      <point x="297" y="544"/>
      <point x="256" y="561"/>
      <point x="208" y="600" type="curve"/>
      <point x="179" y="623"/>
      <point x="124" y="672"/>
      <point x="96" y="658" type="curve"/>
      <point x="67" y="643"/>
      <point x="70" y="383"/>
      <point x="74" y="343" type="curve"/>
      <point x="85" y="236"/>
      <point x="63" y="153"/>
      <point x="69" y="57" type="curve"/>
      <point x="70" y="47"/>
      <point x="98" y="41"/>
    </contour>
  </outline>
</glyph>
<glyph name="Black_Down_Pointing_Triangle" format="1">
  <advance width="683"/>
  <unicode hex="25BC"/>
  <outline>
    <contour>
      <point x="337" y="108" type="curve"/>
      <point x="343" y="109"/>
      <point x="350" y="106"/>
      <point x="355" y="109" type="curve"/>
      <point x="403" y="149"/>
      <point x="448" y="224"/>
      <point x="479" y="282" type="curve"/>
      <point x="500" y="321"/>
      <point x="551" y="411"/>
      <point x="574" y="443" type="curve"/>
      <point x="591" y="472"/>
      <point x="644" y="563"/>
      <point x="644" y="582" type="curve"/>
      <point x="639" y="596"/>
      <point x="633" y="608"/>
      <point x="624" y="614" type="curve"/>
      <point x="541" y="622"/>
      <point x="418" y="605"/>
      <point x="335" y="601" type="curve"/>
      <point x="289" y="599"/>
      <point x="212" y="610"/>
      <point x="166" y="604" type="curve"/>
      <point x="148" y="602"/>
      <point x="60" y="606"/>
      <point x="45" y="601" type="curve"/>
      <point x="38" y="597"/>
      <point x="30" y="584"/>
      <point x="33" y="570" type="curve"/>
      <point x="46" y="551"/>
      <point x="64" y="527"/>
      <point x="71" y="503" type="curve"/>
      <point x="91" y="474"/>
      <point x="163" y="370"/>
      <point x="173" y="354" type="curve" smooth="yes"/>
      <point x="175" y="351"/>
      <point x="271" y="203"/>
      <point x="274" y="198" type="curve"/>
      <point x="285" y="178"/>
      <point x="322" y="109"/>
    </contour>
  </outline>
</glyph>
<glyph name="Black_Left-Pointing_Triangle" format="1">
  <advance width="600"/>
  <unicode hex="25C0"/>
  <outline>
    <contour>
      <point x="483" y="57" type="curve"/>
      <point x="510" y="45"/>
      <point x="521" y="49"/>
      <point x="536" y="57" type="curve"/>
      <point x="549" y="137"/>
      <point x="548" y="277"/>
      <point x="550" y="368" type="curve"/>
      <point x="551" y="406"/>
      <point x="575" y="674"/>
      <point x="521" y="658" type="curve"/>
      <point x="473" y="643"/>
      <point x="421" y="602"/>
      <point x="381" y="577" type="curve" smooth="yes"/>
      <point x="324" y="541"/>
      <point x="259" y="507"/>
      <point x="205" y="475" type="curve" smooth="yes"/>
      <point x="191" y="466"/>
      <point x="131" y="439"/>
      <point x="120" y="426" type="curve"/>
      <point x="107" y="417"/>
      <point x="86" y="408"/>
      <point x="72" y="401" type="curve"/>
      <point x="61" y="386"/>
      <point x="49" y="362"/>
      <point x="59" y="343" type="curve"/>
      <point x="145" y="273"/>
      <point x="372" y="116"/>
    </contour>
  </outline>
</glyph>
<glyph name="White_Left_Pointing_Triangle" format="1">
  <advance width="596"/>
  <unicode hex="25C1"/>
  <outline>
    <contour>
      <point x="524" y="44" type="curve"/>
      <point x="553" y="59"/>
      <point x="550" y="319"/>
      <point x="546" y="359" type="curve"/>
      <point x="535" y="466"/>
      <point x="557" y="549"/>
      <point x="551" y="645" type="curve"/>
      <point x="550" y="655"/>
      <point x="522" y="661"/>
      <point x="511" y="661" type="curve"/>
      <point x="197" y="473"/>
      <point x="165" y="466"/>
      <point x="61" y="370" type="curve"/>
      <point x="55" y="365"/>
      <point x="54" y="357"/>
      <point x="59" y="351" type="curve"/>
      <point x="112" y="297"/>
      <point x="179" y="253"/>
      <point x="261" y="199" type="curve" smooth="yes"/>
      <point x="323" y="158"/>
      <point x="364" y="141"/>
      <point x="412" y="102" type="curve"/>
      <point x="441" y="79"/>
      <point x="496" y="30"/>
    </contour>
    <contour>
      <point x="499" y="120" type="curve"/>
      <point x="479" y="110"/>
      <point x="437" y="146"/>
      <point x="415" y="164" type="curve"/>
      <point x="379" y="193"/>
      <point x="348" y="205"/>
      <point x="301" y="236" type="curve" smooth="yes"/>
      <point x="240" y="276"/>
      <point x="189" y="310"/>
      <point x="150" y="351" type="curve"/>
      <point x="146" y="356"/>
      <point x="147" y="362"/>
      <point x="151" y="366" type="curve"/>
      <point x="229" y="437"/>
      <point x="254" y="443"/>
      <point x="489" y="584" type="curve"/>
      <point x="498" y="584"/>
      <point x="519" y="579"/>
      <point x="519" y="572" type="curve"/>
      <point x="524" y="500"/>
      <point x="508" y="437"/>
      <point x="516" y="357" type="curve"/>
      <point x="519" y="327"/>
      <point x="521" y="132"/>
    </contour>
  </outline>
</glyph>
<glyph name="leftanglebracket_math" format="1">
  <advance width="369"/>
  <unicode hex="27E8"/>
  <outline>
    <contour>
      <point x="259" y="-13" type="curve"/>
      <point x="264" y="-13" type="line"/>
      <point x="291" y="-12"/>
      <point x="289" y="-12"/>
      <point x="296" y="-12" type="curve" smooth="yes"/>
      <point x="310" y="-12"/>
      <point x="328" y="-11"/>
      <point x="334" y="-11" type="curve" smooth="yes"/>
      <point x="345" y="-11"/>
      <point x="349" y="-8"/>
      <point x="349" y="-4" type="curve" smooth="yes"/>
      <point x="349" y="1"/>
      <point x="345" y="9"/>
      <point x="334" y="19" type="curve"/>
      <point x="329" y="26"/>
      <point x="309" y="51"/>
      <point x="287" y="83" type="curve" smooth="yes"/>
      <point x="272" y="105"/>
      <point x="260" y="129"/>
      <point x="239" y="152" type="curve" smooth="yes"/>
      <point x="217" y="177"/>
      <point x="202" y="201"/>
      <point x="187" y="220" type="curve" smooth="yes"/>
      <point x="170" y="240"/>
      <point x="154" y="255"/>
      <point x="140" y="276" type="curve" smooth="yes"/>
      <point x="120" y="306"/>
      <point x="104" y="321"/>
      <point x="104" y="344" type="curve" smooth="yes"/>
      <point x="104" y="368"/>
      <point x="123" y="384"/>
      <point x="149" y="427" type="curve" smooth="yes"/>
      <point x="181" y="480"/>
      <point x="204" y="508"/>
      <point x="229" y="542" type="curve" smooth="yes"/>
      <point x="256" y="578"/>
      <point x="273" y="618"/>
      <point x="281" y="632" type="curve" smooth="yes"/>
      <point x="294" y="654"/>
      <point x="303" y="677"/>
      <point x="303" y="688" type="curve" smooth="yes"/>
      <point x="303" y="696"/>
      <point x="277" y="700"/>
      <point x="235" y="700" type="curve" smooth="yes"/>
      <point x="215" y="700"/>
      <point x="207" y="696"/>
      <point x="191" y="663" type="curve" smooth="yes"/>
      <point x="183" y="647"/>
      <point x="154" y="607"/>
      <point x="143" y="579" type="curve" smooth="yes"/>
      <point x="137" y="564"/>
      <point x="116" y="526"/>
      <point x="77" y="462" type="curve" smooth="yes"/>
      <point x="39" y="399"/>
      <point x="20" y="368"/>
      <point x="20" y="338" type="curve" smooth="yes"/>
      <point x="20" y="322"/>
      <point x="41" y="281"/>
      <point x="66" y="252" type="curve" smooth="yes"/>
      <point x="90" y="224"/>
      <point x="125" y="170"/>
      <point x="129" y="162" type="curve" smooth="yes"/>
      <point x="137" y="146"/>
      <point x="155" y="117"/>
      <point x="175" y="91" type="curve" smooth="yes"/>
      <point x="195" y="65"/>
      <point x="212" y="49"/>
      <point x="223" y="39" type="curve" smooth="yes"/>
      <point x="237" y="17"/>
      <point x="244" y="-13"/>
    </contour>
  </outline>
</glyph>
<glyph name="rightanglebracket_math" format="1">
  <advance width="369"/>
  <unicode hex="27E9"/>
  <outline>
    <contour>
      <point x="134" y="-13" type="curve" smooth="yes"/>
      <point x="154" y="-13"/>
      <point x="162" y="-9"/>
      <point x="178" y="24" type="curve" smooth="yes"/>
      <point x="186" y="40"/>
      <point x="183" y="36"/>
      <point x="194" y="64" type="curve" smooth="yes"/>
      <point x="200" y="79"/>
      <point x="253" y="161"/>
      <point x="292" y="225" type="curve" smooth="yes"/>
      <point x="330" y="288"/>
      <point x="349" y="332"/>
      <point x="349" y="362" type="curve" smooth="yes"/>
      <point x="349" y="378"/>
      <point x="328" y="414"/>
      <point x="303" y="443" type="curve" smooth="yes"/>
      <point x="279" y="471"/>
      <point x="244" y="517"/>
      <point x="240" y="525" type="curve" smooth="yes"/>
      <point x="232" y="541"/>
      <point x="211" y="570"/>
      <point x="191" y="596" type="curve" smooth="yes"/>
      <point x="171" y="622"/>
      <point x="149" y="668"/>
      <point x="138" y="678" type="curve" smooth="yes"/>
      <point x="124" y="700"/>
      <point x="125" y="695"/>
      <point x="126" y="695"/>
      <point x="98" y="701"/>
      <point x="84" y="701" type="curve"/>
      <point x="67" y="701"/>
      <point x="51" y="698"/>
      <point x="35" y="698" type="curve" smooth="yes"/>
      <point x="24" y="698"/>
      <point x="20" y="695"/>
      <point x="20" y="691" type="curve" smooth="yes"/>
      <point x="20" y="686"/>
      <point x="24" y="678"/>
      <point x="35" y="668" type="curve"/>
      <point x="40" y="661"/>
      <point x="60" y="644"/>
      <point x="82" y="612" type="curve" smooth="yes"/>
      <point x="97" y="590"/>
      <point x="115" y="558"/>
      <point x="136" y="535" type="curve" smooth="yes"/>
      <point x="158" y="510"/>
      <point x="167" y="486"/>
      <point x="182" y="467" type="curve" smooth="yes"/>
      <point x="199" y="447"/>
      <point x="215" y="432"/>
      <point x="229" y="411" type="curve" smooth="yes"/>
      <point x="249" y="381"/>
      <point x="265" y="347"/>
      <point x="265" y="343" type="curve" smooth="yes"/>
      <point x="265" y="319"/>
      <point x="246" y="303"/>
      <point x="220" y="260" type="curve" smooth="yes"/>
      <point x="188" y="207"/>
      <point x="176" y="179"/>
      <point x="151" y="145" type="curve" smooth="yes"/>
      <point x="124" y="109"/>
      <point x="104" y="69"/>
      <point x="96" y="55" type="curve" smooth="yes"/>
      <point x="83" y="33"/>
      <point x="66" y="10"/>
      <point x="66" y="-1" type="curve" smooth="yes"/>
      <point x="66" y="-9"/>
      <point x="92" y="-13"/>
    </contour>
  </outline>
</glyph>
<glyph name="C.alt" format="1">
  <advance width="564"/>
  <outline>
    <contour>
      <point x="313" y="-15" type="curve" smooth="yes"/>
      <point x="466" y="-15"/>
      <point x="517" y="97"/>
      <point x="535" y="152" type="curve" smooth="yes"/>
      <point x="539" y="165"/>
      <point x="542" y="176"/>
      <point x="543" y="187" type="curve" smooth="yes"/>
      <point x="544" y="192"/>
      <point x="544" y="197"/>
      <point x="544" y="202" type="curve" smooth="yes"/>
      <point x="544" y="214"/>
      <point x="541" y="224"/>
      <point x="530" y="226" type="curve" smooth="yes"/>
      <point x="502" y="231"/>
      <point x="428" y="247"/>
      <point x="414" y="252" type="curve"/>
      <point x="407" y="253"/>
      <point x="398" y="257"/>
      <point x="389" y="257" type="curve" smooth="yes"/>
      <point x="379" y="257"/>
      <point x="369" y="252"/>
      <point x="363" y="233" type="curve" smooth="yes"/>
      <point x="352" y="198"/>
      <point x="339" y="190"/>
      <point x="314" y="190" type="curve" smooth="yes"/>
      <point x="289" y="190"/>
      <point x="247" y="234"/>
      <point x="247" y="377" type="curve" smooth="yes"/>
      <point x="247" y="521"/>
      <point x="276" y="555"/>
      <point x="311" y="555" type="curve" smooth="yes"/>
      <point x="346" y="555"/>
      <point x="363" y="527"/>
      <point x="372" y="518" type="curve" smooth="yes"/>
      <point x="378" y="511"/>
      <point x="383" y="499"/>
      <point x="393" y="499" type="curve" smooth="yes"/>
      <point x="395" y="499"/>
      <point x="398" y="500"/>
      <point x="401" y="502" type="curve" smooth="yes"/>
      <point x="416" y="510"/>
      <point x="468" y="554"/>
      <point x="483" y="564" type="curve" smooth="yes"/>
      <point x="494" y="571"/>
      <point x="505" y="576"/>
      <point x="505" y="586" type="curve" smooth="yes"/>
      <point x="505" y="591"/>
      <point x="502" y="597"/>
      <point x="495" y="606" type="curve" smooth="yes"/>
      <point x="474" y="633"/>
      <point x="436" y="720"/>
      <point x="292" y="720" type="curve" smooth="yes"/>
      <point x="201" y="720"/>
      <point x="42" y="676"/>
      <point x="42" y="373" type="curve" smooth="yes"/>
      <point x="42" y="70"/>
      <point x="208" y="-15"/>
    </contour>
    <contour>
      <point x="290" y="0" type="move" name="bottom"/>
    </contour>
    <contour>
      <point x="300" y="730" type="move" name="top"/>
    </contour>
  </outline>
</glyph>
<glyph name="Ccedilla.alt" format="1">
  <advance width="576"/>
  <outline>
    <contour>
      <point x="277" y="-160" type="curve" smooth="yes"/>
      <point x="322" y="-160"/>
      <point x="329" y="-155"/>
      <point x="340" y="-150" type="curve" smooth="yes"/>
      <point x="345" y="-147"/>
      <point x="350" y="-144"/>
      <point x="355" y="-139" type="curve" smooth="yes"/>
      <point x="366" y="-130"/>
      <point x="385" y="-117"/>
      <point x="386" y="-85" type="curve"/>
      <point x="386" y="-30"/>
      <point x="357" y="-15"/>
      <point x="324" y="-15" type="curve" smooth="yes"/>
      <point x="293" y="-15"/>
      <point x="289" y="-17"/>
      <point x="276" y="-24" type="curve"/>
      <point x="280" y="-9"/>
      <point x="288" y="3"/>
      <point x="302" y="22" type="curve"/>
      <point x="313" y="22" type="line" smooth="yes"/>
      <point x="466" y="22"/>
      <point x="517" y="134"/>
      <point x="535" y="189" type="curve" smooth="yes"/>
      <point x="539" y="202"/>
      <point x="542" y="213"/>
      <point x="543" y="224" type="curve" smooth="yes"/>
      <point x="544" y="229"/>
      <point x="544" y="234"/>
      <point x="544" y="239" type="curve" smooth="yes"/>
      <point x="544" y="251"/>
      <point x="541" y="261"/>
      <point x="530" y="263" type="curve" smooth="yes"/>
      <point x="502" y="268"/>
      <point x="428" y="284"/>
      <point x="414" y="289" type="curve"/>
      <point x="407" y="290"/>
      <point x="398" y="294"/>
      <point x="389" y="294" type="curve" smooth="yes"/>
      <point x="379" y="294"/>
      <point x="369" y="289"/>
      <point x="363" y="270" type="curve" smooth="yes"/>
      <point x="352" y="235"/>
      <point x="339" y="227"/>
      <point x="314" y="227" type="curve" smooth="yes"/>
      <point x="302" y="227"/>
      <point x="284" y="238"/>
      <point x="271" y="267" type="curve" smooth="yes"/>
      <point x="258" y="296"/>
      <point x="247" y="325"/>
      <point x="247" y="397" type="curve" smooth="yes"/>
      <point x="247" y="442"/>
      <point x="254" y="493"/>
      <point x="266" y="520" type="curve" smooth="yes"/>
      <point x="278" y="547"/>
      <point x="294" y="555"/>
      <point x="311" y="555" type="curve" smooth="yes"/>
      <point x="346" y="555"/>
      <point x="363" y="527"/>
      <point x="372" y="518" type="curve" smooth="yes"/>
      <point x="378" y="511"/>
      <point x="383" y="499"/>
      <point x="393" y="499" type="curve" smooth="yes"/>
      <point x="395" y="499"/>
      <point x="398" y="500"/>
      <point x="401" y="502" type="curve" smooth="yes"/>
      <point x="416" y="510"/>
      <point x="468" y="554"/>
      <point x="483" y="564" type="curve" smooth="yes"/>
      <point x="494" y="571"/>
      <point x="505" y="576"/>
      <point x="505" y="586" type="curve" smooth="yes"/>
      <point x="505" y="591"/>
      <point x="502" y="597"/>
      <point x="495" y="606" type="curve" smooth="yes"/>
      <point x="474" y="633"/>
      <point x="436" y="720"/>
      <point x="292" y="720" type="curve" smooth="yes"/>
      <point x="245" y="720"/>
      <point x="186" y="709"/>
      <point x="133" y="660" type="curve"/>
      <point x="82" y="617"/>
      <point x="42" y="508"/>
      <point x="42" y="393" type="curve" smooth="yes"/>
      <point x="42" y="264"/>
      <point x="83" y="162"/>
      <point x="138" y="102" type="curve" smooth="yes"/>
      <point x="175" y="62"/>
      <point x="218" y="40"/>
      <point x="257" y="29" type="curve"/>
      <point x="250" y="10"/>
      <point x="245" y="-5"/>
      <point x="243" y="-18" type="curve"/>
      <point x="239" y="-34"/>
      <point x="236" y="-37"/>
      <point x="236" y="-54" type="curve"/>
      <point x="237" y="-61"/>
      <point x="243" y="-62"/>
      <point x="267" y="-62" type="curve" smooth="yes"/>
      <point x="274" y="-62"/>
      <point x="285" y="-48"/>
      <point x="300" y="-48" type="curve" smooth="yes"/>
      <point x="319" y="-48"/>
      <point x="324" y="-62"/>
      <point x="324" y="-81" type="curve"/>
      <point x="318" y="-106"/>
      <point x="309" y="-105"/>
      <point x="283" y="-107" type="curve"/>
      <point x="266" y="-107"/>
      <point x="258" y="-105"/>
      <point x="245" y="-101" type="curve"/>
      <point x="232" y="-94"/>
      <point x="225" y="-88"/>
      <point x="221" y="-88" type="curve" smooth="yes"/>
      <point x="219" y="-88"/>
      <point x="218" y="-89"/>
      <point x="218" y="-92" type="curve" smooth="yes"/>
      <point x="213" y="-115"/>
      <point x="210" y="-130"/>
      <point x="210" y="-141" type="curve" smooth="yes"/>
      <point x="210" y="-152"/>
      <point x="246" y="-160"/>
    </contour>
  </outline>
</glyph>
<glyph name="Germandbls.alt" format="1">
  <advance width="624"/>
  <outline>
    <contour>
      <point x="399" y="-13" type="curve"/>
      <point x="468" y="-5" type="line"/>
      <point x="519" y="21" type="line"/>
      <point x="567" y="78" type="line"/>
      <point x="605" y="147"/>
      <point x="601" y="186"/>
      <point x="599" y="237" type="curve"/>
      <point x="599" y="343"/>
      <point x="487" y="416"/>
      <point x="423" y="416" type="curve"/>
      <point x="438" y="433" type="line" smooth="yes"/>
      <point x="448" y="445"/>
      <point x="464" y="451"/>
      <point x="487" y="489" type="curve" smooth="yes"/>
      <point x="510" y="527"/>
      <point x="523" y="564"/>
      <point x="525" y="602" type="curve"/>
      <point x="525" y="684"/>
      <point x="474" y="697"/>
      <point x="444" y="697" type="curve" smooth="yes"/>
      <point x="384" y="697" type="line" smooth="yes"/>
      <point x="363.019" y="697"/>
      <point x="343.623" y="695.767"/>
      <point x="328.103" y="694.337" type="curve"/>
      <point x="292" y="695" type="line"/>
      <point x="223" y="696" type="line" smooth="yes"/>
      <point x="196" y="696"/>
      <point x="155" y="692"/>
      <point x="119" y="692" type="curve" smooth="yes"/>
      <point x="108" y="692"/>
      <point x="93" y="694"/>
      <point x="85" y="694" type="curve" smooth="yes"/>
      <point x="77" y="694"/>
      <point x="71" y="693"/>
      <point x="71" y="678" type="curve" smooth="yes"/>
      <point x="71" y="674" type="line" smooth="yes"/>
      <point x="71" y="655"/>
      <point x="67" y="621"/>
      <point x="67" y="602" type="curve" smooth="yes"/>
      <point x="67" y="512" type="line" smooth="yes"/>
      <point x="67" y="484"/>
      <point x="64" y="465"/>
      <point x="64" y="424" type="curve" smooth="yes"/>
      <point x="64" y="381"/>
      <point x="68" y="357"/>
      <point x="68" y="336" type="curve" smooth="yes"/>
      <point x="68" y="314"/>
      <point x="64" y="206"/>
      <point x="64" y="167" type="curve" smooth="yes"/>
      <point x="64" y="145"/>
      <point x="63" y="111"/>
      <point x="63" y="83" type="curve" smooth="yes"/>
      <point x="63" y="62"/>
      <point x="64" y="44"/>
      <point x="65" y="36" type="curve"/>
      <point x="66" y="15"/>
      <point x="62" y="2"/>
      <point x="78" y="1" type="curve"/>
      <point x="147" y="1" type="line" smooth="yes"/>
      <point x="160" y="1"/>
      <point x="170" y="0"/>
      <point x="170" y="16" type="curve" smooth="yes"/>
      <point x="170" y="25"/>
      <point x="169" y="49"/>
      <point x="169" y="75" type="curve" smooth="yes"/>
      <point x="169" y="94"/>
      <point x="170" y="113"/>
      <point x="171" y="126" type="curve"/>
      <point x="173" y="398" type="line"/>
      <point x="174" y="406"/>
      <point x="175" y="415"/>
      <point x="175" y="426" type="curve" smooth="yes"/>
      <point x="175" y="479" type="line" smooth="yes"/>
      <point x="175" y="485"/>
      <point x="175" y="551"/>
      <point x="176" y="557" type="curve"/>
      <point x="186" y="561"/>
      <point x="207" y="561"/>
      <point x="219" y="561" type="curve" smooth="yes"/>
      <point x="264" y="560"/>
      <point x="283" y="560"/>
      <point x="309.98" y="560.191" type="curve" smooth="yes"/>
      <point x="333.075" y="560.435"/>
      <point x="363.574" y="560.843"/>
      <point x="379.057" y="560.962" type="curve" smooth="yes"/>
      <point x="443" y="562" type="line"/>
      <point x="455" y="562"/>
      <point x="464" y="561"/>
      <point x="466" y="558" type="curve"/>
      <point x="455" y="507"/>
      <point x="396" y="444"/>
      <point x="345" y="406" type="curve" smooth="yes"/>
      <point x="341" y="403"/>
      <point x="342" y="399"/>
      <point x="342" y="395" type="curve" smooth="yes"/>
      <point x="342" y="388"/>
      <point x="345" y="381"/>
      <point x="353" y="373" type="curve" smooth="yes"/>
      <point x="358" y="368"/>
      <point x="362" y="367"/>
      <point x="368" y="367" type="curve" smooth="yes"/>
      <point x="373" y="367"/>
      <point x="378" y="368"/>
      <point x="382" y="371" type="curve"/>
      <point x="418" y="371"/>
      <point x="501" y="365"/>
      <point x="501" y="256" type="curve" smooth="yes"/>
      <point x="501" y="218"/>
      <point x="496" y="201"/>
      <point x="485" y="175" type="curve" smooth="yes"/>
      <point x="474" y="149"/>
      <point x="443" y="139"/>
      <point x="415" y="139" type="curve" smooth="yes"/>
      <point x="365" y="139"/>
      <point x="339" y="145"/>
      <point x="325" y="155" type="curve" smooth="yes"/>
      <point x="311" y="165"/>
      <point x="303" y="179"/>
      <point x="302" y="192" type="curve" smooth="yes"/>
      <point x="301" y="205"/>
      <point x="300" y="216"/>
      <point x="300" y="222" type="curve" smooth="yes"/>
      <point x="300" y="229"/>
      <point x="294" y="249"/>
      <point x="282" y="280" type="curve"/>
      <point x="256" y="280"/>
      <point x="231" y="279"/>
      <point x="220" y="279" type="curve" smooth="yes"/>
      <point x="211" y="279"/>
      <point x="207" y="269"/>
      <point x="207" y="252" type="curve" smooth="yes"/>
      <point x="207" y="246"/>
      <point x="207" y="237"/>
      <point x="209" y="228" type="curve"/>
      <point x="213" y="197"/>
      <point x="180" y="-13"/>
    </contour>
  </outline>
</glyph>
<glyph name="L_L" format="1">
  <advance width="745"/>
  <outline>
    <contour>
      <point x="90" y="-8" type="curve" smooth="yes"/>
      <point x="107" y="-8"/>
      <point x="297" y="1"/>
      <point x="331" y="1" type="curve" smooth="yes"/>
      <point x="366" y="1"/>
      <point x="687" y="-8"/>
      <point x="704" y="-8" type="curve" smooth="yes"/>
      <point x="720" y="-8"/>
      <point x="733" y="-11"/>
      <point x="733" y="2" type="curve" smooth="yes"/>
      <point x="733" y="14"/>
      <point x="730" y="30"/>
      <point x="731" y="37" type="curve" smooth="yes"/>
      <point x="732" y="44"/>
      <point x="735" y="50"/>
      <point x="724" y="50" type="curve" smooth="yes"/>
      <point x="724" y="50"/>
      <point x="723" y="50"/>
      <point x="722" y="50" type="curve"/>
      <point x="382" y="51" type="line"/>
      <point x="251" y="56" type="line"/>
      <point x="249" y="91" type="line" smooth="yes"/>
      <point x="249" y="101"/>
      <point x="248" y="110"/>
      <point x="248" y="119" type="curve" smooth="yes"/>
      <point x="248" y="127"/>
      <point x="249" y="135"/>
      <point x="249" y="139" type="curve" smooth="yes"/>
      <point x="249" y="156"/>
      <point x="251" y="230"/>
      <point x="251" y="248" type="curve" smooth="yes"/>
      <point x="251" y="267"/>
      <point x="248" y="429"/>
      <point x="248" y="473" type="curve" smooth="yes"/>
      <point x="248" y="517"/>
      <point x="254" y="633"/>
      <point x="254" y="650" type="curve" smooth="yes"/>
      <point x="254" y="674"/>
      <point x="270" y="701"/>
      <point x="230" y="696" type="curve" smooth="yes"/>
      <point x="214" y="694"/>
      <point x="197" y="693"/>
      <point x="179" y="693" type="curve" smooth="yes"/>
      <point x="152" y="693"/>
      <point x="126" y="695"/>
      <point x="112" y="697" type="curve"/>
      <point x="99" y="697"/>
      <point x="86" y="703"/>
      <point x="76" y="703" type="curve" smooth="yes"/>
      <point x="68" y="703"/>
      <point x="63" y="699"/>
      <point x="63" y="686" type="curve" smooth="yes"/>
      <point x="63" y="658"/>
      <point x="72" y="457"/>
      <point x="72" y="425" type="curve" smooth="yes"/>
      <point x="72" y="393"/>
      <point x="68" y="126"/>
      <point x="68" y="90" type="curve" smooth="yes"/>
      <point x="68" y="49"/>
      <point x="68" y="20"/>
      <point x="68" y="12" type="curve" smooth="yes"/>
      <point x="68" y="2"/>
      <point x="73" y="-8"/>
    </contour>
    <contour>
      <point x="384" y="138" type="curve" smooth="yes"/>
      <point x="397" y="138"/>
      <point x="559" y="145"/>
      <point x="587" y="145" type="curve" smooth="yes"/>
      <point x="615" y="145"/>
      <point x="695" y="138"/>
      <point x="708" y="138" type="curve" smooth="yes"/>
      <point x="721" y="138"/>
      <point x="732" y="135"/>
      <point x="732" y="146" type="curve" smooth="yes"/>
      <point x="732" y="155"/>
      <point x="729" y="181"/>
      <point x="730" y="187" type="curve" smooth="yes"/>
      <point x="731" y="192"/>
      <point x="734" y="197"/>
      <point x="724" y="197" type="curve" smooth="yes"/>
      <point x="724" y="197"/>
      <point x="723" y="197"/>
      <point x="723" y="197" type="curve"/>
      <point x="639" y="197" type="line"/>
      <point x="547" y="202" type="line"/>
      <point x="546" y="228" type="line" smooth="yes"/>
      <point x="546" y="235"/>
      <point x="546" y="243"/>
      <point x="546" y="251" type="curve" smooth="yes"/>
      <point x="546" y="256"/>
      <point x="546" y="263"/>
      <point x="546" y="266" type="curve" smooth="yes"/>
      <point x="546" y="280"/>
      <point x="547" y="329"/>
      <point x="547" y="343" type="curve" smooth="yes"/>
      <point x="547" y="358"/>
      <point x="546" y="483"/>
      <point x="546" y="518" type="curve" smooth="yes"/>
      <point x="546" y="553"/>
      <point x="550" y="647"/>
      <point x="550" y="660" type="curve" smooth="yes"/>
      <point x="550" y="680"/>
      <point x="563" y="702"/>
      <point x="531" y="697" type="curve" smooth="yes"/>
      <point x="518" y="695"/>
      <point x="505" y="695"/>
      <point x="455" y="695" type="curve" smooth="yes"/>
      <point x="433" y="695"/>
      <point x="413" y="696"/>
      <point x="401" y="698" type="curve"/>
      <point x="391" y="698"/>
      <point x="380" y="703"/>
      <point x="372" y="703" type="curve" smooth="yes"/>
      <point x="366" y="703"/>
      <point x="362" y="700"/>
      <point x="362" y="690" type="curve" smooth="yes"/>
      <point x="362" y="667"/>
      <point x="370" y="506"/>
      <point x="370" y="480" type="curve" smooth="yes"/>
      <point x="370" y="454"/>
      <point x="366" y="246"/>
      <point x="366" y="216" type="curve" smooth="yes"/>
      <point x="366" y="184"/>
      <point x="366" y="160"/>
      <point x="366" y="154" type="curve" smooth="yes"/>
      <point x="366" y="146"/>
      <point x="370" y="138"/>
    </contour>
  </outline>
</glyph>
<glyph name="L_O_S" format="1">
  <advance width="971"/>
  <outline>
    <contour>
      <point x="83" y="170" type="curve" smooth="yes"/>
      <point x="96" y="170"/>
      <point x="248" y="177"/>
      <point x="273" y="177" type="curve" smooth="yes"/>
      <point x="300" y="177"/>
      <point x="530" y="170"/>
      <point x="542" y="170" type="curve" smooth="yes"/>
      <point x="554" y="170"/>
      <point x="564" y="168"/>
      <point x="564" y="178" type="curve" smooth="yes"/>
      <point x="564" y="187"/>
      <point x="562" y="199"/>
      <point x="563" y="204" type="curve" smooth="yes"/>
      <point x="564" y="209"/>
      <point x="566" y="214"/>
      <point x="557" y="214" type="curve" smooth="yes"/>
      <point x="557" y="214"/>
      <point x="557" y="214"/>
      <point x="556" y="214" type="curve"/>
      <point x="312" y="215" type="line"/>
      <point x="209" y="218" type="line"/>
      <point x="208" y="245" type="line" smooth="yes"/>
      <point x="208" y="252"/>
      <point x="207" y="259"/>
      <point x="207" y="266" type="curve" smooth="yes"/>
      <point x="207" y="272"/>
      <point x="208" y="278"/>
      <point x="208" y="281" type="curve" smooth="yes"/>
      <point x="208" y="294"/>
      <point x="209" y="349"/>
      <point x="209" y="363" type="curve" smooth="yes"/>
      <point x="209" y="377"/>
      <point x="207" y="499"/>
      <point x="207" y="532" type="curve" smooth="yes"/>
      <point x="207" y="565"/>
      <point x="211" y="652"/>
      <point x="211" y="664" type="curve" smooth="yes"/>
      <point x="211" y="682"/>
      <point x="223" y="704"/>
      <point x="193" y="699" type="curve" smooth="yes"/>
      <point x="181" y="697"/>
      <point x="169" y="697"/>
      <point x="155" y="697" type="curve" smooth="yes"/>
      <point x="135" y="697"/>
      <point x="110" y="698"/>
      <point x="100" y="700" type="curve"/>
      <point x="90" y="700"/>
      <point x="80" y="704"/>
      <point x="73" y="704" type="curve" smooth="yes"/>
      <point x="67" y="704"/>
      <point x="63" y="701"/>
      <point x="63" y="691" type="curve" smooth="yes"/>
      <point x="63" y="670"/>
      <point x="70" y="520"/>
      <point x="70" y="496" type="curve" smooth="yes"/>
      <point x="70" y="471"/>
      <point x="67" y="271"/>
      <point x="67" y="244" type="curve" smooth="yes"/>
      <point x="67" y="213"/>
      <point x="67" y="191"/>
      <point x="67" y="185" type="curve" smooth="yes"/>
      <point x="67" y="178"/>
      <point x="71" y="170"/>
    </contour>
    <contour>
      <point x="474" y="-6" type="curve" smooth="yes"/>
      <point x="930" y="-6" type="line"/>
      <point x="948" y="-6"/>
      <point x="943" y="8"/>
      <point x="943" y="18" type="curve" smooth="yes"/>
      <point x="943" y="90" type="line" smooth="yes"/>
      <point x="943" y="98"/>
      <point x="937" y="101"/>
      <point x="928" y="101" type="curve" smooth="yes"/>
      <point x="922" y="101"/>
      <point x="914" y="100"/>
      <point x="907" y="100" type="curve" smooth="yes"/>
      <point x="896" y="100"/>
      <point x="867" y="104"/>
      <point x="780" y="104" type="curve" smooth="yes"/>
      <point x="762" y="104"/>
      <point x="743" y="107"/>
      <point x="431" y="107" type="curve" smooth="yes"/>
      <point x="351" y="107"/>
      <point x="284" y="108"/>
      <point x="269" y="108" type="curve"/>
      <point x="256" y="111"/>
      <point x="240" y="111"/>
      <point x="223" y="111" type="curve" smooth="yes"/>
      <point x="190" y="111"/>
      <point x="105" y="108"/>
      <point x="90" y="108" type="curve" smooth="yes"/>
      <point x="58" y="108"/>
      <point x="65" y="101"/>
      <point x="65" y="86" type="curve" smooth="yes"/>
      <point x="65" y="69"/>
      <point x="55" y="14"/>
      <point x="59" y="4" type="curve"/>
      <point x="59" y="-2"/>
      <point x="65" y="-4"/>
      <point x="74" y="-4" type="curve" smooth="yes"/>
      <point x="80" y="-4"/>
      <point x="87" y="-3"/>
      <point x="95" y="-2" type="curve"/>
      <point x="245" y="-2" type="line" smooth="yes"/>
      <point x="258" y="-2"/>
      <point x="273" y="-2"/>
      <point x="293" y="-3" type="curve" smooth="yes"/>
      <point x="313" y="-4"/>
      <point x="403" y="-6"/>
    </contour>
    <contour>
      <point x="421" y="293" type="curve" smooth="yes"/>
      <point x="334" y="292"/>
      <point x="302" y="389"/>
      <point x="302" y="481" type="curve" smooth="yes"/>
      <point x="302" y="573"/>
      <point x="357" y="620"/>
      <point x="374" y="638" type="curve"/>
      <point x="391" y="655"/>
      <point x="407" y="653"/>
      <point x="429" y="653" type="curve" smooth="yes"/>
      <point x="499" y="653"/>
      <point x="545" y="571"/>
      <point x="545" y="475" type="curve" smooth="yes"/>
      <point x="545" y="379"/>
      <point x="508" y="294"/>
    </contour>
    <contour>
      <point x="425" y="247" type="curve" smooth="yes"/>
      <point x="593" y="247"/>
      <point x="605" y="433"/>
      <point x="605" y="475" type="curve" smooth="yes"/>
      <point x="605" y="508"/>
      <point x="586" y="633"/>
      <point x="504" y="689" type="curve" smooth="yes"/>
      <point x="482" y="704"/>
      <point x="452" y="701"/>
      <point x="417" y="701" type="curve" smooth="yes"/>
      <point x="336" y="701"/>
      <point x="255" y="599"/>
      <point x="255" y="488" type="curve"/>
      <point x="257" y="443"/>
      <point x="265" y="403"/>
      <point x="278" y="367" type="curve" smooth="yes"/>
      <point x="300" y="306"/>
      <point x="341" y="247"/>
    </contour>
    <contour>
      <point x="755" y="161" type="curve" smooth="yes"/>
      <point x="821" y="161"/>
      <point x="942" y="180"/>
      <point x="942" y="316" type="curve" smooth="yes"/>
      <point x="942" y="440"/>
      <point x="842" y="462"/>
      <point x="784" y="493" type="curve" smooth="yes"/>
      <point x="746" y="513"/>
      <point x="710" y="531"/>
      <point x="710" y="578" type="curve" smooth="yes"/>
      <point x="710" y="623"/>
      <point x="733" y="657"/>
      <point x="807" y="657" type="curve" smooth="yes"/>
      <point x="849" y="657"/>
      <point x="890" y="628"/>
      <point x="899" y="622" type="curve"/>
      <point x="904" y="618" type="line" smooth="yes"/>
      <point x="908" y="615"/>
      <point x="911" y="614"/>
      <point x="914" y="614" type="curve" smooth="yes"/>
      <point x="920" y="614"/>
      <point x="931" y="637"/>
      <point x="935" y="641" type="curve" smooth="yes"/>
      <point x="937" y="643"/>
      <point x="938" y="644"/>
      <point x="938" y="647" type="curve" smooth="yes"/>
      <point x="938" y="650"/>
      <point x="935" y="654"/>
      <point x="930" y="657" type="curve" smooth="yes"/>
      <point x="921" y="662"/>
      <point x="879" y="705"/>
      <point x="804" y="705" type="curve" smooth="yes"/>
      <point x="728" y="705"/>
      <point x="633" y="651"/>
      <point x="633" y="551" type="curve" smooth="yes"/>
      <point x="633" y="467"/>
      <point x="683" y="426"/>
      <point x="741" y="393" type="curve" smooth="yes"/>
      <point x="800" y="359"/>
      <point x="853" y="342"/>
      <point x="853" y="293" type="curve" smooth="yes"/>
      <point x="853" y="206"/>
      <point x="775" y="209"/>
      <point x="747" y="209" type="curve" smooth="yes"/>
      <point x="720" y="209"/>
      <point x="681" y="230"/>
      <point x="668" y="243" type="curve" smooth="yes"/>
      <point x="657" y="254"/>
      <point x="658" y="255"/>
      <point x="653" y="255" type="curve" smooth="yes"/>
      <point x="653" y="255"/>
      <point x="652" y="255"/>
      <point x="652" y="255" type="curve" smooth="yes"/>
      <point x="646" y="255"/>
      <point x="634" y="231"/>
      <point x="632" y="227" type="curve" smooth="yes"/>
      <point x="630" y="224"/>
      <point x="630" y="220"/>
      <point x="636" y="214" type="curve" smooth="yes"/>
      <point x="642" y="208"/>
      <point x="689" y="161"/>
    </contour>
  </outline>
</glyph>
<glyph name="NJ.alt" format="1">
  <advance width="990"/>
  <outline>
    <contour>
      <point x="413" y="-3" type="curve" smooth="yes"/>
      <point x="435" y="-3"/>
      <point x="468" y="1"/>
      <point x="490" y="1" type="curve" smooth="yes"/>
      <point x="496" y="1"/>
      <point x="502" y="1"/>
      <point x="506" y="0" type="curve" smooth="yes"/>
      <point x="511" y="-1"/>
      <point x="515" y="-1"/>
      <point x="518" y="-1" type="curve" smooth="yes"/>
      <point x="528" y="-1"/>
      <point x="534" y="3"/>
      <point x="534" y="15" type="curve" smooth="yes"/>
      <point x="534" y="-30"/>
      <point x="527" y="180"/>
      <point x="527" y="265" type="curve" smooth="yes"/>
      <point x="527" y="299"/>
      <point x="527" y="398"/>
      <point x="527" y="491" type="curve" smooth="yes"/>
      <point x="527" y="585"/>
      <point x="527" y="675"/>
      <point x="529" y="690" type="curve" smooth="yes"/>
      <point x="533" y="721"/>
      <point x="533" y="738"/>
      <point x="505" y="735" type="curve"/>
      <point x="477" y="730"/>
      <point x="416" y="727"/>
      <point x="395" y="727" type="curve" smooth="yes"/>
      <point x="374" y="727"/>
      <point x="344" y="729"/>
      <point x="344" y="700" type="curve"/>
      <point x="343" y="685"/>
      <point x="343" y="652"/>
      <point x="343" y="623" type="curve"/>
      <point x="343" y="568" type="line"/>
      <point x="328" y="591" type="line" smooth="yes"/>
      <point x="319" y="604"/>
      <point x="308" y="621"/>
      <point x="299" y="638" type="curve" smooth="yes"/>
      <point x="280" y="670"/>
      <point x="259" y="725"/>
      <point x="217" y="725" type="curve" smooth="yes"/>
      <point x="188" y="725"/>
      <point x="182" y="727"/>
      <point x="171" y="727" type="curve" smooth="yes"/>
      <point x="166" y="727"/>
      <point x="160" y="727"/>
      <point x="149" y="725" type="curve" smooth="yes"/>
      <point x="117" y="718"/>
      <point x="106" y="718"/>
      <point x="90" y="719" type="curve" smooth="yes"/>
      <point x="76" y="720"/>
      <point x="64" y="716"/>
      <point x="64" y="688" type="curve" smooth="yes"/>
      <point x="64" y="681"/>
      <point x="65" y="674"/>
      <point x="66" y="665" type="curve" smooth="yes"/>
      <point x="68" y="651"/>
      <point x="69" y="627"/>
      <point x="69" y="598" type="curve" smooth="yes"/>
      <point x="69" y="524"/>
      <point x="64" y="413"/>
      <point x="64" y="328" type="curve"/>
      <point x="67" y="207"/>
      <point x="72" y="67"/>
      <point x="72" y="36" type="curve" smooth="yes"/>
      <point x="71" y="4"/>
      <point x="74" y="-3"/>
      <point x="95" y="0" type="curve" smooth="yes"/>
      <point x="117" y="3"/>
      <point x="157" y="6"/>
      <point x="173" y="6" type="curve"/>
      <point x="185" y="5"/>
      <point x="192" y="5"/>
      <point x="192" y="20" type="curve" smooth="yes"/>
      <point x="192" y="23"/>
      <point x="192" y="27"/>
      <point x="191" y="32" type="curve" smooth="yes"/>
      <point x="186" y="59"/>
      <point x="185" y="224"/>
      <point x="185" y="269" type="curve"/>
      <point x="184" y="292"/>
      <point x="185" y="316"/>
      <point x="185" y="339" type="curve" smooth="yes"/>
      <point x="185" y="377" type="line"/>
      <point x="229" y="294" type="line" smooth="yes"/>
      <point x="253" y="249"/>
      <point x="280" y="198"/>
      <point x="295" y="173" type="curve" smooth="yes"/>
      <point x="325" y="122"/>
      <point x="351" y="61"/>
      <point x="365" y="34" type="curve"/>
      <point x="377" y="8"/>
      <point x="386" y="-3"/>
    </contour>
    <contour>
      <point x="780" y="-15" type="curve" smooth="yes"/>
      <point x="964" y="-15"/>
      <point x="923" y="238"/>
      <point x="927" y="316" type="curve" smooth="yes"/>
      <point x="932" y="394"/>
      <point x="933" y="511"/>
      <point x="933" y="553" type="curve" smooth="yes"/>
      <point x="933" y="596"/>
      <point x="938" y="649"/>
      <point x="938" y="671" type="curve" smooth="yes"/>
      <point x="938" y="694"/>
      <point x="930" y="699"/>
      <point x="907" y="699" type="curve"/>
      <point x="848" y="699" type="line" smooth="yes"/>
      <point x="841" y="699"/>
      <point x="833" y="700"/>
      <point x="826" y="700" type="curve" smooth="yes"/>
      <point x="812" y="700"/>
      <point x="800" y="696"/>
      <point x="800" y="672" type="curve" smooth="yes"/>
      <point x="801" y="445" type="line" smooth="yes"/>
      <point x="801" y="407"/>
      <point x="805" y="336"/>
      <point x="805" y="272" type="curve" smooth="yes"/>
      <point x="805" y="200"/>
      <point x="800" y="137"/>
      <point x="780" y="137" type="curve" smooth="yes"/>
      <point x="749" y="137"/>
      <point x="742" y="177"/>
      <point x="742" y="212" type="curve" smooth="yes"/>
      <point x="742" y="221"/>
      <point x="742" y="230"/>
      <point x="743" y="238" type="curve" smooth="yes"/>
      <point x="744" y="248"/>
      <point x="744" y="258"/>
      <point x="744" y="267" type="curve" smooth="yes"/>
      <point x="744" y="293"/>
      <point x="742" y="317"/>
      <point x="742" y="331" type="curve" smooth="yes"/>
      <point x="742" y="351"/>
      <point x="748" y="368"/>
      <point x="717" y="368" type="curve" smooth="yes"/>
      <point x="686" y="368"/>
      <point x="673" y="365"/>
      <point x="653" y="366" type="curve" smooth="yes"/>
      <point x="633" y="366"/>
      <point x="605" y="381"/>
      <point x="608" y="330" type="curve" smooth="yes"/>
      <point x="611" y="278"/>
      <point x="612" y="221"/>
      <point x="612" y="193" type="curve" smooth="yes"/>
      <point x="612" y="165"/>
      <point x="620" y="-15"/>
    </contour>
  </outline>
</glyph>
